<?xml version="1.0" encoding="UTF-8"?>
<svg width="764px" height="385px" viewBox="0 0 764 385" version="1.1" xmlns="http://www.w3.org/2000/svg" xmlns:xlink="http://www.w3.org/1999/xlink">
    <!-- Generator: Sketch 48.2 (47327) - http://www.bohemiancoding.com/sketch -->
    <title>Car 11</title>
    <desc>Created with Sketch.</desc>
    <defs>
        <rect id="path-1" x="62" y="102" width="631" height="88"></rect>
        <path d="M387.911467,0.537767811 L511.660732,0.537767811 C521.679535,0.537767811 531.476428,3.48868247 539.828497,9.02215854 L603.406393,51.1442701 C613.543448,57.8603484 624.923727,62.4766473 636.874917,64.7204484 L700.074435,76.5859745 C711.342041,78.7014349 720.30576,87.2562776 722.944593,98.4129208 L733.437861,142.777089 C737.68696,150.92724 738.727259,160.355036 736.558758,171.060476 C735.365895,176.949391 733.41777,182.579429 730.714382,187.950589 L730.714382,187.950589 C726.807605,195.712675 718.859689,200.610222 710.169874,200.610222 L680.893375,200.610222 C676.445675,138.036206 650.813879,106.749199 603.997988,106.749199 C557.182096,106.749199 532.488466,138.036206 529.917098,200.610222 L218.321789,200.610222 C211.209286,135.573999 184.866099,104.286992 139.292227,106.749199 C96.153499,109.079843 72.9317146,137.237199 69.6268733,191.221267 L69.6268721,191.221267 C69.3039013,196.496945 64.9311139,200.610222 59.6455595,200.610222 L25.0072333,200.610222 C15.3694293,200.610222 6.85367057,194.337124 3.99632403,185.132623 C3.1616352,182.443802 2.43121631,179.496521 1.80506738,176.29078 C0.234489626,168.249778 0.0739792783,160.85331 1.32353634,154.101376 L1.32353936,154.101377 C2.20408135,149.343402 5.19053835,145.239499 9.44706316,142.938265 L15.5304117,139.649382 C18.950973,137.800101 21.7217798,134.945846 23.4687811,131.471933 C36.4718633,105.615301 53.8294992,88.8828079 75.5416888,81.2744545 C98.1836451,73.3402937 146.944593,67.8352605 221.824532,64.759355 L221.824532,64.7593533 C225.177413,64.6216242 228.47524,63.8600766 231.549023,62.5137342 L359.425588,6.50274127 C368.407123,2.56875479 378.106152,0.537767811 387.911467,0.537767811 Z" id="path-2"></path>
        <path d="M708.953187,100.533572 L719.010429,90.6889382 C722.828306,103.032917 725.430755,112.460852 726.817775,118.972744 C728.204795,125.484636 731.260885,136.630535 735.986045,152.410441 L709.485119,160.587578 C710.481693,143.296462 710.481693,131.58042 709.485119,125.439452 C708.784777,121.123885 707.673644,116.539249 706.15172,111.685542 L706.15172,111.685542 C704.913678,107.737189 705.996159,103.428089 708.953187,100.533572 Z" id="path-3"></path>
        <polygon id="path-4" points="707.683505 114 724.728757 114 727.674418 127 710.992575 127"></polygon>
        <polygon id="path-5" points="711 136 730.024634 136 734.528859 148.785776 711 161.571552"></polygon>
        <path d="M365.934662,14 L515.737223,14 C529.125879,23.1890831 538.917903,30.6766204 545.113297,36.4626118 C551.30869,42.2486033 561.7284,53.0633999 576.372425,68.9070017 L220.892186,68.9070017 L360.5,6.66521317 L365.934662,14 Z" id="path-6"></path>
        <polygon id="path-7" points="256.502307 68.8460193 307.277343 44.7344891 310.236088 68.8460193 278.54519 68.8460193"></polygon>
        <path d="M320.43464,48 L324,48 C326.209139,48 328,49.790861 328,52 L328,58.0703959 C328,60.1174237 326.340556,61.7768676 324.293528,61.7768676 L322.361752,61.7768676 C321.349202,61.7768676 320.496398,62.5336019 320.375952,63.5389632 L320.143913,65.4758089 C319.903023,67.4865315 318.197414,69 316.172313,69 L291.852943,69 C291.300658,69 290.852943,68.5522847 290.852943,68 C290.852943,67.6788239 291.007209,67.3771937 291.267618,67.1892013 L315.75204,49.5136104 C317.115099,48.5296018 318.753509,48 320.43464,48 Z" id="path-8"></path>
        <path d="M48.6807435,97 L80.8207641,97.5815045 C82.4773472,97.6114768 83.7959758,98.9787001 83.7660035,100.635283 C83.7519427,101.412433 83.4368005,102.153789 82.8869622,102.703186 L56.7705122,128.798656 C55.6158085,129.952432 54.0408598,130.585941 52.4088484,130.553096 L24.926425,130 C28.9862913,122.18478 32.2929816,116.503472 34.8464957,112.956077 C37.4000099,109.408681 42.0114258,104.089989 48.6807435,97 Z" id="path-9"></path>
        <path d="M215,176 L532.038765,176 C531.380069,181.645233 530.941113,185.8119 530.721897,188.5 C530.502681,191.1881 530.262049,195.354767 530,201 L218.314569,201 L215,176 Z" id="path-10"></path>
        <path d="M674.33836,159.17036 C690.577564,159.538937 701.868955,158.68624 708.212532,156.612269 C714.556108,154.538297 722.857833,149.254613 733.117705,140.761214 C736.886396,151.666577 737.587519,163.25091 735.221073,175.514216 C732.854628,187.777522 726.025585,196.244509 714.733946,200.915178 L680.712681,200.915178 C680.243989,191.268602 679.626742,184.03586 678.86094,179.216952 C678.095137,174.398044 676.587611,167.715847 674.33836,159.17036 Z" id="path-11"></path>
        <path d="M2,151.386765 C24.8663576,152.082444 41.4458352,152.082444 51.7384329,151.386765 C62.0310305,150.691087 71.0503612,148.960859 78.7964249,146.196081 C74.8560051,157.744335 72.4496828,166.418403 71.5774579,172.218284 C70.9863301,176.149003 70.5520047,181.760622 70.2744816,189.053142 L70.2744784,189.053142 C70.0292011,195.498331 64.7330161,200.596799 58.2831616,200.596799 L24.6164834,200.59682 C13.6906966,200.59682 4.4516727,192.51059 3.00411298,181.681122 C3.00411298,181.681122 3.00411298,181.681122 3.00411298,181.681122 C2.52202683,178.074544 0.26919174,167.673519 0.501529791,161.049934 C0.67314255,156.15753 1.17263262,152.936474 2,151.386765 Z" id="path-12"></path>
    </defs>
    <g id="Page-1" stroke="none" stroke-width="1" fill="none" fill-rule="evenodd">
        <g id="Car-11">
            <g transform="translate(13.000000, 74.000000)">
                <g id="Rectangle-167">
                    <use fill="#876165" fill-rule="evenodd" xlink:href="#path-1"></use>
                    <rect stroke="#000000" stroke-width="4" x="64" y="104" width="627" height="84"></rect>
                </g>
                <g id="Rectangle-161">
                    <use fill="#FBC042" fill-rule="evenodd" xlink:href="#path-2"></use>
                    <path stroke="#000000" stroke-width="4" d="M220.109198,198.610222 L528.004992,198.610222 C531.046845,136.333713 556.455977,104.749199 603.997988,104.749199 C651.527446,104.749199 677.854152,136.316002 682.749326,198.610222 L710.169874,198.610222 C718.104053,198.610222 725.360845,194.138549 728.927903,187.051427 C731.551331,181.839134 733.441028,176.377951 734.598568,170.663418 C736.68,160.38782 735.691016,151.425072 731.66441,143.701682 L731.549016,143.480346 L720.998295,98.8732705 C718.54145,88.486051 710.195919,80.5211974 699.705389,78.5516308 L636.505871,66.6861048 C624.292018,64.3929893 612.661622,59.6752333 602.301775,52.8115489 L538.723878,10.6894373 C530.699342,5.37296032 521.28664,2.53776781 511.660732,2.53776781 L387.911467,2.53776781 C378.382358,2.53776781 368.956541,4.51154389 360.228007,8.33471385 L232.351442,64.3457068 C229.049972,65.7917777 225.507862,66.6097366 221.906618,66.7576697 C147.227245,69.8253365 98.5930914,75.3160548 76.2030934,83.1619248 C55.0144326,90.5868239 38.0387529,106.951117 25.255564,132.370491 C23.3246679,136.210079 20.2621972,139.364782 16.481577,141.408724 L10.3982283,144.697607 C6.67376963,146.711187 4.06061901,150.302102 3.29014211,154.465329 C2.08855742,160.958046 2.24360913,168.102975 3.76797503,175.907383 C4.38077723,179.044791 5.09393857,181.922437 5.90640663,184.539677 C8.50399441,192.907405 16.2455933,198.610222 25.0072333,198.610222 L59.6455595,198.610222 C63.8740028,198.610222 67.372233,195.3196 67.6306105,191.099058 C70.9929832,136.175223 94.9365527,107.142673 139.184331,104.752111 C185.566933,102.246211 212.602257,133.834159 220.109195,198.610201 Z"></path>
                </g>
                <g id="Rectangle-170">
                    <use fill="#DDDCEA" fill-rule="evenodd" xlink:href="#path-3"></use>
                    <path stroke="#000000" stroke-width="3" d="M711.103285,158.518493 L734.123088,151.415492 C729.62873,136.350956 726.706119,125.648829 725.350685,119.285231 C724.063892,113.243893 721.713247,104.638946 718.300534,93.4828444 L710.002456,101.605502 C707.44866,104.105312 706.513789,107.826808 707.583007,111.236749 C709.125583,116.156318 710.253486,120.810148 710.965749,125.199171 C711.942654,131.218938 711.983549,142.298641 711.103285,158.518493 Z"></path>
                </g>
                <g id="Rectangle-171">
                    <use fill="#7B0303" fill-rule="evenodd" xlink:href="#path-4"></use>
                    <path stroke="#000000" stroke-width="2" d="M708.969937,115 L711.769919,126 L726.422478,126 L723.929996,115 L708.969937,115 Z"></path>
                </g>
                <g id="Rectangle-171">
                    <use fill="#7B0303" fill-rule="evenodd" xlink:href="#path-5"></use>
                    <path stroke="#000000" stroke-width="2" d="M712,137 L712,159.890034 L733.302459,148.314103 L729.31668,137 L712,137 Z"></path>
                </g>
                <g id="Wheel" transform="translate(546.000000, 114.000000)">
                    <circle id="Oval-14" fill="#000000" cx="60.5" cy="60.5" r="60.5"></circle>
                    <circle id="Oval-15" stroke="#556F7C" stroke-width="14" cx="60" cy="60" r="48"></circle>
                    <circle id="Oval-16" fill="#E3E2E5" cx="60" cy="60" r="35"></circle>
                    <ellipse id="Oval-17" stroke="#000000" fill="#917F7F" transform="translate(53.503657, 38.099789) rotate(-12.000000) translate(-53.503657, -38.099789) " cx="53.5036574" cy="38.0997894" rx="5.5" ry="9.5"></ellipse>
                    <ellipse id="Oval-17" stroke="#000000" fill="#917F7F" transform="translate(75.468274, 44.458696) rotate(49.000000) translate(-75.468274, -44.458696) " cx="75.4682738" cy="44.458696" rx="5.5" ry="9.5"></ellipse>
                    <ellipse id="Oval-17" stroke="#000000" fill="#917F7F" transform="translate(80.649264, 64.473309) rotate(102.000000) translate(-80.649264, -64.473309) " cx="80.6492645" cy="64.4733085" rx="5.5" ry="9.5"></ellipse>
                    <ellipse id="Oval-17" stroke="#000000" fill="#B1AFBA" transform="translate(65.074298, 79.355798) rotate(167.000000) translate(-65.074298, -79.355798) " cx="65.0742977" cy="79.3557977" rx="5.5" ry="9.5"></ellipse>
                    <ellipse id="Oval-17" stroke="#000000" fill="#B1AFBA" transform="translate(43.496070, 74.493746) rotate(216.000000) translate(-43.496070, -74.493746) " cx="43.4960704" cy="74.4937464" rx="5.5" ry="9.5"></ellipse>
                    <ellipse id="Oval-17" stroke="#030303" fill="#917F7F" transform="translate(38.338164, 54.018563) rotate(279.000000) translate(-38.338164, -54.018563) " cx="38.3381638" cy="54.0185628" rx="5.5" ry="9.5"></ellipse>
                    <circle id="Oval-18" fill="#000000" cx="60.5" cy="57.5" r="6.5"></circle>
                    <path d="M22,24.7750148 C25.3256431,20.4942948 27.7931099,17.6413714 29.4024005,16.2162447 C31.0116911,14.7911181 34.0695007,13.7190365 38.5758292,13 L38.5758292,16.2162447 C34.5983231,16.7527768 31.9353475,17.6431977 30.5869024,18.8875074 C29.2384573,20.1318171 27.5298,22.0943196 25.4609306,24.7750148 L22,24.7750148 Z" id="Rectangle-80" fill="#F3EEEE"></path>
                </g>
                <g id="Wheel" transform="translate(83.000000, 116.000000)">
                    <circle id="Oval-14" fill="#000000" cx="60.5" cy="60.5" r="60.5"></circle>
                    <circle id="Oval-15" stroke="#556F7C" stroke-width="14" cx="60" cy="60" r="48"></circle>
                    <circle id="Oval-16" fill="#E3E2E5" cx="60" cy="60" r="35"></circle>
                    <ellipse id="Oval-17" stroke="#000000" fill="#917F7F" transform="translate(53.503657, 38.099789) rotate(-12.000000) translate(-53.503657, -38.099789) " cx="53.5036574" cy="38.0997894" rx="5.5" ry="9.5"></ellipse>
                    <ellipse id="Oval-17" stroke="#000000" fill="#917F7F" transform="translate(75.468274, 44.458696) rotate(49.000000) translate(-75.468274, -44.458696) " cx="75.4682738" cy="44.458696" rx="5.5" ry="9.5"></ellipse>
                    <ellipse id="Oval-17" stroke="#000000" fill="#917F7F" transform="translate(80.649264, 64.473309) rotate(102.000000) translate(-80.649264, -64.473309) " cx="80.6492645" cy="64.4733085" rx="5.5" ry="9.5"></ellipse>
                    <ellipse id="Oval-17" stroke="#000000" fill="#B1AFBA" transform="translate(65.074298, 79.355798) rotate(167.000000) translate(-65.074298, -79.355798) " cx="65.0742977" cy="79.3557977" rx="5.5" ry="9.5"></ellipse>
                    <ellipse id="Oval-17" stroke="#000000" fill="#B1AFBA" transform="translate(43.496070, 74.493746) rotate(216.000000) translate(-43.496070, -74.493746) " cx="43.4960704" cy="74.4937464" rx="5.5" ry="9.5"></ellipse>
                    <ellipse id="Oval-17" stroke="#030303" fill="#917F7F" transform="translate(38.338164, 54.018563) rotate(279.000000) translate(-38.338164, -54.018563) " cx="38.3381638" cy="54.0185628" rx="5.5" ry="9.5"></ellipse>
                    <circle id="Oval-18" fill="#000000" cx="60.5" cy="57.5" r="6.5"></circle>
                    <path d="M22,24.7750148 C25.3256431,20.4942948 27.7931099,17.6413714 29.4024005,16.2162447 C31.0116911,14.7911181 34.0695007,13.7190365 38.5758292,13 L38.5758292,16.2162447 C34.5983231,16.7527768 31.9353475,17.6431977 30.5869024,18.8875074 C29.2384573,20.1318171 27.5298,22.0943196 25.4609306,24.7750148 L22,24.7750148 Z" id="Rectangle-80" fill="#F3EEEE"></path>
                </g>
                <path d="M398.5,91.5 L418.5,91.5" id="Line-109" stroke="#000000" stroke-width="6" stroke-linecap="square"></path>
                <path d="M542.5,86.5 L562.5,86.5" id="Line-109" stroke="#000000" stroke-width="6" stroke-linecap="square"></path>
                <path d="M444.5,15.5 L441.38546,66.5810052 C441.361395,94.8798175 440.173483,115.217809 437.821724,127.59498 C435.469966,139.972151 429.696058,156.273825 420.5,176.5" id="Line-112" stroke="#000000" stroke-width="3" stroke-linecap="square"></path>
                <path d="M257.5,67.5 C246.91491,88.0529799 240.581577,104.190752 238.5,115.913317 C236.418423,127.635882 236.418423,147.164777 238.5,174.5" id="Line-113" stroke="#000000" stroke-width="3" stroke-linecap="square"></path>
                <path d="M573.5,67.5 C578.369805,73.9404402 581.369805,79.1071069 582.5,83 C583.630195,86.8928931 583.630195,92.0595598 582.5,98.5" id="Line-114" stroke="#000000" stroke-width="3" stroke-linecap="square"></path>
                <path d="M175.5,92.5 L610.5,82.5" id="Line-104" stroke="#000000" stroke-width="3" stroke-linecap="square"></path>
                <g id="Rectangle-165">
                    <use fill="#758AAC" fill-rule="evenodd" xlink:href="#path-6"></use>
                    <path stroke="#000000" stroke-width="3" d="M360.011393,8.52537374 L227.940391,67.4070017 L572.939704,67.4070017 C559.539891,52.9562675 549.917747,43.0020032 544.089477,37.5588748 C538.018418,31.8890018 528.407386,24.5299895 515.271682,15.5 L365.179197,15.5 L360.011393,8.52537374 Z"></path>
                </g>
                <path d="M368.5,24.5 L351.5,61.5" id="Line-115" stroke="#FFFFFF" stroke-width="3" stroke-linecap="square"></path>
                <path d="M387.5,24.5 L370.5,61.5" id="Line-115" stroke="#FFFFFF" stroke-width="3" stroke-linecap="square"></path>
                <path d="M406.5,25.5 L389.5,62.5" id="Line-115" stroke="#FFFFFF" stroke-width="3" stroke-linecap="square"></path>
                <path d="M478.5,25.5 L461.5,62.5" id="Line-115" stroke="#FFFFFF" stroke-width="3" stroke-linecap="square"></path>
                <path d="M498.5,25.5 L481.5,62.5" id="Line-115" stroke="#FFFFFF" stroke-width="3" stroke-linecap="square"></path>
                <path d="M509.5,44.5 L501.5,61.5" id="Line-115" stroke="#FFFFFF" stroke-width="3" stroke-linecap="square"></path>
                <g id="Rectangle-168">
                    <use fill="#5C302C" fill-rule="evenodd" xlink:href="#path-7"></use>
                    <path stroke="#000000" stroke-width="3" d="M263.157891,67.3460193 L308.540771,67.3460193 L306.041852,46.9817221 L263.157891,67.3460193 Z"></path>
                </g>
                <g id="Rectangle-169">
                    <use fill="#D1CCB3" fill-rule="evenodd" xlink:href="#path-8"></use>
                    <path stroke="#000000" stroke-width="3" d="M293.399775,67.5 L316.172313,67.5 C317.438001,67.5 318.504006,66.5540822 318.654563,65.2973806 L318.886602,63.3605348 C319.097381,61.6011525 320.589789,60.2768676 322.361752,60.2768676 L324.293528,60.2768676 C325.512129,60.2768676 326.5,59.2889966 326.5,58.0703959 L326.5,52 C326.5,50.6192881 325.380712,49.5 324,49.5 L320.43464,49.5 C319.068721,49.5 317.737513,49.9303015 316.630027,50.7298084 L293.399775,67.5 Z"></path>
                </g>
                <path d="M437.5,15.5 L430.5,65.5" id="Line-111" stroke="#000000" stroke-width="3" stroke-linecap="square"></path>
                <path d="M452.5,16.5 L452.5,65.5" id="Line-111" stroke="#000000" stroke-width="3" stroke-linecap="square"></path>
                <path d="M509.5,16.5 L522.5,66.5" id="Line-111" stroke="#000000" stroke-width="3" stroke-linecap="square"></path>
                <path d="M265.5,66.5 L364.702489,16.1189706" id="Line-110" stroke="#000000" stroke-width="3" stroke-linecap="square"></path>
                <path d="M256.5,152.5 L506.5,152.5" id="Line-108" stroke="#000000" stroke-width="3" stroke-linecap="square"></path>
                <path d="M545.246994,120.5 C561.838361,104.401203 582.589363,96.0533 607.5,95.4562902 C632.410637,94.8592804 652.410637,103.207184 667.5,120.5" id="Line-107" stroke="#000000" stroke-width="3" stroke-linecap="square"></path>
                <g id="Rectangle-162">
                    <use fill="#F9F9F9" fill-rule="evenodd" xlink:href="#path-9"></use>
                    <path stroke="#000000" stroke-width="3" d="M49.3186243,98.5117866 C42.93588,105.315716 38.5121286,110.43126 36.0638966,113.832396 C33.7981758,116.979983 30.8990046,121.89068 27.3799046,128.549074 L52.4390304,129.0534 C53.663039,129.078034 54.8442505,128.602902 55.7102783,127.73757 L81.8267283,101.6421 C82.1016475,101.367402 82.2592185,100.996723 82.266249,100.608148 C82.2812351,99.7798568 81.6219208,99.0962452 80.7936292,99.081259 L49.3186243,98.5117866 Z"></path>
                </g>
                <path d="M44.5,127.5 L53.5,114.5" id="Line-106" stroke="#000000" stroke-width="4" stroke-linecap="square"></path>
                <path d="M84.5,120.5 C98.4312708,105.161474 117.764013,96.9884302 142.498227,95.9808699 C167.232441,94.9733095 187.566365,103.146353 203.5,120.5" id="Line-105" stroke="#000000" stroke-width="3" stroke-linecap="square"></path>
                <g id="Rectangle-163">
                    <use fill="#F69F39" fill-rule="evenodd" xlink:href="#path-10"></use>
                    <path stroke="#000000" stroke-width="4" d="M217.282667,178 L220.066905,199 L528.092591,199 C528.320866,194.291599 528.532608,190.739708 528.728515,188.337438 C528.919885,185.990796 529.275068,182.547153 529.794471,178 L217.282667,178 Z"></path>
                </g>
                <g id="Rectangle-164">
                    <use fill="#F69F39" fill-rule="evenodd" xlink:href="#path-11"></use>
                    <path stroke="#000000" stroke-width="3" d="M676.290184,160.709419 C678.275568,168.387095 679.626069,174.47424 680.34235,178.981532 C681.079915,183.622752 681.677684,190.428469 682.139589,199.415178 L714.433198,199.415178 C725.092264,194.916526 731.495861,186.902222 733.748245,175.230005 C735.917013,163.991096 735.456427,153.358605 732.371946,143.311096 C722.755939,151.102894 714.877408,156.011384 708.678662,158.038004 C702.396906,160.091764 691.628824,160.969496 676.290184,160.709419 Z"></path>
                </g>
                <g id="Rectangle-166">
                    <use fill="#F69F39" fill-rule="evenodd" xlink:href="#path-12"></use>
                    <path stroke="#000000" stroke-width="4" d="M3.35573482,153.428286 C2.93005673,154.978135 2.62466257,157.574683 2.5003005,161.120046 C2.42854195,163.165767 2.60526588,165.761844 2.99462789,168.865535 C3.19658022,170.475342 3.44911439,172.17545 3.76292114,174.088499 C3.87015979,174.742255 4.8538611,180.423982 4.98648161,181.416141 C6.30126566,191.25229 14.6928512,198.59682 24.6164822,198.59682 L58.2831616,198.596799 C63.6580398,198.596799 68.0715279,194.348076 68.2759282,188.977085 C68.5560295,181.61682 68.9955387,175.938224 69.5996975,171.920855 C70.3941335,166.638233 72.4046015,159.121715 75.6325849,149.336242 C68.6135641,151.439122 60.6938324,152.786031 51.8733055,153.382213 C41.7147076,154.068834 25.5523423,154.083056 3.35573482,153.428286 Z"></path>
                </g>
            </g>
        </g>
    </g>
</svg>