<?xml version="1.0" encoding="UTF-8"?>
<svg width="764px" height="385px" viewBox="0 0 764 385" version="1.1" xmlns="http://www.w3.org/2000/svg" xmlns:xlink="http://www.w3.org/1999/xlink">
    <!-- Generator: Sketch 48.2 (47327) - http://www.bohemiancoding.com/sketch -->
    <title>Car 8</title>
    <desc>Created with Sketch.</desc>
    <defs>
        <polygon id="path-1" points="56 91 654 91 661.612599 159.814546 496.787155 179 56 179"></polygon>
        <path d="M259.171571,56.9333152 L308.703399,8.3755874 C312.081201,5.06421302 316.572726,3.13187587 321.299667,2.95643914 C359.121798,1.55270032 384.81277,0.850830909 398.372584,0.850830909 C411.538125,0.850830909 436.88233,1.51247788 474.405198,2.83577182 L474.405198,2.8357718 C481.924824,3.10096146 489.338779,4.69008704 496.306501,7.53015184 C511.579135,13.7553247 522.918917,19.1752159 530.325845,23.7898256 C538.108243,28.6383574 549.671169,38.1054144 565.014621,52.1909966 L565.014621,52.1909963 C570.171015,56.9246638 576.699037,59.8961172 583.655182,60.6758877 C598.528048,62.3431074 613.353349,64.3087779 628.131084,66.5728993 C648.845077,69.7465245 667.468049,74.8125785 684,81.7710612 L684,152.901246 C684,158.115111 679.994072,162.45402 674.796783,162.869452 L651.232,164.753042 C639.247921,165.710959 628.169909,158.327667 624.441951,146.897966 C620.827508,135.816298 617.018406,127.649269 613.014645,122.396877 C608.959945,117.077662 604.007679,112.622795 598.157844,109.032274 L598.157844,109.032275 C593.121571,105.941104 587.327712,104.304837 581.418449,104.304837 L542.603566,104.304837 C533.4964,104.304837 524.794108,108.068496 518.557049,114.704726 C512.168738,121.501888 506.249344,129.841573 500.798867,139.723781 C493.68422,152.623281 488.701747,165.635035 485.851449,178.759046 L485.851449,178.759046 C484.553318,184.736208 479.264107,189.000001 473.147604,189.000001 L254.938319,189.000002 C239.701994,189.000002 226.023497,179.660058 220.477004,165.469146 C216.598522,155.545903 212.646833,146.964115 208.621937,139.723781 C202.860956,129.360428 195.124858,119.446485 185.413644,109.981955 L185.413643,109.981957 C181.678783,106.34197 176.669828,104.304837 171.454593,104.304837 L122.532768,104.304838 C118.073042,104.304838 113.688286,105.451985 109.799951,107.636018 C101.88586,112.081273 94.2258383,120.308875 86.8198848,132.318825 C78.6539677,145.561179 72.8237993,160.484599 69.3293796,177.089088 L69.3293819,177.089088 C67.8685066,184.030752 61.7446269,189.000001 54.650908,189.000001 L45.6314829,189.000001 C33.6847442,189.000001 23.999999,179.315256 23.999999,167.368517 C23.999999,167.368517 23.999999,167.368517 23.999999,167.368517 L24.0000001,109.142768 C24.0000002,97.7682456 30.4327815,87.3720089 40.6118049,82.2958648 C53.0006964,76.1176888 68.9869705,71.6216279 88.5706271,68.8076821 C117.519287,64.6480932 169.963893,62.5007017 245.904444,62.3655076 L245.904444,62.3655052 C250.866492,62.3566714 255.628199,60.407003 259.171571,56.9333152 Z" id="path-2"></path>
        <path d="M405,23 L464.354681,23 C468.115697,23 471.73948,24.4128742 474.507928,26.9586427 L508.407394,58.1314093 C510.054818,59.6463226 510.992329,61.7820612 510.992329,64.0201333 L510.992329,67.7542126 C510.992329,71.7559505 507.748279,75 503.746541,75 L405,75 C403.343146,75 402,73.6568542 402,72 L402,26 C402,24.3431458 403.343146,23 405,23 Z" id="path-3"></path>
        <path d="M329.39058,23 L388,23 C389.104569,23 390,23.8954305 390,25 L390,73 C390,74.1045695 389.104569,75 388,75 L277.633714,75 C276.529144,75 275.633714,74.1045695 275.633714,73 C275.633714,72.501055 275.82021,72.0201279 276.156592,71.6516266 L314.619361,29.516266 C318.408721,25.3650816 323.769941,23 329.39058,23 Z" id="path-4"></path>
        <path d="M662,133 L683,133 C688.522847,133 693,137.477153 693,143 L693,149 C693,154.522847 688.522847,159 683,159 L661,159 C656.581722,159 653,155.418278 653,151 L653,142 C653,137.029437 657.029437,133 662,133 Z" id="path-5"></path>
        <path d="M663.943191,100.281245 L682.745286,86.9101574 L682.745286,125 L667,125 C663.686292,125 661,122.313708 661,119 L661,105.985831 C661,103.720034 662.0967,101.594374 663.943191,100.281245 Z" id="path-6"></path>
        <rect id="path-7" x="663" y="106" width="18" height="13"></rect>
        <rect id="path-8" x="212" y="110" width="18" height="13" rx="3"></rect>
        <path d="M6.92248188,153.261126 L35.9382429,153.261126 C39.2519514,153.261126 41.9382429,155.947418 41.9382429,159.261126 L41.9382429,171.956523 C41.9382429,175.270232 39.2519514,177.956523 35.9382429,177.956523 L6.92248188,177.956523 C3.60877338,177.956523 0.922481882,175.270232 0.922481882,171.956523 L0.922481882,159.261126 C0.922481882,155.947418 3.60877338,153.261126 6.92248188,153.261126 Z" id="path-9"></path>
        <rect id="path-10" x="24" y="108" width="21" height="28" rx="7"></rect>
    </defs>
    <g id="Page-1" stroke="none" stroke-width="1" fill="none" fill-rule="evenodd">
        <g id="Car-8">
            <g transform="translate(36.000000, 76.000000)">
                <g id="Rectangle-132">
                    <use fill="#2F6260" fill-rule="evenodd" xlink:href="#path-1"></use>
                    <path stroke="#000000" stroke-width="4" d="M58,93 L58,177 L496.671148,177 L659.406068,158.05788 L652.209049,93 L58,93 Z"></path>
                </g>
                <g id="Rectangle-121">
                    <use fill="#639829" fill-rule="evenodd" xlink:href="#path-2"></use>
                    <path stroke="#000000" stroke-width="4" d="M682,83.1042738 C665.931462,76.4740324 647.87481,71.621206 627.828195,68.5498309 C613.077089,66.2897893 598.27849,64.3276591 583.432381,62.663439 C576.054652,61.8364096 569.130992,58.6848683 563.66209,53.664312 C548.403307,39.656458 536.919334,30.2540428 529.268275,25.4873367 C521.976087,20.9442124 510.728172,15.568229 495.551596,9.38220991 C488.801616,6.63089713 481.619347,5.09143173 474.334709,4.83452926 C436.83491,3.51204887 411.507138,2.85083091 398.372584,2.85083091 C384.845222,2.85083091 359.17187,3.55221892 321.373845,4.9550631 C317.144476,5.1120328 313.125744,6.84096604 310.103499,9.80377469 L260.571672,58.3615025 C256.655314,62.200841 251.392375,64.3557381 245.908005,64.3655044 C170.057215,64.5005388 117.683608,66.6450232 88.8550826,70.78735 C69.468004,73.5730498 53.6821867,78.0127332 41.5043512,84.0856584 C32.0039294,88.8233928 26.0000002,98.5265471 26.0000001,109.142768 L25.999999,167.368517 C25.999999,178.210686 34.7893137,187.000001 45.6314829,187.000001 L54.650908,187.000001 C60.7987981,187.000001 66.1061601,182.693318 67.3722501,176.677209 C70.9131688,159.851771 76.8277429,144.712298 85.1175315,131.269066 C92.6869856,118.993974 100.57074,110.526061 108.820503,105.892263 C113.007941,103.540227 117.729986,102.304838 122.532768,102.304838 L171.454593,102.304837 C177.191351,102.304837 182.701201,104.545682 186.809549,108.549667 C196.655497,118.145508 204.511206,128.212735 210.369996,138.752036 C214.44161,146.07641 218.430337,154.738633 222.339778,164.741084 C227.586461,178.16492 240.525579,187.000002 254.938319,187.000002 L473.147604,187.000001 C478.323106,187.000001 482.798593,183.392176 483.897011,178.334577 C486.789445,165.016555 491.841432,151.823263 499.047579,138.757868 C504.575303,128.735604 510.590936,120.26033 517.099684,113.335023 C523.714747,106.296596 532.944451,102.304837 542.603566,102.304837 L581.418449,102.304837 C587.69704,102.304837 593.853016,104.04337 599.204056,107.327739 C605.262764,111.046462 610.399965,115.667689 614.605225,121.184419 C618.76851,126.646084 622.665375,135.001284 626.343367,146.277792 C629.78456,156.828285 640.010417,163.643632 651.072644,162.759401 L674.637426,160.875811 C678.795257,160.543465 682,157.072338 682,152.901246 L682,83.1042738 Z"></path>
                </g>
                <rect id="Rectangle-125" fill="#000000" x="365" y="80" width="23" height="7"></rect>
                <rect id="Rectangle-125" fill="#000000" x="488" y="80" width="23" height="7"></rect>
                <g id="Rectangle-124">
                    <use fill="#7B8FA4" fill-rule="evenodd" xlink:href="#path-3"></use>
                    <path stroke="#000000" stroke-width="3" d="M405,24.5 C404.171573,24.5 403.5,25.1715729 403.5,26 L403.5,72 C403.5,72.8284271 404.171573,73.5 405,73.5 L503.746541,73.5 C506.919852,73.5 509.492329,70.9275234 509.492329,67.7542126 L509.492329,64.0201333 C509.492329,62.2016997 508.730601,60.4664121 507.392069,59.2355451 L473.492603,28.0627784 C471.001,25.7715867 467.739596,24.5 464.354681,24.5 L405,24.5 Z"></path>
                </g>
                <path d="M395.344318,19.80125 L395.344318,69.4090022 C395.344318,73.3583142 396.395245,77.2364947 398.389227,80.6454683 L398.389227,80.6454683 C400.383209,84.054442 401.434136,87.9326225 401.434136,91.8819345 L401.434136,117.6264 L400.740014,140.382146 C400.534686,147.113521 399.251385,153.768433 396.938975,160.093489 L393.5,169.5" id="Line-69" stroke="#000000" stroke-width="3" stroke-linecap="square"></path>
                <g id="Rectangle-123">
                    <use fill="#7B8FA4" fill-rule="evenodd" xlink:href="#path-4"></use>
                    <path stroke="#000000" stroke-width="3" d="M329.39058,24.5 C324.191489,24.5 319.23236,26.6877005 315.727202,30.5275461 L277.264433,72.6629067 C277.180338,72.755032 277.133714,72.8752637 277.133714,73 C277.133714,73.2761424 277.357571,73.5 277.633714,73.5 L388,73.5 C388.276142,73.5 388.5,73.2761424 388.5,73 L388.5,25 C388.5,24.7238576 388.276142,24.5 388,24.5 L329.39058,24.5 Z"></path>
                </g>
                <path d="M76.5,147.5 L59.5,147.5" id="Line-68" stroke="#000000" stroke-width="3" stroke-linecap="square"></path>
                <path d="M76.5,144.5 L59.5,144.5" id="Line-68" stroke="#FFFFFF" stroke-width="3" stroke-linecap="square"></path>
                <path d="M643.5,146.5 L626.5,146.5" id="Line-68" stroke="#000000" stroke-width="3" stroke-linecap="square"></path>
                <path d="M643.5,143.5 L626.5,143.5" id="Line-68" stroke="#FFFFFF" stroke-width="3" stroke-linecap="square"></path>
                <path d="M216.5,141.5 L493.5,141.5" id="Line-66" stroke="#FFFFFF" stroke-width="3" stroke-linecap="square"></path>
                <path d="M216.5,145.5 L491.5,145.5" id="Line-65" stroke="#000000" stroke-width="3" stroke-linecap="square"></path>
                <path d="M55.5,100.5 L652.5,100.5" id="Line-64" stroke="#000000" stroke-width="3" stroke-linecap="square"></path>
                <path d="M244.279299,66.5441309 C243.071719,71.6806976 242.2759,76.0600164 241.891844,79.6820875 C240.075914,96.8082929 240.773716,110.496034 240.773716,120.300141 C240.773716,131.825574 240.627298,150.078789 243.136858,175.121259 C243.338475,177.13316 244.126189,180.259407 245.5,184.5" id="Line-63" stroke="#000000" stroke-width="3" stroke-linecap="square"></path>
                <path d="M256.344837,74.1844191 C252.991116,76.5664878 251.02407,80.4461154 251.084587,84.5592691 L252.211104,161.125048 C252.279448,165.770203 256.064525,169.5 260.710184,169.5 L463.469633,169.5 C468.19507,169.5 472.338352,166.343405 473.592857,161.787533 C477.022377,149.332875 481.312623,138.924929 486.472879,130.56327 C488.663564,127.013492 492.056728,122.730743 497.935699,115.915059 C497.620837,116.280089 511.26898,100.651244 515.789137,95.3189932 C518.036733,92.6675934 521.083575,88.6164251 524.919755,83.1755997 C526.762653,80.5618302 527.751925,77.4419888 527.751925,74.243854 L527.751925,71.2894619 C527.751925,69.3046541 526.965164,67.400776 525.564026,65.994976 L481.438923,21.7230641 C478.718274,18.9933634 475.022845,17.4590702 471.168861,17.4590702 L328.053396,17.4590702 C321.979754,17.4590702 316.141989,19.810607 311.764194,24.020598 C288.602394,46.2945788 275.00156,59.2348226 270.920447,62.8795708 C267.441939,65.9861472 262.585699,69.7516821 256.344837,74.1844191 Z" id="Rectangle-122" stroke="#000000" stroke-width="3"></path>
                <path d="M308.5,20.5 C312.286603,15.6425465 315.615751,12.9758799 318.487442,12.5 C333.985583,9.93173921 379.656435,9.93173921 455.5,12.5" id="Line-67" stroke="#FFFFFF" stroke-width="4" stroke-linecap="square"></path>
                <path d="M38,98.9261956 C42.8440725,94.1443844 46.17322,91.4777177 47.9874424,90.9261956 C61.2133826,86.9055206 80.0359767,79.5420822 126.826444,75.9105012 C144.446281,74.5429605 178.828053,74.5429605 229.971761,75.9105012" id="Line-67" stroke="#FFFFFF" stroke-width="4" stroke-linecap="square"></path>
                <path d="M285.5,73.5 L290.5,65.5" id="Line-71" stroke="#0C0C0C" stroke-width="3" stroke-linecap="square"></path>
                <path d="M299.5,65.5 L291.5,65.5" id="Line-71" stroke="#0C0C0C" stroke-width="5" stroke-linecap="square"></path>
                <path d="M299.5,68.5 L299.5,57.5" id="Line-71" stroke="#0C0C0C" stroke-width="6" stroke-linecap="square"></path>
                <path d="M353.5,68.5 L370.5,34.5" id="Line-72" stroke="#FFFFFF" stroke-width="4" stroke-linecap="square"></path>
                <path d="M412.5,68.5 L429.5,34.5" id="Line-72" stroke="#FFFFFF" stroke-width="4" stroke-linecap="square"></path>
                <path d="M431.5,68.5 L448.5,34.5" id="Line-72" stroke="#FFFFFF" stroke-width="4" stroke-linecap="square"></path>
                <path d="M450.5,68.5 L467.5,34.5" id="Line-72" stroke="#FFFFFF" stroke-width="4" stroke-linecap="square"></path>
                <path d="M483.5,68.5 L491,52" id="Line-72" stroke="#FFFFFF" stroke-width="4" stroke-linecap="square"></path>
                <path d="M334.5,68.5 L351.5,34.5" id="Line-72" stroke="#FFFFFF" stroke-width="4" stroke-linecap="square"></path>
                <path d="M315.5,68.5 L332.5,34.5" id="Line-72" stroke="#FFFFFF" stroke-width="4" stroke-linecap="square"></path>
                <path d="M470.5,28 L470.5,71.5" id="Line-70" stroke="#000000" stroke-width="4" stroke-linecap="square"></path>
                <g id="Rectangle-126">
                    <use fill="#D4D4D4" fill-rule="evenodd" xlink:href="#path-5"></use>
                    <path stroke="#000000" stroke-width="4" d="M662,135 C658.134007,135 655,138.134007 655,142 L655,151 C655,154.313708 657.686292,157 661,157 L683,157 C687.418278,157 691,153.418278 691,149 L691,143 C691,138.581722 687.418278,135 683,135 L662,135 Z"></path>
                </g>
                <g id="Rectangle-127">
                    <use fill="#9E7578" fill-rule="evenodd" xlink:href="#path-6"></use>
                    <path stroke="#000000" stroke-width="3" d="M681.245286,123.5 L681.245286,89.817505 L664.812507,101.503656 C663.361693,102.535401 662.5,104.205562 662.5,105.985831 L662.5,119 C662.5,121.485281 664.514719,123.5 667,123.5 L681.245286,123.5 Z"></path>
                </g>
                <g id="Rectangle-128">
                    <use fill="#931900" fill-rule="evenodd" xlink:href="#path-7"></use>
                    <rect stroke="#000000" stroke-width="1" x="663.5" y="106.5" width="17" height="12"></rect>
                </g>
                <g id="Rectangle-129">
                    <use fill="#616F54" fill-rule="evenodd" xlink:href="#path-8"></use>
                    <rect stroke="#000000" stroke-width="2" x="213" y="111" width="16" height="11" rx="3"></rect>
                </g>
                <g id="Rectangle-130">
                    <use fill="#C4C4C4" fill-rule="evenodd" xlink:href="#path-9"></use>
                    <path stroke="#000000" stroke-width="3" d="M6.92248188,154.761126 C4.43720051,154.761126 2.42248188,156.775845 2.42248188,159.261126 L2.42248188,171.956523 C2.42248188,174.441805 4.43720051,176.456523 6.92248188,176.456523 L35.9382429,176.456523 C38.4235243,176.456523 40.4382429,174.441805 40.4382429,171.956523 L40.4382429,159.261126 C40.4382429,156.775845 38.4235243,154.761126 35.9382429,154.761126 L6.92248188,154.761126 Z"></path>
                </g>
                <g id="Rectangle-131">
                    <use fill="#FFFFFF" fill-rule="evenodd" xlink:href="#path-10"></use>
                    <rect stroke="#000000" stroke-width="3" x="25.5" y="109.5" width="18" height="25" rx="7"></rect>
                </g>
                <g id="Wheel" transform="translate(85.000000, 114.000000)" stroke="#000000">
                    <circle id="Oval-10" stroke-width="4" fill="#405063" cx="58.5" cy="58.5" r="58.5"></circle>
                    <circle id="Oval-10" stroke-width="4" fill="#D8D8D8" cx="58.5" cy="59.5" r="35.5"></circle>
                    <circle id="Oval-10" stroke-width="4" fill="#8E8E8E" cx="58.5" cy="59.5" r="27.5"></circle>
                    <path d="M61.5,32.5 L53.5,84.5" id="Line-60" stroke-width="3" stroke-linecap="square"></path>
                    <path d="M46.5,34.5 L70.5,83.5" id="Line-60" stroke-width="3" stroke-linecap="square"></path>
                    <path d="M35.5,48.5 L80.5,68.5" id="Line-60" stroke-width="3" stroke-linecap="square"></path>
                    <path d="M32.5,64.5 L83.5,53.5" id="Line-60" stroke-width="3" stroke-linecap="square"></path>
                    <path d="M39.5,78.5 L75.5,40.5" id="Line-60" stroke-width="3" stroke-linecap="square"></path>
                    <circle id="Oval-10" stroke-width="4" fill="#D8D8D8" cx="58.5" cy="59.5" r="19.5"></circle>
                </g>
                <path d="M102,139.775015 C105.325643,135.494295 107.79311,132.641371 109.402401,131.216245 C111.011691,129.791118 114.069501,128.719036 118.575829,128 L118.575829,131.216245 C114.598323,131.752777 111.935347,132.643198 110.586902,133.887507 C109.238457,135.131817 107.5298,137.09432 105.460931,139.775015 L102,139.775015 Z" id="Rectangle-80" fill="#F3EEEE"></path>
                <g id="Wheel" transform="translate(501.000000, 116.000000)">
                    <circle id="Oval-10" stroke="#000000" stroke-width="4" fill="#405063" cx="58.5" cy="58.5" r="58.5"></circle>
                    <circle id="Oval-10" stroke="#000000" stroke-width="4" fill="#D8D8D8" cx="58.5" cy="59.5" r="35.5"></circle>
                    <circle id="Oval-10" stroke="#000000" stroke-width="4" fill="#8E8E8E" cx="58.5" cy="59.5" r="27.5"></circle>
                    <path d="M61.5,32.5 L53.5,84.5" id="Line-60" stroke="#000000" stroke-width="3" stroke-linecap="square"></path>
                    <path d="M46.5,34.5 L70.5,83.5" id="Line-60" stroke="#000000" stroke-width="3" stroke-linecap="square"></path>
                    <path d="M35.5,48.5 L80.5,68.5" id="Line-60" stroke="#000000" stroke-width="3" stroke-linecap="square"></path>
                    <path d="M32.5,64.5 L83.5,53.5" id="Line-60" stroke="#000000" stroke-width="3" stroke-linecap="square"></path>
                    <path d="M39.5,78.5 L75.5,40.5" id="Line-60" stroke="#000000" stroke-width="3" stroke-linecap="square"></path>
                    <circle id="Oval-10" stroke="#000000" stroke-width="4" fill="#D8D8D8" cx="58.5" cy="59.5" r="19.5"></circle>
                    <path d="M16,27.7750148 C19.3256431,23.4942948 21.7931099,20.6413714 23.4024005,19.2162447 C25.0116911,17.7911181 28.0695007,16.7190365 32.5758292,16 L32.5758292,19.2162447 C28.5983231,19.7527768 25.9353475,20.6431977 24.5869024,21.8875074 C23.2384573,23.1318171 21.5298,25.0943196 19.4609306,27.7750148 L16,27.7750148 Z" id="Rectangle-80" fill="#F3EEEE"></path>
                </g>
            </g>
        </g>
    </g>
</svg>