<?xml version="1.0" encoding="UTF-8"?>
<svg width="764px" height="385px" viewBox="0 0 764 385" version="1.1" xmlns="http://www.w3.org/2000/svg" xmlns:xlink="http://www.w3.org/1999/xlink">
    <!-- Generator: Sketch 48.2 (47327) - http://www.bohemiancoding.com/sketch -->
    <title>Car 7</title>
    <desc>Created with Sketch.</desc>
    <defs>
        <path d="M297.56454,6.88739286 C328.314116,3.30449826 358.17272,1.32678867 387.140354,0.954264106 C416.571985,0.575772513 445.496274,2.57229339 473.913222,6.94382673 L473.913222,6.94382727 C476.914445,7.4055217 479.722323,8.71171865 482.008825,10.7098209 L543.858924,64.7586904 C494.589242,77.3921963 459.140274,84.870722 437.512019,87.1942676 C385.575341,92.7738783 341.204675,86.8176075 306.313508,87.1942676 C249.627482,87.8062093 224.33024,81.4555646 230.421783,68.1423334 L286.339197,12.3139819 C289.364052,9.29394485 293.318878,7.38209105 297.56454,6.88739286 Z" id="path-1"></path>
        <path d="M424.82346,17.2200416 L443.44207,16.5808443 C446.018454,16.4923942 448.509085,17.5129804 450.282585,19.3838832 L467.567929,37.6185626 C469.847636,40.0234743 469.746138,43.821108 467.341226,46.100815 C466.795329,46.6182915 466.156997,47.0285076 465.459501,47.3100826 L443.847092,56.0348781 C439.64371,57.7317573 434.834322,56.0377043 432.622323,52.0810792 L418.953652,27.6317793 C417.067125,24.2573283 418.273325,19.9924629 421.647776,18.1059359 C422.620706,17.562008 423.709463,17.2582863 424.82346,17.2200416 Z" id="path-2"></path>
        <path d="M317.154613,20.2086449 L397.252624,17.341092 C403.001176,17.1352907 408.2906,20.4666813 410.588209,25.7401237 L435.191054,82.2082575 L245.285487,82.2082575 L289.168554,22.4417488 L312.9871,23.5563077 C313.381389,23.5747579 313.74964,23.3595467 313.927091,23.0069631 L314.46871,21.9308041 C314.982659,20.9096243 316.012125,20.2495466 317.154613,20.2086449 Z" id="path-3"></path>
        <path d="M291.462278,12.0252558 L299.89831,23.0778568 C291.325178,32.4283748 283.899896,40.4676907 277.622462,47.1958048 C271.345028,53.9239188 265.43368,63.8221079 259.888419,76.8903719 L229.983826,67.1985623 L291.462278,12.0252558 Z" id="path-4"></path>
        <path d="M679,74 C688.305466,73.6894764 693.764393,74.3278515 695.37678,75.9151254 C704.145551,84.5473223 699.738619,95.9941611 698,98.3733235 C695.78184,101.408701 689.448507,101.950926 679,100 L679,74 Z" id="path-5"></path>
        <rect id="path-6" x="66" y="72" width="179" height="89"></rect>
        <path d="M445,72 L624,72 L636.007664,145.282694 C612.616044,152.879685 595.639475,157.112714 585.077958,157.981782 C574.51644,158.85085 527.823788,159.856923 445,161 L445,72 Z" id="path-7"></path>
        <path d="M20.5586006,67.4244887 C66.7325419,55.9463234 102.516856,49.8488138 127.911543,49.1319596 C135.812649,48.9089232 183.116194,45.0933381 220.564143,51.7375232 C247.233461,56.4693146 268.751514,68.3455166 273.299922,71.3929848 C276.619083,73.6168479 330.308168,73.6168479 434.367176,71.3929848 C454.894746,61.2650386 469.951181,54.713218 479.536482,51.7375232 C509.956586,42.2937982 536.044284,40.7773337 552.535688,41.4145285 C577.040989,42.3613643 616.67331,50.2512533 671.432651,65.0841954 L671.43265,65.084197 C680.764103,67.6118552 687.922546,75.1083461 690.017243,84.5464236 C691.339081,90.5022263 692,97.5443148 692,105.672689 C692,123.247146 691.056182,134.409711 689.168546,139.160384 C638.912383,155.370759 612.563794,158.536726 610.122778,148.658284 C593.440968,81.1493728 549.383879,80.0230613 530.15886,79.311003 C514.362936,78.7259519 498.846603,81.4326762 474.244706,111.150576 C454.015836,135.586072 462.920143,171.641788 453.294735,171.636873 C281.629261,171.549226 220.373283,177.116453 220.564143,165.464169 C221.480226,109.535841 180.855958,79.799713 160.960843,79.311003 C97.9916779,77.7642081 69.8998426,108.539498 76.6853367,171.636873 L30.2223525,163.5913 C23.1615977,162.368653 17.6256642,156.849778 16.381232,149.792831 C13.9882066,136.22242 12.4758048,127.322391 11.8440264,123.092742 C11.2023473,118.796811 9.60482743,106.837744 7.05146667,87.2155399 L7.05146692,87.2155399 C5.87112818,78.1448094 11.6815618,69.6311904 20.5586006,67.4244887 Z" id="path-8"></path>
        <path d="M6.32578571,129 L49.6048225,129 C53.2457141,131.22585 55.2622289,134.22888 55.6543669,138.00909 C56.0465049,141.789301 54.9317731,145.786271 52.3101716,150 L6.32578571,150 C2.02761924,148.079248 -0.0794364697,144.579248 0.0046185829,139.5 C0.0886736355,134.420752 2.19572935,130.920752 6.32578571,129 Z" id="path-9"></path>
        <path d="M675.979736,110.201738 L707.240305,110.201738 C708.897159,110.201738 710.240305,111.544884 710.240305,113.201738 C710.240305,113.585481 710.166682,113.96566 710.023428,114.321661 L705.22758,126.239844 C704.313384,128.511716 702.110243,130 699.661333,130 L669.022819,130 C666.81368,130 665.022819,128.209139 665.022819,126 C665.022819,125.467181 665.129269,124.939732 665.33592,124.44862 L669.527664,114.486823 C670.620219,111.890335 673.162747,110.201738 675.979736,110.201738 Z" id="path-10"></path>
    </defs>
    <g id="Page-1" stroke="none" stroke-width="1" fill="none" fill-rule="evenodd">
        <g id="Car-7">
            <g transform="translate(27.000000, 87.000000)">
                <path d="M60.5,40.5 L60.5,50.5" id="Line-62" stroke="#080808" stroke-width="7" stroke-linecap="square"></path>
                <path d="M47.5,62.5 C49.0287049,58.3286893 50.008797,54.7858616 50.4402763,51.871517 C50.8717556,48.9571723 53.2249968,47.5 57.5,47.5" id="Line-61" stroke="#000000" stroke-width="4" stroke-linecap="square"></path>
                <g id="Rectangle-113">
                    <use fill="#F7BE61" fill-rule="evenodd" xlink:href="#path-1"></use>
                    <path stroke="#000000" stroke-width="4" d="M232.103306,69.2896637 C230.042519,74.2868677 233.937606,78.0947339 245.313029,80.9504314 C257.755892,84.0741003 278.107021,85.4986481 306.291918,85.1943841 C316.509689,85.0840804 323.221774,85.3137338 346.98824,86.3867603 C386.950208,88.1909938 409.483819,88.1938577 437.298387,85.2057101 C458.265831,82.953156 492.409833,75.8044995 539.679625,63.762578 L480.692781,12.2158182 C478.692092,10.4674789 476.235199,9.32455642 473.609129,8.92057331 C445.301943,4.56592534 416.48796,2.57701845 387.166071,2.95409875 C358.268384,3.3257238 328.478372,5.29889011 297.796011,8.87395299 C293.997261,9.3165777 290.458732,11.0271838 287.752283,13.7293222 L232.103306,69.2896637 Z"></path>
                </g>
                <g id="Rectangle-116">
                    <use fill="#8E8E8E" fill-rule="evenodd" xlink:href="#path-2"></use>
                    <path stroke="#000000" stroke-width="3" d="M424.874926,18.7191584 C423.999643,18.7492078 423.144191,18.9878463 422.379746,19.4152182 C419.728392,20.8974894 418.780663,24.2484551 420.262934,26.8998094 L433.931606,51.3491094 C435.774938,54.6462969 439.782761,56.0580078 443.285579,54.6439418 L464.897988,45.9191462 C465.421111,45.707965 465.899859,45.400303 466.309282,45.0121956 C468.112966,43.3024153 468.18909,40.45419 466.47931,38.6505063 L449.193965,20.4158268 C447.716049,18.8567412 445.640523,18.0062527 443.493536,18.0799611 L424.874926,18.7191584 Z"></path>
                </g>
                <polygon id="Rectangle-117" fill="#FFFEFE" points="447.669846 23.9147812 452 27 441.057054 53.0394876 436.433397 50.1776671"></polygon>
                <g id="Rectangle-115">
                    <use fill="#A0A0A0" fill-rule="evenodd" xlink:href="#path-3"></use>
                    <path stroke="#000000" stroke-width="3" d="M289.90171,23.9776972 L248.247764,80.7082575 L432.901323,80.7082575 L409.213063,26.3392672 C407.161626,21.6308364 402.438926,18.6563805 397.306291,18.8401317 L317.208279,21.7076846 C316.612898,21.7289995 316.076416,22.0729836 315.808584,22.6051477 L315.266965,23.6813066 C314.823336,24.5627658 313.902709,25.1007938 312.916986,25.0546681 L289.90171,23.9776972 Z"></path>
                </g>
                <polygon id="Rectangle-117" fill="#FFFEFE" points="380.566603 26.7288919 385.55039 28.4413682 369.623657 67.1247064 365 64.2628859"></polygon>
                <polygon id="Rectangle-117" fill="#FFFEFE" points="361.566603 26.7288919 366.55039 28.4413682 350.623657 67.1247064 346 64.2628859"></polygon>
                <polygon id="Rectangle-117" fill="#FFFEFE" points="341.566603 26.7288919 346.55039 28.4413682 330.623657 67.1247064 326 64.2628859"></polygon>
                <polygon id="Rectangle-117" fill="#FFFEFE" points="297.566603 29 302.55039 30.7124763 286.623657 69.3958145 282 66.533994"></polygon>
                <path d="M314.5,25.5 L301.5,77.5" id="Line-53" stroke="#000000" stroke-width="3" stroke-linecap="square"></path>
                <g id="Rectangle-114">
                    <use fill="#DEDEDE" fill-rule="evenodd" xlink:href="#path-4"></use>
                    <path stroke="#000000" stroke-width="3" d="M291.255354,14.226437 L232.924631,66.5748409 L259.048875,75.0414735 C264.501311,62.4462766 270.319262,52.8245399 276.525705,46.1725138 C282.591867,39.6708393 289.73136,31.9431392 297.943969,22.9896333 L291.255354,14.226437 Z"></path>
                </g>
                <g id="Rectangle-112">
                    <use fill="#7B0303" fill-rule="evenodd" xlink:href="#path-5"></use>
                    <path stroke="#000000" stroke-width="3" d="M680.5,75.458183 L680.5,98.7457418 C689.659533,100.32822 695.120879,99.7708716 696.788913,97.4882986 C697.82466,96.0709608 698.956795,92.716534 699.130733,89.4103077 C699.373756,84.7908829 697.917264,80.5209067 694.324477,76.9840774 C693.209511,75.8864776 688.449641,75.275631 680.5,75.458183 Z"></path>
                </g>
                <g id="Rectangle-120">
                    <use fill="#494133" fill-rule="evenodd" xlink:href="#path-6"></use>
                    <rect stroke="#000000" stroke-width="4" x="68" y="74" width="175" height="85"></rect>
                </g>
                <g id="Rectangle-120">
                    <use fill="#494133" fill-rule="evenodd" xlink:href="#path-7"></use>
                    <path stroke="#000000" stroke-width="4" d="M447,74 L447,158.972134 C528.471774,157.841832 574.509029,156.8447 584.913939,155.988519 C595.036977,155.155532 611.344366,151.129228 633.755903,143.909054 L622.301038,74 L447,74 Z"></path>
                </g>
                <g id="Wheel" transform="translate(474.000000, 93.000000)" stroke="#000000">
                    <circle id="Oval-10" stroke-width="4" fill="#405063" cx="58.5" cy="58.5" r="58.5"></circle>
                    <circle id="Oval-10" stroke-width="4" fill="#D8D8D8" cx="58.5" cy="59.5" r="35.5"></circle>
                    <circle id="Oval-10" stroke-width="4" fill="#8E8E8E" cx="58.5" cy="59.5" r="27.5"></circle>
                    <path d="M61.5,32.5 L53.5,84.5" id="Line-60" stroke-width="3" stroke-linecap="square"></path>
                    <path d="M46.5,34.5 L70.5,83.5" id="Line-60" stroke-width="3" stroke-linecap="square"></path>
                    <path d="M35.5,48.5 L80.5,68.5" id="Line-60" stroke-width="3" stroke-linecap="square"></path>
                    <path d="M32.5,64.5 L83.5,53.5" id="Line-60" stroke-width="3" stroke-linecap="square"></path>
                    <path d="M39.5,78.5 L75.5,40.5" id="Line-60" stroke-width="3" stroke-linecap="square"></path>
                    <circle id="Oval-10" stroke-width="4" fill="#D8D8D8" cx="59" cy="59" r="14"></circle>
                </g>
                <g id="Wheel" transform="translate(87.000000, 95.000000)" stroke="#000000">
                    <circle id="Oval-10" stroke-width="4" fill="#405063" cx="58.5" cy="58.5" r="58.5"></circle>
                    <circle id="Oval-10" stroke-width="4" fill="#D8D8D8" cx="58.5" cy="59.5" r="35.5"></circle>
                    <circle id="Oval-10" stroke-width="4" fill="#8E8E8E" cx="58.5" cy="59.5" r="27.5"></circle>
                    <path d="M61.5,32.5 L53.5,84.5" id="Line-60" stroke-width="3" stroke-linecap="square"></path>
                    <path d="M46.5,34.5 L70.5,83.5" id="Line-60" stroke-width="3" stroke-linecap="square"></path>
                    <path d="M35.5,48.5 L80.5,68.5" id="Line-60" stroke-width="3" stroke-linecap="square"></path>
                    <path d="M32.5,64.5 L83.5,53.5" id="Line-60" stroke-width="3" stroke-linecap="square"></path>
                    <path d="M39.5,78.5 L75.5,40.5" id="Line-60" stroke-width="3" stroke-linecap="square"></path>
                    <circle id="Oval-10" stroke-width="4" fill="#D8D8D8" cx="59" cy="59" r="14"></circle>
                </g>
                <g id="Rectangle-110">
                    <use fill="#E98D38" fill-rule="evenodd" xlink:href="#path-8"></use>
                    <path stroke="#000000" stroke-width="4" d="M74.4319734,169.216885 C68.5879017,106.686597 97.7107638,75.7567043 161.009956,77.3116061 C172.511313,77.5941292 188.062102,86.3942631 200.079425,100.289433 C214.60905,117.089482 222.990049,139.478336 222.563875,165.496924 C222.523913,167.936665 230.377329,169.840584 249.148128,170.524215 C265.399858,171.116102 269.548368,171.091634 345.461696,170.263183 C385.358701,169.827783 416.992248,169.618338 453.295756,169.636873 C454.895436,169.63769 455.90266,166.724603 456.933088,157.862719 C458.814971,141.678165 459.40265,137.937777 462.053839,129.778278 C464.504324,122.236483 467.956373,115.610244 472.704116,109.875202 C484.474934,95.6566232 494.758214,86.8426104 504.633245,82.066698 C512.830161,78.1023806 520.238942,76.9422167 530.232885,77.3123734 C538.289886,77.6107895 542.175022,77.8884646 547.712472,78.8034139 C555.538652,80.0965287 562.835635,82.3610564 569.745269,85.9299639 C589.488884,96.127774 604.100486,115.949768 612.064378,148.178504 C613.996374,155.997016 639.63418,152.968458 687.615898,137.559074 C689.17637,132.65853 690,121.946222 690,105.672689 C690,97.6813237 689.352459,90.7817763 688.064753,84.9797616 C686.131186,76.2676903 679.523393,69.3478523 670.909744,67.0146278 C616.28591,52.218391 576.774422,44.352557 552.458469,43.4130373 C531.124849,42.5887489 506.133258,45.5748844 480.129452,53.6475981 C470.669541,56.5843664 455.692199,63.1017697 435.252096,73.1865615 L434.853868,73.3830403 L434.409909,73.3925283 C382.36737,74.5047384 342.91772,75.0608821 316.056107,75.0608821 C287.899028,75.0608821 274.394981,74.534096 272.186682,73.054519 C268.96755,70.8976761 262.108962,67.2919762 254.445643,64.0377709 C243.579915,59.4236728 231.973365,55.7930347 220.214751,53.706768 C213.143433,52.4521428 205.425072,51.5218163 197.144358,50.887184 C179.314603,49.520715 160.902154,49.5726165 140.966177,50.489173 C137.989322,50.6260339 129.057214,51.1004158 127.967978,51.1311633 C102.744139,51.8431946 67.0875715,57.9189367 21.0410872,69.365418 C13.1503861,71.3269307 7.98555615,78.894592 9.03474592,86.9574635 C11.5860789,106.564084 13.1830886,118.519332 13.8220818,122.797282 C14.4503566,127.003475 15.9609481,135.892851 18.3508426,149.445507 C19.448871,155.672225 24.3335183,160.541821 30.5635961,161.620627 L74.4319763,169.216916 Z"></path>
                </g>
                <path d="M301.574084,19.3055038 C337.909607,16.5689738 359.145863,14.9808241 365.282852,14.5410546 C371.419841,14.1012852 397.628916,13.6005517 443.910077,13.0388541" id="Line-59" stroke="#FFFCFC" stroke-width="3" stroke-linecap="square"></path>
                <path d="M475.5,85.5 C498.315214,72.9053442 518.862607,67.0245163 537.142179,67.8575162 C555.421751,68.6905161 574.207691,76.5713441 593.5,91.5" id="Line-58" stroke="#080808" stroke-width="3" stroke-linecap="square"></path>
                <path d="M91.5,89.5 C101.002274,83.4427384 108.022313,79.5756005 112.560116,77.8985863 C117.097919,76.2215721 125.411214,74.4220433 137.5,72.5" id="Line-56" stroke="#FFFFFF" stroke-width="3" stroke-linecap="square"></path>
                <path d="M385.317874,95.5 C384.966522,101.337368 389.496876,104.151575 398.908937,103.942622 C408.320997,103.733669 412.851352,100.919462 412.5,95.5" id="Line-57" stroke="#000000" stroke-width="4" stroke-linecap="square"></path>
                <path d="M483,89 C492.502274,82.9427384 499.522313,79.0756005 504.060116,77.3985863 C508.597919,75.7215721 516.911214,73.9220433 529,72" id="Line-56" stroke="#FFFFFF" stroke-width="3" stroke-linecap="square"></path>
                <g id="Rectangle-118">
                    <use fill="#D8D8D8" fill-rule="evenodd" xlink:href="#path-9"></use>
                    <path stroke="#000000" stroke-width="4" d="M6.78697881,131 C3.63315222,132.614633 2.07340243,135.360103 2.00434478,139.533093 C1.93576325,143.677312 3.47739033,146.389856 6.76955886,148 L51.174345,148 C53.1674322,144.500871 53.9795911,141.247709 53.6650417,138.215452 C53.3559707,135.236008 51.8509234,132.867497 49.0237624,131 L6.78697881,131 Z"></path>
                </g>
                <path d="M89.5,85.5 C103.209592,73.8041127 122.542925,68.1027221 147.5,68.3958282 C172.457075,68.6889344 191.790408,77.0569916 205.5,93.5" id="Line-54" stroke="#000000" stroke-width="3" stroke-linecap="square"></path>
                <path d="M248.5,63.5 C240.245384,72.5673816 235.239187,84.6342952 233.481407,99.7007407 C231.723628,114.767186 233.063159,132.033606 237.5,151.5" id="Line-52" stroke="#000000" stroke-width="4" stroke-linecap="square"></path>
                <g id="Rectangle-111">
                    <use fill="#CFCFCF" fill-rule="evenodd" xlink:href="#path-10"></use>
                    <path stroke="#010101" stroke-width="4" d="M675.979736,112.201738 C673.967601,112.201738 672.15151,113.407879 671.371113,115.262513 L667.179369,125.22431 C667.076044,125.469866 667.022819,125.733591 667.022819,126 C667.022819,127.104569 667.918249,128 669.022819,128 L699.661333,128 C701.29394,128 702.7627,127.007811 703.372164,125.493229 L708.168013,113.575046 C708.215764,113.456379 708.240305,113.329653 708.240305,113.201738 C708.240305,112.649454 707.79259,112.201738 707.240305,112.201738 L675.979736,112.201738 Z"></path>
                </g>
                <path d="M436.5,74.5 C438.788128,91.7768625 438.788128,104.610196 436.5,113 C434.211872,121.389804 427.211872,134.223138 415.5,151.5" id="Line-51" stroke="#000000" stroke-width="4" stroke-linecap="square"></path>
                <path d="M223.5,152.5 L456.5,152.5" id="Line-50" stroke="#030303" stroke-width="4" stroke-linecap="square"></path>
                <path d="M15.5,102.5 C14.2324024,86.7377012 15.8777453,78.4511275 20.4360287,77.640279 C23.3600241,77.1201452 64.4156919,62.2456542 119.293147,59.0624829 C135.015858,58.1504857 161.382105,56.0346958 193.998719,59.0624829 C200.53401,59.6691513 210.367771,61.8149903 223.5,65.5" id="Line-55" stroke="#FFFFFF" stroke-width="4" stroke-linecap="square"></path>
                <rect id="Rectangle-119" stroke="#000000" stroke-width="3" x="51.5" y="89.5" width="15" height="10"></rect>
                <path d="M493,115.775015 C496.325643,111.494295 498.79311,108.641371 500.402401,107.216245 C502.011691,105.791118 505.069501,104.719036 509.575829,104 L509.575829,107.216245 C505.598323,107.752777 502.935347,108.643198 501.586902,109.887507 C500.238457,111.131817 498.5298,113.09432 496.460931,115.775015 L493,115.775015 Z" id="Rectangle-80" fill="#F3EEEE"></path>
                <path d="M111,115.775015 C114.325643,111.494295 116.79311,108.641371 118.402401,107.216245 C120.011691,105.791118 123.069501,104.719036 127.575829,104 L127.575829,107.216245 C123.598323,107.752777 120.935347,108.643198 119.586902,109.887507 C118.238457,111.131817 116.5298,113.09432 114.460931,115.775015 L111,115.775015 Z" id="Rectangle-80" fill="#F3EEEE"></path>
            </g>
        </g>
    </g>
</svg>