<?xml version="1.0" encoding="UTF-8"?>
<svg width="595px" height="385px" viewBox="0 0 595 385" version="1.1" xmlns="http://www.w3.org/2000/svg" xmlns:xlink="http://www.w3.org/1999/xlink">
    <!-- Generator: Sketch 48.2 (47327) - http://www.bohemiancoding.com/sketch -->
    <title>Car 3</title>
    <desc>Created with Sketch.</desc>
    <defs>
        <path d="M407,130 C446.849192,124.326238 479.527998,121.489357 505.036416,121.489357 C530.544835,121.489357 542.532696,124.326238 541,130 L541,196 L407,196 L407,130 Z" id="path-1"></path>
        <path d="M90.9874948,0 L294.338023,1.59872116e-14 C301.517724,1.46683217e-14 307.338023,5.82029825 307.338023,13 C307.338023,13.5202386 307.306794,14.0400081 307.244505,14.5565043 L297.330305,96.764729 L256.099468,96.764729 L259.1373,25 L2,25 L2,16.7746723 L90.9874948,0 Z" id="path-2"></path>
        <rect id="path-3" x="272" y="38" width="14" height="28"></rect>
        <rect id="path-4" x="15" y="23" width="10" height="60"></rect>
        <path d="M0.2957847,186.5 C0.79477381,170.833333 11.6961789,164.365428 33,167.096285 L33,207.786678 C10.6574677,210.541111 -0.243937375,203.445552 0.2957847,186.5 Z" id="path-5"></path>
        <rect id="path-6" x="57" y="93" width="22" height="66"></rect>
        <rect id="path-7" x="72" y="177" width="141" height="21"></rect>
        <rect id="path-8" x="71" y="80" width="162" height="104"></rect>
        <rect id="path-9" x="57" y="80" width="176" height="22"></rect>
        <rect id="path-10" x="29" y="177" width="141" height="21"></rect>
        <polygon id="path-11" points="71 112 121.241169 116.245984 206 184 71 184"></polygon>
        <path d="M78.9455094,71.9709369 C99.3780486,71.0189019 109.445147,77.5708323 109.146806,91.6267282 C108.918769,102.370296 98.8516705,108.244288 78.9455094,109.248706 L78.9455094,71.9709369 Z" id="path-12"></path>
        <path d="M229,80 L261.549973,80 C264.371631,88.9396123 266.943341,93.4094184 269.265104,93.4094184 C271.586866,93.4094184 360.046596,93.4094184 534.644293,93.4094184 C535.187399,103.704342 534.115291,110.90494 531.427969,115.011211 C528.740646,119.117482 515.85862,133.239025 492.781889,157.37584 L415.540187,184 L229,184 L229,80 Z" id="path-13"></path>
        <path d="M53.9293177,116.147634 C70.0399129,110.964344 86.2192508,108.196136 102.467331,107.843007 C105.811808,107.77032 121.879473,108.404072 139.298606,119.916792 C150.732683,127.473845 160.595353,136.376007 171.592518,146.43235 C176.40901,150.836785 222.653678,197.199919 276.061774,206 C298.45244,209.689322 368.454966,207.81276 376.240108,206 C384.025251,204.18724 390.952823,199.133772 405.236991,180.966738 C425.026105,155.798349 437.902288,136.244476 446.523556,129.14183 C454.33631,122.70528 459.358617,118.515845 465.594302,116.147634 C482.435277,109.751705 488.31346,111.264021 503.168419,111.264021 C526.182759,111.264021 543.162138,120.910448 555.873325,138.835377 C567.430337,155.132725 573.284065,169.134568 573.434509,180.840906 L573.434523,180.840906 C573.448858,181.956338 572.843106,182.987617 571.861886,183.51828 L571.090547,183.935436 C569.979965,184.536062 568.592756,184.12266 567.992131,183.012077 C567.945005,182.92494 567.903592,182.834831 567.868156,182.74232 C565.480155,176.508389 562.145956,169.530503 557.865512,161.80868 C550.590938,148.685518 545.523432,145.82665 544.342195,144.547108 C532.493822,131.712679 520.501217,124.980711 503.168419,124.980711 C485.83562,124.980711 475.284748,123.988376 458.892774,136.376007 C440.43099,150.327821 443.084076,152.851687 415.157844,189.123678 C407.818761,198.656047 400.071343,206.658135 391.915589,213.129944 L391.915589,213.129944 C386.459107,217.459808 379.738818,219.890994 372.775039,220.054382 C343.126255,220.750017 323.872393,221.138536 315.013452,221.21994 C300.327665,221.354887 284.065314,221.746687 268.664004,218.704056 C258.635434,216.722846 250.438357,213.184299 237.109904,208.837596 C235.790309,208.407247 232.351335,207.885401 204.334604,190.0632 C186.291026,178.585192 182.231473,174.306652 166.395149,161.80868 C148.196319,147.446225 143.462841,141.226623 132.880396,133.929523 C115.990192,122.282922 108.672653,122.118506 102.467331,121.86279 C84.396472,121.118105 68.8643307,124.795538 55.8709073,132.895089 L55.8709057,132.895087 C53.9961786,134.063713 51.5290537,133.491304 50.360428,131.616577 C50.1288675,131.245104 49.959852,130.838141 49.8601222,130.411918 C49.4914218,128.836173 49.2646278,127.025771 49.1797402,124.980711 C48.9823628,120.225615 50.5655553,117.281256 53.9293177,116.147634 Z" id="path-14"></path>
        <path d="M354.853139,69.4382467 L369.863693,69.4382467 L369.863693,97 L344.284378,97 C345.916604,87.6975694 347.400091,81.3059429 348.734839,77.8251205 C350.069586,74.344298 352.10902,71.5486734 354.853139,69.4382467 Z" id="path-15"></path>
        <path d="M451.853139,69.4382467 L466.863693,69.4382467 L466.863693,97 L441.284378,97 C442.916604,87.6975694 444.400091,81.3059429 445.734839,77.8251205 C447.069586,74.344298 449.10902,71.5486734 451.853139,69.4382467 Z" id="path-16"></path>
    </defs>
    <g id="Page-1" stroke="none" stroke-width="1" fill="none" fill-rule="evenodd">
        <g id="Car-3">
            <g transform="translate(12.000000, 73.000000)">
                <path d="M61.5,78.5 L72.5,78.5" id="Line-24" stroke="#000000" stroke-width="3" stroke-linecap="square"></path>
                <g id="Rectangle-64">
                    <use fill="#8E3131" fill-rule="evenodd" xlink:href="#path-1"></use>
                    <path stroke="#000000" stroke-width="4" d="M409,131.736542 L409,194 L539,194 L539,129.734619 L539.069209,129.478421 C539.431095,128.138782 537.729977,126.754049 532.698054,125.563264 C526.888489,124.188453 517.64824,123.489357 505.036416,123.489357 C480.001684,123.489357 447.984902,126.237385 409,131.736542 Z"></path>
                </g>
                <polygon id="Rectangle-63" fill="#D9AEFF" points="209 179 413.957738 183.060487 383.478693 212 274.509692 213.588279"></polygon>
                <g id="Roof" transform="translate(237.000000, 0.000000)">
                    <g id="Rectangle-52">
                        <use fill="#472C15" fill-rule="evenodd" xlink:href="#path-2"></use>
                        <path stroke="#000000" stroke-width="4" d="M91.1743553,2 L4,18.4328847 L4,23 L261.223752,23 L258.18592,94.764729 L295.557011,94.764729 L305.258893,14.3170421 C305.311599,13.8800068 305.338023,13.4402019 305.338023,13 C305.338023,6.92486775 300.413155,2 294.338023,2 L91.1743553,2 Z"></path>
                    </g>
                    <g id="Rectangle-53">
                        <use fill="#FFFFFF" fill-rule="evenodd" xlink:href="#path-3"></use>
                        <rect stroke="#000000" stroke-width="2" x="273" y="39" width="12" height="26"></rect>
                    </g>
                    <path d="M262.5,27.5 L301.5,6.5" id="Line-18" stroke="#000000" stroke-width="2" stroke-linecap="square"></path>
                    <path d="M13.5,32.5 L0.5,71.5" id="Line-20" stroke="#000000" stroke-width="3" stroke-linecap="square"></path>
                    <path d="M13.5,23.5 L13.5,81.5" id="Line-19" stroke="#000000" stroke-width="3" stroke-linecap="square"></path>
                    <g id="Rectangle-54">
                        <use fill="#AE7B90" fill-rule="evenodd" xlink:href="#path-4"></use>
                        <rect stroke="#000000" stroke-width="2" x="16" y="24" width="8" height="58"></rect>
                    </g>
                </g>
                <g id="Rectangle-62">
                    <use fill="#F5F5F5" fill-rule="evenodd" xlink:href="#path-5"></use>
                    <path stroke="#000000" stroke-width="4" d="M31,206.000472 L31,168.874211 C11.9269546,166.82738 2.73706102,172.677173 2.29477103,186.563668 C1.81362768,201.670035 10.9702862,208.061061 31,206.000472 Z"></path>
                </g>
                <g id="Rectangle-59">
                    <use fill="#F6F6F6" fill-rule="evenodd" xlink:href="#path-6"></use>
                    <rect stroke="#000000" stroke-width="4" x="59" y="95" width="18" height="62"></rect>
                </g>
                <g id="Rectangle-61">
                    <use fill="#BD6226" fill-rule="evenodd" xlink:href="#path-7"></use>
                    <rect stroke="#000000" stroke-width="4" x="74" y="179" width="137" height="17"></rect>
                </g>
                <g id="Rectangle-56">
                    <use fill="#FF4172" fill-rule="evenodd" xlink:href="#path-8"></use>
                    <rect stroke="#000000" stroke-width="4" x="73" y="82" width="158" height="100"></rect>
                </g>
                <g id="Rectangle-58">
                    <use fill="#FFC7D5" fill-rule="evenodd" xlink:href="#path-9"></use>
                    <rect stroke="#000000" stroke-width="4" x="59" y="82" width="172" height="18"></rect>
                </g>
                <g id="Rectangle-61">
                    <use fill="#E9E9E9" fill-rule="evenodd" xlink:href="#path-10"></use>
                    <rect stroke="#000000" stroke-width="4" x="31" y="179" width="137" height="17"></rect>
                </g>
                <g id="Rectangle-56">
                    <use fill="#8E3131" fill-rule="evenodd" xlink:href="#path-11"></use>
                    <path stroke="#000000" stroke-width="4" d="M73,114.176154 L73,182 L200.294952,182 L120.467119,118.187697 L73,114.176154 Z"></path>
                </g>
                <g id="Rectangle-60">
                    <use fill="#FF7699" fill-rule="evenodd" xlink:href="#path-12"></use>
                    <path stroke="#000000" stroke-width="4" d="M80.9455094,73.900779 L80.9455094,107.124662 C98.5099995,105.887353 106.955387,100.623879 107.147256,91.584287 C107.407518,79.3224706 99.0382005,73.461019 80.9455094,73.900779 Z"></path>
                </g>
                <g id="Rectangle-55">
                    <use fill="#FF4172" fill-rule="evenodd" xlink:href="#path-13"></use>
                    <path stroke="#000000" stroke-width="4" d="M231,82 L231,182 L415.205172,182 L491.67146,155.643115 C514.394173,131.870274 527.182558,117.845961 529.754487,113.916012 C531.996868,110.489619 533.031563,104.297239 532.729578,95.4094184 C414.461068,95.4094184 414.05156,95.4094184 337.351223,95.4094184 C306.870636,95.4094184 306.870636,95.4094184 287.157294,95.4094184 C279.319482,95.4094184 279.319482,95.4094184 274.173482,95.4094184 C272.105196,95.4094184 272.105196,95.4094184 270.709864,95.4094184 C269.651007,95.4094184 269.651007,95.4094184 269.265104,95.4094184 C265.762038,95.4094184 263.047479,90.9844069 260.092927,82 L231,82 Z"></path>
                </g>
                <g id="Rectangle-57">
                    <use fill="#CDCCCE" fill-rule="evenodd" xlink:href="#path-14"></use>
                    <path stroke="#000000" stroke-width="3" d="M54.3990486,117.572229 C51.7451731,118.471022 50.506649,120.779586 50.6784496,124.918502 C50.7596279,126.874199 50.9748423,128.592166 51.3206731,130.070171 C51.3830042,130.33656 51.4886389,130.590912 51.6333641,130.823083 C52.3637549,131.994786 53.9057082,132.352542 55.0774127,131.622153 C68.3389918,123.355445 84.1691086,119.607462 102.529093,120.364062 C102.602323,120.367075 102.602323,120.367075 102.675808,120.370088 C112.880479,120.788211 119.706984,123.023789 133.731906,132.694642 C134.958335,133.540324 136.133342,134.389625 137.286595,135.262083 C138.973192,136.538026 140.613202,137.86252 142.393199,139.375627 C144.432994,141.10958 152.212652,148.03656 152.444316,148.24015 C157.210158,152.428432 161.762731,156.241936 167.324415,160.631197 C171.318096,163.782997 182.040312,172.458241 184.117953,174.089203 C184.934207,174.729968 185.719985,175.339634 186.495422,175.933332 C191.839123,180.02463 197.293045,183.8061 205.139704,188.797573 C217.564375,196.701242 226.04943,201.77676 231.439049,204.648539 C233.419518,205.703803 234.870274,206.401755 235.941145,206.840996 C236.328354,206.999818 236.644376,207.116225 236.939572,207.213103 C237.088055,207.261832 237.50728,207.389438 237.57498,207.411516 C240.119756,208.241424 257.078041,214.139843 261.418794,215.3896 C264.024047,216.139686 266.476194,216.742849 268.95472,217.232498 C274.02759,218.234677 279.420266,218.905637 285.302213,219.308953 C292.791083,219.822453 298.939288,219.883771 311.910302,219.750677 C313.612568,219.73321 314.160907,219.727711 314.99967,219.720004 C323.848874,219.638689 343.098539,219.250254 372.739855,218.554794 C379.377207,218.399065 385.782483,216.081842 390.983191,211.95494 C399.03958,205.56198 406.702197,197.647481 413.969299,188.208604 C424.052118,175.112533 440.385932,152.066306 442.149804,149.887172 C443.761539,147.895992 445.326336,146.148611 447.039526,144.439466 C449.878717,141.606978 453.233637,138.772537 457.988404,135.179297 C465.360191,129.608341 471.871721,126.450842 478.817211,124.886944 C484.368997,123.636862 488.602292,123.425152 499.677276,123.471263 C501.341292,123.478191 502.169153,123.480711 503.168419,123.480711 C520.139136,123.480711 532.647653,129.667958 545.444348,143.529631 C545.232788,143.300464 548.250005,145.910573 549.920563,147.718581 C552.860685,150.90061 555.918397,155.202226 559.177429,161.081443 C563.489867,168.860982 566.853797,175.90106 569.268905,182.205755 C569.28109,182.237566 569.295331,182.268552 569.311536,182.298516 C569.518073,182.680411 569.995091,182.822567 570.376986,182.616031 L571.148325,182.198875 C571.638936,181.933543 571.941808,181.417907 571.934633,180.860181 C571.788759,169.509461 566.046663,155.774635 554.649751,139.703056 C541.885748,121.703647 525.147742,112.764021 503.168419,112.764021 C501.144246,112.764021 499.445592,112.741182 496.596633,112.685789 C491.145677,112.579807 489.376081,112.572691 486.820035,112.702144 C480.444768,113.025025 474.584911,114.337681 466.126864,117.54991 C464.370441,118.21697 462.673351,119.05127 460.918114,120.101543 C457.561703,122.109904 455.156442,123.973101 447.47734,130.299542 C443.725138,133.3908 439.106968,138.849312 431.263146,149.186352 C429.063651,152.084972 420.522045,163.488126 420.022913,164.151683 C414.998417,170.83136 410.796641,176.322635 406.416151,181.893874 C392.800121,199.21115 385.402468,205.406684 376.580281,207.460918 C366.101797,209.900819 295.251209,210.682079 275.817906,207.480043 C253.195653,203.752563 230.324101,193.243244 207.940277,178.006948 C198.816283,171.796397 190.328139,165.17218 182.444418,158.353667 C179.616043,155.907448 177.04664,153.593305 174.560906,151.281422 C173.360197,150.16469 170.786577,147.727965 170.580266,147.539303 C155.493372,133.743114 148.101439,127.532805 138.471538,121.168174 C130.875965,116.148079 123.012297,112.857454 115.254606,110.993879 C110.050023,109.743619 105.478336,109.277921 102.499924,109.342653 C86.4018244,109.692522 70.3695642,112.435048 54.3990486,117.572229 Z"></path>
                </g>
                <path d="M73.5,111.5 L73.5,85" id="Line-21" stroke="#000000" stroke-width="4" stroke-linecap="square"></path>
                <path d="M60,100 L73,100" id="Line-21" stroke="#000000" stroke-width="4" stroke-linecap="square"></path>
                <g id="wheel" transform="translate(46.000000, 145.000000)">
                    <path d="M25.5,82.5 L46.5,61.5" id="Line-4" stroke="#000000" stroke-width="4" stroke-linecap="square"></path>
                    <path d="M53,94 L53,62" id="Line-4" stroke="#000000" stroke-width="4" stroke-linecap="square"></path>
                    <path d="M53,46 L53,14" id="Line-4" stroke="#000000" stroke-width="4" stroke-linecap="square"></path>
                    <path d="M61,47 L85,24" id="Line-4" stroke="#000000" stroke-width="4" stroke-linecap="square"></path>
                    <path d="M23,47 L47,24" id="Line-4" stroke="#000000" stroke-width="4" stroke-linecap="square" transform="translate(35.000000, 35.500000) scale(-1, 1) translate(-35.000000, -35.500000) "></path>
                    <path d="M61,83 L85,60" id="Line-4" stroke="#000000" stroke-width="4" stroke-linecap="square" transform="translate(73.000000, 71.500000) scale(-1, 1) translate(-73.000000, -71.500000) "></path>
                    <path d="M62,54 L94,54" id="Line-4" stroke="#000000" stroke-width="4" stroke-linecap="square"></path>
                    <path d="M13,54 L45,54" id="Line-4" stroke="#000000" stroke-width="4" stroke-linecap="square"></path>
                    <circle id="Oval-2" stroke="#000000" stroke-width="9" stroke-dasharray="6000,2,8,9" cx="54" cy="54" r="44"></circle>
                    <circle id="Oval-2" stroke="#000000" stroke-width="9" stroke-dasharray="6000,2,8,9" cx="54" cy="54" r="54"></circle>
                    <circle id="Oval-2" stroke="#45587B" stroke-width="7" stroke-dasharray="6000,2,8,9" cx="54" cy="54" r="52"></circle>
                    <circle id="Oval-2" stroke="#6D0332" stroke-width="6" stroke-dasharray="6000,2,8,9" cx="54" cy="54" r="44"></circle>
                    <circle id="Oval" stroke="#000000" stroke-width="5" fill="#6D0332" cx="53.5" cy="54.5" r="8.5"></circle>
                </g>
                <g id="wheel" transform="translate(441.000000, 145.000000)">
                    <path d="M25.5,82.5 L46.5,61.5" id="Line-4" stroke="#000000" stroke-width="4" stroke-linecap="square"></path>
                    <path d="M53,94 L53,62" id="Line-4" stroke="#000000" stroke-width="4" stroke-linecap="square"></path>
                    <path d="M53,46 L53,14" id="Line-4" stroke="#000000" stroke-width="4" stroke-linecap="square"></path>
                    <path d="M61,47 L85,24" id="Line-4" stroke="#000000" stroke-width="4" stroke-linecap="square"></path>
                    <path d="M23,47 L47,24" id="Line-4" stroke="#000000" stroke-width="4" stroke-linecap="square" transform="translate(35.000000, 35.500000) scale(-1, 1) translate(-35.000000, -35.500000) "></path>
                    <path d="M61,83 L85,60" id="Line-4" stroke="#000000" stroke-width="4" stroke-linecap="square" transform="translate(73.000000, 71.500000) scale(-1, 1) translate(-73.000000, -71.500000) "></path>
                    <path d="M62,54 L94,54" id="Line-4" stroke="#000000" stroke-width="4" stroke-linecap="square"></path>
                    <path d="M13,54 L45,54" id="Line-4" stroke="#000000" stroke-width="4" stroke-linecap="square"></path>
                    <circle id="Oval-2" stroke="#000000" stroke-width="9" stroke-dasharray="6000,2,8,9" cx="54" cy="54" r="44"></circle>
                    <circle id="Oval-2" stroke="#000000" stroke-width="9" stroke-dasharray="6000,2,8,9" cx="54" cy="54" r="54"></circle>
                    <circle id="Oval-2" stroke="#45587B" stroke-width="7" stroke-dasharray="6000,2,8,9" cx="54" cy="54" r="52"></circle>
                    <circle id="Oval-2" stroke="#6D0332" stroke-width="6" stroke-dasharray="6000,2,8,9" cx="54" cy="54" r="44"></circle>
                    <circle id="Oval" stroke="#000000" stroke-width="5" fill="#6D0332" cx="53.5" cy="54.5" r="8.5"></circle>
                </g>
                <path d="M173.5,108.5 L173.5,141.5" id="Line-22" stroke="#010101" stroke-width="3" stroke-linecap="square"></path>
                <path d="M184.5,108.5 L184.5,141.5" id="Line-22" stroke="#010101" stroke-width="3" stroke-linecap="square"></path>
                <path d="M181.5,111.5 L181.5,118.5" id="Line-22" stroke="#FFFFFF" stroke-width="3" stroke-linecap="square"></path>
                <path d="M170.5,111.5 L170.5,118.5" id="Line-22" stroke="#FFFFFF" stroke-width="3" stroke-linecap="square"></path>
                <path d="M191.5,111.5 L191.5,118.5" id="Line-22" stroke="#FFFFFF" stroke-width="3" stroke-linecap="square"></path>
                <path d="M205.5,111.5 L205.5,118.5" id="Line-22" stroke="#FFFFFF" stroke-width="3" stroke-linecap="square"></path>
                <path d="M196.5,108.5 L196.5,141.5" id="Line-22" stroke="#010101" stroke-width="3" stroke-linecap="square"></path>
                <path d="M208.5,108.5 L208.5,141.5" id="Line-22" stroke="#010101" stroke-width="3" stroke-linecap="square"></path>
                <path d="M266.997666,96 C266.911107,133.216165 266.911865,152.690915 266.997805,153.985782 C267.056884,154.875941 269.31398,157.174757 273.620866,160.420499 L323.696412,160.420499 C326.075433,160.009708 328.824466,158.354207 331.910127,155.421588 C334.942574,152.539545 336.3005,148.911027 336,144.386593 L336,96 L266.997666,96 Z" id="Rectangle-36" stroke="#000000" stroke-width="2"></path>
                <rect id="Rectangle-37" fill="#000000" x="261" y="108" width="6" height="10"></rect>
                <rect id="Rectangle-37" fill="#000000" x="261" y="141" width="6" height="10"></rect>
                <path d="M359.997666,95 C359.911107,132.216165 359.911865,151.690915 359.997805,152.985782 C360.056884,153.875941 362.31398,156.174757 366.620866,159.420499 L396.81901,159.420499 C407.615519,157.05799 416.225851,151.260227 422.691395,141.995918 C429.217031,132.645506 432.953954,124.563815 433.920104,117.776104 L433.920104,95 L359.997666,95 Z" id="Rectangle-36" stroke="#000000" stroke-width="2"></path>
                <path d="M414.5,109.5 L426.5,109.5" id="Line-23" stroke="#000000" stroke-width="3" stroke-linecap="square"></path>
                <path d="M316.5,110.5 L328.5,110.5" id="Line-23" stroke="#000000" stroke-width="3" stroke-linecap="square"></path>
                <rect id="Rectangle-37" fill="#000000" x="354" y="107" width="6" height="10"></rect>
                <rect id="Rectangle-37" fill="#000000" x="354" y="140" width="6" height="10"></rect>
                <path d="M265.5,89.5 L275.5,79.5" id="Line-25" stroke="#000000" stroke-width="4" stroke-linecap="square"></path>
                <path d="M272,60 L275.5,79.5" id="Line-25" stroke="#000000" stroke-width="4" stroke-linecap="square"></path>
                <path d="M299,84 L275.5,79.5" id="Line-25" stroke="#000000" stroke-width="4" stroke-linecap="square"></path>
                <path d="M293,82 L274,64" id="Line-25" stroke="#000000" stroke-width="2" stroke-linecap="square"></path>
                <g id="Rectangle-65">
                    <use fill="#8B572A" fill-rule="evenodd" xlink:href="#path-15"></use>
                    <path stroke="#000000" stroke-width="4" d="M355.555282,71.4382467 C353.368245,73.2661991 351.721077,75.6234689 350.602253,78.5411946 C349.438269,81.5766933 348.119908,87.0835347 346.674043,95 L367.863693,95 L367.863693,71.4382467 L355.555282,71.4382467 Z"></path>
                </g>
                <g id="Rectangle-65">
                    <use fill="#8B572A" fill-rule="evenodd" xlink:href="#path-16"></use>
                    <path stroke="#000000" stroke-width="4" d="M452.555282,71.4382467 C450.368245,73.2661991 448.721077,75.6234689 447.602253,78.5411946 C446.438269,81.5766933 445.119908,87.0835347 443.674043,95 L464.863693,95 L464.863693,71.4382467 L452.555282,71.4382467 Z"></path>
                </g>
            </g>
        </g>
    </g>
</svg>