<?xml version="1.0" encoding="UTF-8"?>
<svg width="764px" height="385px" viewBox="0 0 764 385" version="1.1" xmlns="http://www.w3.org/2000/svg" xmlns:xlink="http://www.w3.org/1999/xlink">
    <!-- Generator: Sketch 48.2 (47327) - http://www.bohemiancoding.com/sketch -->
    <title>Car 6</title>
    <desc>Created with Sketch.</desc>
    <defs>
        <path d="M245.026909,3.87550557 L477.6996,0.924520359 C484.216199,0.841870403 490.557521,3.0349702 495.630729,7.12586961 L595.767426,87.8734299 L188.203369,99.4827801 L230.875136,12.8071808 C233.535351,7.40370665 239.00458,3.9518867 245.026909,3.87550557 Z" id="path-1"></path>
        <path d="M373,31 L440.224158,31.0000018 C443.542055,31.0000018 446.711879,32.3737179 448.980551,34.7947857 C453.310846,39.4159645 457.089455,45.2846439 460.316378,52.4008236 C464.50376,61.6350566 466.973084,74.1681154 467.72435,90 L364,90 L364,40 C364,35.0294373 368.029437,31 373,31 Z" id="path-2"></path>
        <path d="M267,32 L336.615836,32 C344.347823,32 350.615836,38.2680135 350.615836,46 L350.615836,88.6453102 L259,88.6453102 L259,40 C259,35.581722 262.581722,32 267,32 Z" id="path-3"></path>
        <path d="M475.865543,17.3154867 L508.189614,17.3154867 L594.756722,87.3485295 L492.027149,90.750323 L465.046042,34.5057097 C462.179561,28.5302648 464.699874,21.3624675 470.675319,18.4959865 C472.295208,17.7189098 474.068911,17.3154867 475.865543,17.3154867 Z" id="path-4"></path>
        <path d="M228.030271,17.9704996 C232.362252,15.3122745 236.8536,15.3122745 241.504317,17.9704996 C246.155033,20.6287248 248.480391,24.6690542 248.480391,30.091488 L248.480391,96.8281684 L195.125904,85.7022481 L228.030271,17.9704996 Z" id="path-5"></path>
        <rect id="path-6" x="57" y="112" width="169" height="74"></rect>
        <path d="M455,111 L624,111 L646.332008,161.834291 C617.390442,176.016325 597.708997,183.738228 587.287674,185 C576.86635,186.261772 532.770459,186.261772 455,185 L455,111 Z" id="path-7"></path>
        <path d="M23.2579544,165 L68.8039099,165 L65.4493045,188.551172 C64.6771216,193.97232 60.0350896,198 54.5592235,198 L35.2775763,198 C30.7940004,196.42503 27.3681416,192.318408 25,185.680133 C22.6318584,179.041859 22.0511766,172.148481 23.2579544,165 Z" id="path-8"></path>
        <path d="M4.29403574,74.1860136 L203.483872,74.1860136 C206.244693,81.4037657 211.898438,85.2267572 220.445107,85.654988 C238.685973,86.5689466 260.927494,85.7598692 278.720289,85.654988 C298.908305,85.535988 350.349593,86.0299908 369.300055,85.654988 C430.349165,84.4469126 447.417821,82.1199115 480.768815,80.5930068 C540.009434,77.8808005 623.673232,67.6831316 731.760211,50 C725.232118,57.4037651 720.950698,62.9578632 718.915953,66.6622945 C716.881208,70.3667258 714.937426,75.3111155 713.084607,81.4954636 L579.48334,111.186014 L15.5077964,111.186014 C8.03195596,106.006621 3.22052681,99.8399546 1.07350894,92.6860136 C-1.07350894,85.5320727 7.10542736e-15,79.365406 4.29403574,74.1860136 Z" id="path-9"></path>
        <path d="M705.382594,79.913813 C714.302354,82.6030982 718.364415,87.8218396 717.568777,95.5700372 C716.773138,103.318235 709.455867,107.461556 695.616964,108 L705.382594,79.913813 Z" id="path-10"></path>
        <path d="M714.302778,77.0224183 C710.961742,85.5490191 708.717747,91.9686124 707.570795,96.2811984 C706.423842,100.593784 705.411618,105.500051 704.534123,111 L564.531614,111 L714.302778,77.0224183 Z" id="path-11"></path>
        <path d="M13,107 L705.390433,107 C704.260598,118.351539 704.260598,127.783505 705.390433,135.295898 C706.520268,142.80829 709.726219,154.693035 715.008286,170.950132 C697.148195,177.129516 683.529503,180.359797 674.152211,180.640978 C672.111571,180.702167 660.078433,180.929347 638.052797,181.322519 C620.954039,181.627743 600.119695,116.934456 550.3835,117.788702 C537.330185,118.0129 508.761899,115.265883 490.047893,129.618056 C479.931333,137.376664 472.132003,156.520369 466.649905,187.04917 L225.196178,189.684234 C199.232532,141.605927 179.472173,117.64075 165.9151,117.788702 C161.85236,117.83304 144.486534,117.837049 113.81762,117.80073 L113.81762,117.800729 C107.310345,117.793023 100.955367,119.76938 95.6001864,123.466234 C87.4709354,129.078119 81.8700495,133.940127 78.7975285,138.052258 C74.7317578,143.493712 70.6211633,153.607358 66.4657451,168.393198 L24.7652714,168.393198 L13,107 Z" id="path-12"></path>
        <path d="M683.785393,157.437685 L709.142591,157.892816 C714.112353,157.982017 718.06883,162.083117 717.979629,167.052879 C717.966391,167.790382 717.862539,168.52346 717.670409,169.23562 L714.909811,179.468193 C713.732555,183.831871 709.774691,186.863466 705.254999,186.863466 L669.951988,186.863466 C668.73886,180.750025 669.541583,174.408126 672.360157,167.83777 C675.178731,161.267414 678.987143,157.800719 683.785393,157.437685 Z" id="path-13"></path>
    </defs>
    <g id="Page-1" stroke="none" stroke-width="1" fill="none" fill-rule="evenodd">
        <g id="Car-6">
            <g transform="translate(16.000000, 75.000000)">
                <g id="Rectangle-102">
                    <use fill="#4297D3" fill-rule="evenodd" xlink:href="#path-1"></use>
                    <path stroke="#000000" stroke-width="4" d="M191.463354,97.3891091 L590.29339,86.0285451 L494.375298,8.68275525 C489.664462,4.88406295 483.776091,2.84761313 477.724963,2.92435952 L245.052273,5.87534473 C239.782735,5.94217822 234.99716,8.96252068 232.669471,13.6905606 L191.463354,97.3891091 Z"></path>
                </g>
                <path d="M244.876684,17.6548061 C248.610682,13.4943827 252.550664,11.3769842 256.696628,11.3026107 C260.842593,11.2282373 327.791117,10.4607004 457.542202,9 L457.542202,15 L273.312717,15 C266.386178,15.9046712 261.601059,16.7896065 258.95736,17.6548061 C256.313661,18.5200057 252.985361,20.2903368 248.972462,22.9657994 L244.876684,17.6548061 Z" id="Rectangle-108" fill="#FFFFFF"></path>
                <g id="Rectangle-107">
                    <use fill="#D4D4D4" fill-rule="evenodd" xlink:href="#path-2"></use>
                    <path stroke="#000000" stroke-width="3" d="M365.5,88.5 L466.145193,88.5 C465.317149,73.584756 462.910801,61.7542657 458.950272,53.0203022 C455.787868,46.046404 452.097634,40.3149831 447.886002,35.8204376 C445.900914,33.7020034 443.127318,32.5000018 440.224158,32.5000018 L373,32.5 C368.857864,32.5 365.5,35.8578644 365.5,40 L365.5,88.5 Z"></path>
                </g>
                <path d="M437.5,35.5 L437.5,84.5" id="Line-44" stroke="#000000" stroke-width="5" stroke-linecap="square"></path>
                <g id="Rectangle-105">
                    <use fill="#D4D4D4" fill-rule="evenodd" xlink:href="#path-3"></use>
                    <path stroke="#000000" stroke-width="3" d="M260.5,87.1453102 L349.115836,87.1453102 L349.115836,46 C349.115836,39.0964406 343.519396,33.5 336.615836,33.5 L267,33.5 C263.410149,33.5 260.5,36.4101491 260.5,40 L260.5,87.1453102 Z"></path>
                </g>
                <path d="M276.5,34.5 L276.5,87.5" id="Line-43" stroke="#000000" stroke-width="3" stroke-linecap="square"></path>
                <g id="Rectangle-104">
                    <use fill="#C8C6C6" fill-rule="evenodd" xlink:href="#path-4"></use>
                    <path stroke="#000000" stroke-width="4" d="M493.265745,88.7082118 L589.325609,85.5272794 L507.481908,19.3154867 L475.865543,19.3154867 C474.368349,19.3154867 472.890263,19.6516726 471.540357,20.2992365 C466.560819,22.6879707 464.460558,28.6611351 466.849292,33.6406726 L493.265745,88.7082118 Z"></path>
                </g>
                <path d="M356.5,22 L356.5,86.5" id="Line-42" stroke="#000000" stroke-width="2" stroke-linecap="square"></path>
                <g id="Rectangle-103">
                    <use fill="#E0E0E0" fill-rule="evenodd" xlink:href="#path-5"></use>
                    <path stroke="#000000" stroke-width="4" d="M229.564866,19.3886037 L198.0461,84.2681704 L246.480391,94.3680904 L246.480391,30.091488 C246.480391,25.3840103 244.537167,22.0076415 240.511849,19.7068777 C236.662597,17.506748 233.102405,17.4098961 229.564866,19.3886037 Z"></path>
                </g>
                <path d="M248.183551,32.5 C254.541498,24.6299169 259.832335,20.6948753 264.056062,20.6948753 C267.969763,20.6948753 326.787236,20.6948753 446.803406,20.6948753 C455.734177,20.6948753 463.363004,27.4618819 469.689887,40.995895" id="Line-41" stroke="#000000" stroke-width="2" stroke-linecap="square"></path>
                <path d="M218.440936,180.963941 L242.318015,197.326078 C244.335407,198.708527 246.727036,199.441575 249.172609,199.427049 L454.011579,198.210355 C458.265256,198.185089 462.123107,195.709567 463.918465,191.853261 L469.891151,179.024347 L218.440936,180.963941 Z" id="Rectangle-101" stroke="#000000" stroke-width="4"></path>
                <g id="Rectangle-100">
                    <use fill="#0F3562" fill-rule="evenodd" xlink:href="#path-6"></use>
                    <rect stroke="#000000" stroke-width="4" x="59" y="114" width="165" height="70"></rect>
                </g>
                <g id="Rectangle-100">
                    <use fill="#0F3562" fill-rule="evenodd" xlink:href="#path-7"></use>
                    <path stroke="#000000" stroke-width="4" d="M457,113 L457,183.032031 C533.38127,184.259222 576.853248,184.248752 587.047277,183.0145 C596.965482,181.813644 615.930533,174.426944 643.728524,160.880525 L622.694135,113 L457,113 Z"></path>
                </g>
                <g id="Rectangle-97">
                    <use fill="#CFCFCF" fill-rule="evenodd" xlink:href="#path-8"></use>
                    <path stroke="#000000" stroke-width="4" d="M24.9818935,167 C24.1813832,173.216602 24.8155661,179.210761 26.8837237,185.008133 C29.0080951,190.963081 31.9395918,194.568195 35.6343349,196 L54.5592235,196 C59.0394776,196 62.8375038,192.704626 63.4692898,188.269141 L66.4988449,167 L24.9818889,167 Z"></path>
                </g>
                <g id="Rectangle-95">
                    <use fill="#C0FCFF" fill-rule="evenodd" xlink:href="#path-9"></use>
                    <path stroke="#000000" stroke-width="4" d="M5.26232151,76.1860136 C1.89075765,80.674973 1.12961504,85.9152419 2.98909991,92.1111126 C4.95013951,98.6453672 9.31028002,104.329939 16.1395505,109.186014 L579.263786,109.186014 L711.510967,79.7963853 C713.299096,74.0070573 715.179005,69.3114428 717.162984,65.6994353 C718.872379,62.5873328 722.02654,58.3209814 726.643193,52.8607697 C621.114646,70.0097555 539.194134,79.9202223 480.860285,82.590914 C473.054521,82.9482844 466.247616,83.3351732 456.238318,83.964103 C455.298235,84.0231728 454.339921,84.0836662 453.049947,84.165298 C451.450944,84.2665336 450.590384,84.3210116 449.842666,84.368265 C447.227191,84.5335549 445.262913,84.6565079 443.300121,84.7772298 C420.025344,86.2087484 399.981393,87.0482394 369.339625,87.6545966 C361.007611,87.8194753 347.283077,87.8318656 323.43308,87.7473452 C321.071868,87.7389774 318.750429,87.7303007 315.294027,87.7170643 C292.844927,87.6310952 285.641441,87.6142255 278.732078,87.6549533 C274.488779,87.6799658 271.452094,87.721424 262.348397,87.8645726 C255.760772,87.9681579 252.188908,88.0172784 248.166473,88.0519485 C236.963174,88.1485119 228.14994,88.0435476 220.345023,87.6524822 C211.544418,87.211528 205.379246,83.3461604 202.150429,76.1860136 L5.26232151,76.1860136 Z"></path>
                </g>
                <g id="Rectangle-99">
                    <use fill="#710303" fill-rule="evenodd" xlink:href="#path-10"></use>
                    <path stroke="#000000" stroke-width="3" d="M706.316188,81.7961479 L697.768149,106.380513 C709.486844,105.546094 715.417012,101.840336 716.076623,95.4168126 C716.752868,88.8313117 713.613623,84.3739318 706.316188,81.7961479 Z"></path>
                </g>
                <g id="Rectangle-94">
                    <use fill="#62ABD8" fill-rule="evenodd" xlink:href="#path-11"></use>
                    <path stroke="#000000" stroke-width="4" d="M711.081144,79.8041101 L582.387394,109 L702.835187,109 C703.657588,104.112543 704.591474,99.7020697 705.637983,95.7671579 C706.643409,91.9867159 708.456578,86.6720299 711.081144,79.8041101 Z"></path>
                </g>
                <g id="Rectangle-96">
                    <use fill="#4297D3" fill-rule="evenodd" xlink:href="#path-12"></use>
                    <path stroke="#000000" stroke-width="4" d="M15.4196701,109 L26.4183893,166.393198 L64.9545015,166.393198 C69.0316974,152.17716 73.0843133,142.357204 77.195366,136.855146 C80.4237868,132.534366 86.1715783,127.544832 94.4639653,121.82033 C100.153845,117.892422 106.906009,115.792542 113.819989,115.800731 C144.473812,115.837033 161.843028,115.833023 165.893275,115.788821 C180.467377,115.629769 200.287993,139.538206 226.380971,187.671178 L464.977953,185.067298 C470.527021,155.024262 478.388088,136.03976 488.830776,128.031039 C495.792105,122.692245 504.380925,119.323008 514.471399,117.489226 C523.220305,115.899252 530.703541,115.594537 543.673754,115.758199 C547.60317,115.807782 548.779548,115.815956 550.349154,115.788997 C562.430946,115.581486 573.475833,119.070507 583.862804,125.794536 C592.290404,131.250162 599.938939,138.525916 608.156463,148.261963 C611.750609,152.520275 623.366994,167.431594 625.719116,170.179014 C631.141987,176.513254 634.950226,179.377583 638.017101,179.322837 C660.021581,178.930043 672.064587,178.702677 674.092267,178.641876 C682.902083,178.377712 695.727304,175.399956 712.50081,169.695919 C707.54661,154.297175 704.518555,142.946454 703.412675,135.593345 C702.329766,128.392964 702.260049,119.533097 703.193362,109 L15.4196701,109 Z"></path>
                </g>
                <g id="Rectangle-98">
                    <use fill="#B4B4B4" fill-rule="evenodd" xlink:href="#path-13"></use>
                    <path stroke="#000000" stroke-width="4" d="M683.847856,159.439128 C679.938969,159.774979 676.730993,162.722011 674.198173,168.626249 C671.783347,174.255429 670.940022,179.656559 671.645055,184.863466 L705.254999,184.863466 C708.870753,184.863466 712.037044,182.43819 712.978849,178.947248 L715.739447,168.714675 C715.888881,168.160773 715.969655,167.590601 715.979951,167.016987 C716.049329,163.151617 712.97207,159.961872 709.106699,159.892493 L683.847856,159.439128 Z"></path>
                </g>
                <rect id="Rectangle-106" fill="#000000" x="258" y="73" width="9" height="15"></rect>
                <path d="M259.5,86.5 L251.5,96.5" id="Line-45" stroke="#000000" stroke-width="4" stroke-linecap="square"></path>
                <path d="M361.5,87.5 C361.242493,112.797405 360.664889,130.832317 359.767187,141.604737 C358.869485,152.377157 356.780423,166.342244 353.5,183.5" id="Line-46" stroke="#000000" stroke-width="4" stroke-linecap="square"></path>
                <path d="M233.007273,89.6383186 C230.984825,112.26204 230.190107,128.715934 230.623121,139 C231.056134,149.284066 234.110281,165.278059 239.78556,186.981979" id="Line-47" stroke="#000000" stroke-width="4" stroke-linecap="square"></path>
                <path d="M489.212144,81.7064847 C484.278992,100.682831 479.9027,114.993038 476.083268,124.637104 C472.263836,134.281169 461.865641,154.389979 444.888682,184.963532" id="Line-48" stroke="#000000" stroke-width="4" stroke-linecap="square"></path>
                <rect id="Rectangle-109" fill="#000000" x="324" y="93" width="25" height="7"></rect>
                <rect id="Rectangle-109" fill="#000000" x="328" y="98" width="3" height="7"></rect>
                <rect id="Rectangle-109" fill="#000000" x="446" y="90" width="25" height="7"></rect>
                <rect id="Rectangle-109" fill="#000000" x="450" y="95" width="3" height="7"></rect>
                <g id="Wheel" transform="translate(89.000000, 130.000000)">
                    <circle id="Oval-5" stroke="#000000" stroke-width="19" cx="50" cy="50" r="50"></circle>
                    <circle id="Oval-5" stroke="#6B6B6B" stroke-width="19" fill="#4297D3" cx="50" cy="50" r="46"></circle>
                    <circle id="Oval-7" stroke="#000000" stroke-width="4" cx="50" cy="50" r="37"></circle>
                    <circle id="Oval-6" stroke="#000000" stroke-width="3" fill="#A8A8A8" cx="49.5" cy="50.5" r="21.5"></circle>
                    <circle id="Oval-6" stroke="#000000" stroke-width="3" fill="#A8A8A8" cx="50" cy="50" r="11"></circle>
                </g>
                <g id="Wheel" transform="translate(489.000000, 130.000000)">
                    <circle id="Oval-5" stroke="#000000" stroke-width="19" cx="50" cy="50" r="50"></circle>
                    <circle id="Oval-5" stroke="#6B6B6B" stroke-width="19" fill="#4297D3" cx="50" cy="50" r="46"></circle>
                    <circle id="Oval-7" stroke="#000000" stroke-width="4" cx="50" cy="50" r="37"></circle>
                    <circle id="Oval-6" stroke="#000000" stroke-width="3" fill="#A8A8A8" cx="49.5" cy="50.5" r="21.5"></circle>
                    <circle id="Oval-6" stroke="#000000" stroke-width="3" fill="#A8A8A8" cx="50" cy="50" r="11"></circle>
                </g>
            </g>
        </g>
    </g>
</svg>