<?xml version="1.0" encoding="UTF-8"?>
<svg width="764px" height="385px" viewBox="0 0 764 385" version="1.1" xmlns="http://www.w3.org/2000/svg" xmlns:xlink="http://www.w3.org/1999/xlink">
    <!-- Generator: Sketch 48.2 (47327) - http://www.bohemiancoding.com/sketch -->
    <title>Car 9</title>
    <desc>Created with Sketch.</desc>
    <defs>
        <rect id="path-1" x="64" y="93" width="574" height="74"></rect>
        <path d="M354.439049,1.20792265e-13 L514.382124,1.77635684e-13 C521.498159,1.76328489e-13 528.347231,2.70941399 533.537457,7.57762949 L574.940942,46.4123743 C579.742736,50.9162575 585.934096,53.6522732 592.497138,54.17061 L678.02777,60.9256594 C690.510923,61.9115555 700.138179,72.329133 700.138179,84.8511573 L700.138179,131.908211 L688.283998,163.120127 L621.556445,160.871941 C608.072048,119.986546 585.128636,99.6767992 552.726208,99.9427023 C520.323779,100.208605 495.843684,118.920558 479.285921,156.078561 L222.917519,158.431835 C211.710555,121.212284 188.731055,102.602508 153.97902,102.602508 C79.5944926,102.602508 93.9978394,164.556342 77.8764032,163.120127 C57.7560217,161.327657 34.8557243,155.40481 9.17551117,145.351588 L52.646317,90.3137143 C59.2449438,81.9592709 69.0455507,76.7559996 79.6625873,75.9704205 L243.065837,63.879836 C253.692235,63.0935643 263.820579,59.061789 272.080292,52.3300942 L322.219244,11.4666698 C331.319333,4.05006489 342.699472,1.30054218e-13 354.439049,1.27897692e-13 Z" id="path-2"></path>
        <path d="M341.628793,19 L484.859597,19 C490.62748,19 496.083084,21.6200787 499.688961,26.1218694 L520.296696,51.8497892 C523.229312,55.5110412 524.82726,60.0620584 524.82726,64.7530074 L524.82726,66 C524.82726,69.3137085 522.140969,72 518.82726,72 L277.15247,72 C276.0479,72 275.15247,71.1045695 275.15247,70 C275.15247,69.4383949 275.388593,68.9026668 275.803123,68.5237669 L321.388597,26.8565029 C326.917825,21.8025292 334.137798,19 341.628793,19 Z" id="path-3"></path>
        <path d="M678.503358,88.1684989 L699,88.1684989 L699,114.6754 L663.25409,114.67541 C661.59723,114.67541 660.25408,113.33226 660.25408,111.6754 C660.25408,111.351574 660.30651,111.029884 660.409333,110.722816 C662.224095,105.303293 663.901025,101.217558 665.440123,98.4656113 C666.676249,96.2553871 668.315913,94.0250168 670.359113,91.7745004 L670.35911,91.7744975 C672.444041,89.4780163 675.401622,88.1684989 678.503358,88.1684989 Z" id="path-4"></path>
        <rect id="path-5" x="395" y="19" width="16" height="53"></rect>
        <path d="M307.298035,53.2767676 L307.298035,66.1383838 C304.905784,67.6624119 303.429933,69.404892 302.870484,71.3658242 C302.311034,73.3267564 302.135307,75.8714816 302.343302,79 L287.925066,79 C289.570056,70.4255892 291.659331,64.6203433 294.192892,61.5842623 C296.726452,58.5481813 301.094834,55.7790164 307.298035,53.2767676 Z" id="path-6"></path>
        <polygon id="path-7" points="207.598359 125 496 125 490.457534 134.471972 214.182324 134.471972"></polygon>
        <path d="M221.688944,154.519709 L480.648694,152.21305 C479.327286,155.46393 478.666581,159.489753 478.666581,164.290516 C478.666581,169.09128 478.666581,173.661108 478.666581,178 L224,178 C224.164394,172.282943 224.164394,167.949609 224,165 C223.835606,162.050391 223.065254,158.55696 221.688944,154.519709 Z" id="path-8"></path>
        <path d="M17.0136075,126 L97.7626913,126 C93.0930583,135.132684 89.3725653,144.141362 86.6012121,153.026034 C86.5137941,153.306287 84.9342652,158.842754 81.8626253,169.635435 L81.8626219,169.635434 C80.5170922,174.36316 76.1982344,177.624361 71.2827645,177.624361 L34.9805962,177.624361 C31.2519861,177.624361 27.8330406,175.549951 26.1109961,172.242823 L19.261312,159.088237 C17.0618659,154.864275 12.8660467,152.048055 8.12369625,151.612705 L6.65660362,151.478025 C3.18146258,151.159006 0.622920471,148.083231 0.941939864,144.60809 C1.01112647,143.854427 1.21514729,143.119323 1.54428087,142.437805 L6.20776443,132.781403 C8.21027696,128.634918 12.4088929,126 17.0136075,126 Z" id="path-9"></path>
        <path d="M603.409762,123.794756 L702.104347,123.045014 C708.242069,122.998388 713.255473,127.936197 713.302099,134.073919 C713.303176,134.215729 713.301539,134.357546 713.297188,134.499293 L713.202251,137.59242 C713.036469,142.993703 710.692079,148.098042 706.702867,151.743247 L686.844541,169.889105 C682.605771,173.762348 677.07154,175.910046 671.329659,175.910046 L622.220052,175.910046 C622.220052,168.27675 620.938826,160.286093 618.376375,151.938076 C616.983048,147.398862 613.793638,141.521386 610.965515,136.371283 C609.383484,133.490354 606.864899,129.298178 603.409762,123.794756 Z" id="path-10"></path>
        <path d="M51.9305744,96 L66.7794461,96 C69.7724413,96 72.5151018,97.6706814 73.8880673,100.33019 L82.2996185,116.623821 C83.0596611,118.096065 82.482308,119.90569 81.0100643,120.665733 C80.5845877,120.885384 80.1127145,121 79.6338856,121 L32,121 L51.9305744,96 Z" id="path-11"></path>
        <path d="M222.502095,80.4325327 L234.435902,80.4325327 C235.374308,80.4325327 236.186524,81.0849682 236.388859,82.0013014 L238.280637,90.5687687 C238.518799,91.6473568 237.837499,92.7147941 236.758911,92.9529566 C236.617298,92.9842261 236.472704,93 236.32768,93 L220.422353,93 C219.317784,93 218.422353,92.1045695 218.422353,91 C218.422353,90.8410506 218.441302,90.6826679 218.478798,90.5282043 L220.558539,81.9607371 C220.776234,81.0639459 221.57926,80.4325327 222.502095,80.4325327 Z" id="path-12"></path>
    </defs>
    <g id="Page-1" stroke="none" stroke-width="1" fill="none" fill-rule="evenodd">
        <g id="Car-9">
            <g transform="translate(25.000000, 78.000000)">
                <g id="Rectangle-145">
                    <use fill="#585052" fill-rule="evenodd" xlink:href="#path-1"></use>
                    <rect stroke="#000000" stroke-width="4" x="66" y="95" width="570" height="70"></rect>
                </g>
                <g id="Rectangle-133">
                    <use fill="#BBBCC0" fill-rule="evenodd" xlink:href="#path-2"></use>
                    <path stroke="#000000" stroke-width="4" d="M12.423913,144.46559 C36.9173025,153.861404 58.7972244,159.412494 78.0538749,161.128016 C80.4852903,161.344625 82.1571622,159.27109 84.3749815,153.188951 C84.9220724,151.688612 87.1291081,145.096121 87.7175366,143.438332 C89.2635804,139.082638 90.7683864,135.455969 92.5688114,131.95827 C102.940426,111.80926 121.378719,100.602508 153.97902,100.602508 C189.197113,100.602508 212.776905,119.336966 224.391255,156.418196 L477.987657,154.090394 C494.839552,117.038156 519.806528,98.2127828 552.709796,97.9427696 C585.719391,97.6718839 609.215205,118.15603 623.012881,158.919856 L686.922062,161.073106 L698.138179,131.541204 L698.138179,84.8511573 C698.138179,73.372635 689.313194,63.823189 677.870304,62.9194509 L592.339672,56.1644015 C585.324007,55.6103173 578.705657,52.6856109 573.572704,47.8711151 L532.169219,9.03637024 C527.349723,4.51588442 520.989871,2 514.382124,2 L354.439049,2 C343.159848,2 332.225989,5.89123881 323.482766,13.0169965 L273.343813,53.8804208 C264.76642,60.871027 254.248524,65.0578705 243.213418,65.8743836 L79.8101685,77.964968 C69.7519233,78.7092009 60.4671378,83.6386158 54.2158072,91.5533516 L12.4239036,144.465587 Z"></path>
                </g>
                <g id="Rectangle-141">
                    <use fill="#C6B185" fill-rule="evenodd" xlink:href="#path-3"></use>
                    <path stroke="#000000" stroke-width="3" d="M341.628793,20.5 C334.512348,20.5 327.653374,23.1624027 322.400607,27.9636778 L276.815133,69.6309417 C276.7115,69.7256667 276.65247,69.8595987 276.65247,70 C276.65247,70.2761424 276.876327,70.5 277.15247,70.5 L518.82726,70.5 C521.312542,70.5 523.32726,68.4852814 523.32726,66 L523.32726,64.7530074 C523.32726,60.4029752 521.845444,56.1827052 519.125957,52.7875364 L498.518221,27.0596166 C495.197019,22.9132304 490.172121,20.5 484.859597,20.5 L341.628793,20.5 Z"></path>
                </g>
                <path d="M360.5,83.5 L379,83.5" id="Line-85" stroke="#000000" stroke-width="6" stroke-linecap="square"></path>
                <path d="M487.5,83.5 L506,83.5" id="Line-85" stroke="#000000" stroke-width="6" stroke-linecap="square"></path>
                <g id="Rectangle-144">
                    <use fill="#A95B5F" fill-rule="evenodd" xlink:href="#path-4"></use>
                    <path stroke="#020202" stroke-width="3" d="M697.5,113.175401 L697.5,89.6684989 L678.503358,89.6684989 C675.824585,89.6684989 673.270311,90.7994463 671.469692,92.7827736 C669.499777,94.9525684 667.927134,97.0917739 666.749286,99.197795 C665.263936,101.853637 663.61935,105.860569 661.831707,111.199107 C661.780295,111.352641 661.75408,111.513487 661.75408,111.6754 C661.75408,112.503833 662.425658,113.17541 663.25409,113.17541 L697.5,113.175401 Z"></path>
                </g>
                <path d="M697.5,104.5 L680.5,104.5" id="Line-86" stroke="#000000" stroke-width="3" stroke-linecap="square"></path>
                <path d="M697.5,97.5 L684.5,97.5" id="Line-86" stroke="#000000" stroke-width="3" stroke-linecap="square"></path>
                <path d="M484.5,69.5 L484.5,21.5" id="Line-83" stroke="#000000" stroke-width="5" stroke-linecap="square"></path>
                <g id="Rectangle-142">
                    <use fill="#5B6479" fill-rule="evenodd" xlink:href="#path-5"></use>
                    <rect stroke="#000000" stroke-width="3" x="396.5" y="20.5" width="13" height="50"></rect>
                </g>
                <path d="M256.5,63.5 C253.7817,83.2543648 252.31545,98.0581928 252.101248,107.911484 C251.887046,117.764775 252.68663,133.627614 254.5,155.5" id="Line-80" stroke="#000000" stroke-width="4" stroke-linecap="square"></path>
                <path d="M403.5,16.5 L402.5,154.5" id="Line-81" stroke="#181818" stroke-width="3" stroke-linecap="square"></path>
                <path d="M322.5,15.5 L493.940502,15.5 C497.888681,15.5 501.622909,17.2942538 504.089999,20.3767186 L534.333881,58.1644285 C537.030686,61.5339058 538.5,65.7211164 538.5,70.0369167 L538.5,98.5" id="Line-82" stroke="#000000" stroke-width="3" stroke-linecap="square"></path>
                <path d="M335.5,28.5 L320.5,65.5" id="Line-84" stroke="#FFFFFF" stroke-width="4" stroke-linecap="square"></path>
                <path d="M354.5,28.5 L339.5,65.5" id="Line-84" stroke="#FFFFFF" stroke-width="4" stroke-linecap="square"></path>
                <path d="M373.5,28.5 L358.5,65.5" id="Line-84" stroke="#FFFFFF" stroke-width="4" stroke-linecap="square"></path>
                <path d="M438.5,28.5 L423.5,65.5" id="Line-84" stroke="#FFFFFF" stroke-width="4" stroke-linecap="square"></path>
                <path d="M457.5,28.5 L442.5,65.5" id="Line-84" stroke="#FFFFFF" stroke-width="4" stroke-linecap="square"></path>
                <path d="M476.5,28.5 L461.5,65.5" id="Line-84" stroke="#FFFFFF" stroke-width="4" stroke-linecap="square"></path>
                <g id="Rectangle-143">
                    <use fill="#687079" fill-rule="evenodd" xlink:href="#path-6"></use>
                    <path stroke="#000000" stroke-width="3" d="M305.798035,55.5399796 C300.89879,57.7170479 297.414679,60.0646169 295.344572,62.5453207 C293.184873,65.1333852 291.294879,70.1359019 289.755192,77.5 L300.771131,77.5 C300.702498,74.9224264 300.917618,72.7433795 301.428039,70.9542979 C302.038684,68.8139214 303.515274,66.9439219 305.798035,65.3377539 L305.798035,55.5399796 Z"></path>
                </g>
                <g id="Rectangle-140">
                    <use fill="#5B6479" fill-rule="evenodd" xlink:href="#path-7"></use>
                    <path stroke="#000000" stroke-width="3" d="M210.467786,126.5 L214.966452,132.971972 L489.597324,132.971972 L493.384359,126.5 L210.467786,126.5 Z"></path>
                </g>
                <path d="M103.5,102.5 C120.520454,94.1050135 138.448113,90.0159216 157.282976,90.2327246 C176.117839,90.4495275 191.856847,95.8719526 204.5,106.5" id="Line-79" stroke="#000000" stroke-width="3" stroke-linecap="square"></path>
                <path d="M502,102.275463 C519.020454,93.880476 536.948113,89.7913842 555.782976,90.0081871 C574.617839,90.22499 590.356847,95.6474151 603,106.275463" id="Line-79" stroke="#000000" stroke-width="3" stroke-linecap="square"></path>
                <g id="Rectangle-135">
                    <use fill="#607E88" fill-rule="evenodd" xlink:href="#path-8"></use>
                    <path stroke="#000000" stroke-width="4" d="M224.414763,156.495509 C225.329802,159.616788 225.858861,162.411942 225.996901,164.888705 C226.144451,167.536104 226.162525,171.235605 226.052658,176 L476.666581,176 C476.666581,171.286872 476.666581,170.580638 476.666581,164.290516 C476.666581,160.509266 477.061319,157.158475 477.860784,154.237962 L224.414763,156.495509 Z"></path>
                </g>
                <g id="Rectangle-134">
                    <use fill="#607E88" fill-rule="evenodd" xlink:href="#path-9"></use>
                    <path stroke="#000000" stroke-width="4" d="M94.5235676,128 L17.0136075,128 C13.1763453,128 9.67749872,130.195765 8.00873829,133.651169 L3.34525472,143.307571 C3.12029782,143.773376 2.98085325,144.275807 2.93356544,144.790922 C2.7155214,147.166119 4.46423907,149.268356 6.83943567,149.4864 L8.3065283,149.62108 C13.7263574,150.118622 18.5215793,153.33716 21.0352321,158.164545 L27.8849161,171.319131 C29.2625517,173.964833 31.9977081,175.624361 34.9805962,175.624361 L71.2827645,175.624361 C75.304512,175.624361 78.8381236,172.956106 79.9390143,169.087968 C83.0534951,158.144758 84.5960272,152.737971 84.69194,152.430484 C87.2026907,144.381277 90.4802506,136.237815 94.5235676,128 Z"></path>
                </g>
                <path d="M15.5,132.5 L47.5,132.5" id="Line-74" stroke="#FFFFFF" stroke-width="3" stroke-linecap="square"></path>
                <path d="M15.5,151.5 L40.5,151.5" id="Line-73" stroke="#000000" stroke-width="4" stroke-linecap="square"></path>
                <path d="M230.5,161.5 L256.5,161.5" id="Line-75" stroke="#FFFFFF" stroke-width="3" stroke-linecap="square"></path>
                <g id="Rectangle-136">
                    <use fill="#607E88" fill-rule="evenodd" xlink:href="#path-10"></use>
                    <path stroke="#000000" stroke-width="4" d="M606.997226,125.767561 C609.51538,129.834922 611.421394,133.04638 612.718584,135.408604 C617.041977,143.281642 619.071802,147.387963 620.288329,151.351195 C622.685418,159.160488 623.988239,166.680859 624.191788,173.910047 L671.329659,173.910046 C676.572246,173.910046 681.625239,171.949105 685.495421,168.412665 L705.353747,150.266807 C708.944037,146.986122 711.053989,142.392217 711.203192,137.531063 L711.29813,134.437936 C711.301697,134.321698 711.30304,134.205402 711.302157,134.089112 C711.263921,129.055927 707.152724,125.006721 702.11954,125.044956 L606.997226,125.767561 Z"></path>
                </g>
                <path d="M705.5,146.5 L681.5,146.5" id="Line-76" stroke="#000000" stroke-width="4" stroke-linecap="square"></path>
                <path d="M616.5,131.5 L632.5,131.5" id="Line-77" stroke="#FFFDFD" stroke-width="3" stroke-linecap="square"></path>
                <g id="Rectangle-137">
                    <use fill="#BD8D6D" fill-rule="evenodd" xlink:href="#path-11"></use>
                    <path stroke="#000000" stroke-width="2" d="M52.4122433,97 L34.0761149,120 L79.6338856,120 C79.9531049,120 80.267687,119.92359 80.5513381,119.777155 C81.5328338,119.27046 81.9177359,118.064043 81.4110409,117.082547 L72.9994896,100.788916 C71.7981449,98.4618462 69.3983169,97 66.7794461,97 L52.4122433,97 Z"></path>
                </g>
                <polygon id="Rectangle-138" fill="#FFFFFF" points="51.8440619 98 61 98 61 119 36 119"></polygon>
                <path d="M62.5,98.5 L62.5,119.5" id="Line-78" stroke="#050505" stroke-width="3" stroke-linecap="square"></path>
                <g id="Rectangle-139">
                    <use fill="#926B51" fill-rule="evenodd" xlink:href="#path-12"></use>
                    <path stroke="#000000" stroke-width="2" d="M222.502095,81.4325327 C222.040677,81.4325327 221.639165,81.7482393 221.530317,82.1966349 L219.450576,90.7641022 C219.431828,90.8413339 219.422353,90.9205253 219.422353,91 C219.422353,91.5522847 219.870069,92 220.422353,92 L236.32768,92 C236.400192,92 236.472489,91.9921131 236.543296,91.9764783 C237.08259,91.8573971 237.42324,91.3236784 237.304158,90.7843843 L235.41238,82.2169171 C235.311213,81.7587505 234.905105,81.4325327 234.435902,81.4325327 L222.502095,81.4325327 Z"></path>
                </g>
                <g id="Wheel" transform="translate(94.000000, 112.000000)">
                    <circle id="Oval-10" stroke="#000000" stroke-width="4" fill="#405063" cx="58.5" cy="58.5" r="58.5"></circle>
                    <circle id="Oval-10" stroke="#000000" stroke-width="4" fill="#D8D8D8" cx="58.5" cy="59.5" r="35.5"></circle>
                    <circle id="Oval-10" stroke="#000000" stroke-width="4" fill="#B5B5B5" cx="58.5" cy="59.5" r="27.5"></circle>
                    <path d="M61.5,32.5 L53.5,84.5" id="Line-60" stroke="#000000" stroke-width="3" stroke-linecap="square"></path>
                    <path d="M46.5,34.5 L70.5,83.5" id="Line-60" stroke="#000000" stroke-width="3" stroke-linecap="square"></path>
                    <path d="M35.5,48.5 L80.5,68.5" id="Line-60" stroke="#000000" stroke-width="3" stroke-linecap="square"></path>
                    <path d="M32.5,64.5 L83.5,53.5" id="Line-60" stroke="#000000" stroke-width="3" stroke-linecap="square"></path>
                    <path d="M39.5,78.5 L75.5,40.5" id="Line-60" stroke="#000000" stroke-width="3" stroke-linecap="square"></path>
                    <circle id="Oval-10" stroke="#000000" stroke-width="4" fill="#D8D8D8" cx="59" cy="60" r="11"></circle>
                    <path d="M16,27.7750148 C19.3256431,23.4942948 21.7931099,20.6413714 23.4024005,19.2162447 C25.0116911,17.7911181 28.0695007,16.7190365 32.5758292,16 L32.5758292,19.2162447 C28.5983231,19.7527768 25.9353475,20.6431977 24.5869024,21.8875074 C23.2384573,23.1318171 21.5298,25.0943196 19.4609306,27.7750148 L16,27.7750148 Z" id="Rectangle-80" fill="#F3EEEE"></path>
                    <circle id="Oval-11" fill="#000000" cx="59" cy="60" r="5"></circle>
                </g>
                <g id="Wheel" transform="translate(492.000000, 112.000000)">
                    <circle id="Oval-10" stroke="#000000" stroke-width="4" fill="#405063" cx="58.5" cy="58.5" r="58.5"></circle>
                    <circle id="Oval-10" stroke="#000000" stroke-width="4" fill="#D8D8D8" cx="58.5" cy="59.5" r="35.5"></circle>
                    <circle id="Oval-10" stroke="#000000" stroke-width="4" fill="#B5B5B5" cx="58.5" cy="59.5" r="27.5"></circle>
                    <path d="M61.5,32.5 L53.5,84.5" id="Line-60" stroke="#000000" stroke-width="3" stroke-linecap="square"></path>
                    <path d="M46.5,34.5 L70.5,83.5" id="Line-60" stroke="#000000" stroke-width="3" stroke-linecap="square"></path>
                    <path d="M35.5,48.5 L80.5,68.5" id="Line-60" stroke="#000000" stroke-width="3" stroke-linecap="square"></path>
                    <path d="M32.5,64.5 L83.5,53.5" id="Line-60" stroke="#000000" stroke-width="3" stroke-linecap="square"></path>
                    <path d="M39.5,78.5 L75.5,40.5" id="Line-60" stroke="#000000" stroke-width="3" stroke-linecap="square"></path>
                    <circle id="Oval-10" stroke="#000000" stroke-width="4" fill="#D8D8D8" cx="59" cy="60" r="11"></circle>
                    <path d="M16,27.7750148 C19.3256431,23.4942948 21.7931099,20.6413714 23.4024005,19.2162447 C25.0116911,17.7911181 28.0695007,16.7190365 32.5758292,16 L32.5758292,19.2162447 C28.5983231,19.7527768 25.9353475,20.6431977 24.5869024,21.8875074 C23.2384573,23.1318171 21.5298,25.0943196 19.4609306,27.7750148 L16,27.7750148 Z" id="Rectangle-80" fill="#F3EEEE"></path>
                    <circle id="Oval-11" fill="#000000" cx="59" cy="60" r="5"></circle>
                </g>
            </g>
        </g>
    </g>
</svg>