<?xml version="1.0" encoding="UTF-8"?>
<svg width="764px" height="385px" viewBox="0 0 764 385" version="1.1" xmlns="http://www.w3.org/2000/svg" xmlns:xlink="http://www.w3.org/1999/xlink">
    <!-- Generator: Sketch 48.2 (47327) - http://www.bohemiancoding.com/sketch -->
    <title>Car 5</title>
    <desc>Created with Sketch.</desc>
    <defs>
        <path d="M48.095584,81.1995634 C79.0321016,76.3021584 101.422638,73.5622598 115.267194,72.9798677 C161.159588,71.0493349 191.800571,75.2091965 218.874176,70.4532675 C234.678936,67.6768984 250.646862,9.55138677 281.203294,6.16211966 C292.969729,4.85700684 426.221643,-17.5376268 532.088953,33.5729603 C577.049988,55.2792349 601.687004,90.3954254 606,138.921532 L606,184 C597.340443,166.690466 589.555948,156.08169 582.646517,152.173671 C549.425688,133.383754 515.224548,136.38408 501.095659,138.921532 C472.833998,143.997133 457.139087,212.371629 438.249993,214.044086 C400.776905,217.361985 343.585396,217.361985 266.675467,214.044086 L221.953949,182.770136 L35.7522088,182.173846 C31.7295827,155.759265 29.4940094,137.689969 29.045489,127.965957 C28.7132572,120.763107 29.5138096,110.763108 31.4471462,97.9659609 L31.447148,97.9659612 C32.7494079,89.3460391 39.4850713,82.5626505 48.095584,81.1995634 Z" id="path-1"></path>
        <path d="M41,163.558677 C65.3334066,145.757541 82.5583515,135.904649 92.6748348,134 C102.791318,132.095351 132.268978,137.574483 181.107814,150.437397 L198,214 L32.3077208,210.582024 L41,163.558677 Z" id="path-2"></path>
        <path d="M458.692279,172.927155 C487.172738,146.871102 506.471208,132.890751 516.587692,130.986103 C526.704175,129.081454 554.108309,138.688045 598.800093,159.805875 L621.21335,205.141957 L450,219.950503 L458.692279,172.927155 Z" id="path-3"></path>
        <path d="M66.6237957,99 L123.613399,100.129099 L123.613399,112.903358 L67.5066249,141 C61.8070615,142.069611 58.6818511,135.895618 58.1309938,122.478022 C57.5801366,109.060425 60.4110705,101.234418 66.6237957,99 Z" id="path-4"></path>
        <polygon id="path-5" points="68.6216897 98.9713175 123.613399 100.129099 123.613399 112.903358 68.6216897 140.784078"></polygon>
        <path d="M33,102.222318 C39.7793854,100.381602 44.2136875,103.639682 46.3029064,111.996557 C48.3921252,120.353433 48.9578231,137.021247 48,162 L33,167.499734 C31.5606357,148.564068 30.8409535,135.462786 30.8409535,128.195888 C30.8409535,120.92899 31.5606357,112.271134 33,102.222318 Z" id="path-6"></path>
        <path d="M603,138 L622,138 C632.49341,138 641,146.50659 641,157 L641,180 L603,180 L603,138 Z" id="path-7"></path>
        <path d="M107.263326,110 C148.9286,98.5420495 186.476921,114.680312 219.908288,158.414788 C243.355037,186.590345 261.342809,201.413903 273.871605,202.885461 C279.216131,203.513197 315.002805,203.485792 360.460737,202.885461 C376.357011,202.675531 393.572136,202.979742 410.929585,202.885461 C417.097,202.851961 423.060016,202.933322 429.210683,202.885461 C432.607176,202.859032 436.215046,202.134072 439.582044,202.885461 C450.133678,205.240196 439.582044,149.315256 497.25389,126.027954 C522.242343,115.937873 575.433809,119.455366 617.30386,149.315256 C633.53124,160.887913 645.410205,180.805307 652.940754,209.067436 C645.222509,209.377156 632.735716,209.942441 615.480377,210.763292 C609.133028,211.06524 620.038288,202.885461 588.554086,166.674242 C575.990361,152.224207 552.880499,142.571967 533.812895,142.571967 C525.624626,142.571967 494.921263,142.62417 479.180187,161.940843 C462.927036,181.885911 461.639249,221.123649 453.901891,221.65331 C400.629572,225.300069 360.740946,221.12724 327.85022,221.65331 C256.517075,222.794248 224.359435,224.218377 204.097992,221.65331 C186.241894,219.392756 188.551157,195.762321 164.759868,164.579079 C147.250312,141.629304 119.793842,142.341663 111.216313,142.571967 C79.7291549,143.417387 57.0091705,158.226731 43.05636,187 L23.2680804,187 C37.5996361,147.124617 65.5980512,121.45795 107.263326,110 Z" id="path-8"></path>
        <path d="M620,187 C645.444361,184.631942 658.054858,189.298608 657.831489,201 C657.608121,212.701392 644.997625,217.368058 620,215 L620,187 Z" id="path-9"></path>
        <path d="M12.509473,182.336528 L36.1608728,182.336528 C38.2177893,185.137252 39.2970162,190.581164 39.3985536,198.668264 C39.5000909,206.755364 38.420864,212.199276 36.1608728,215 L9.62821969,215 C3.88560183,212.974487 0.881352241,207.530575 0.615470918,198.668264 C0.349589596,189.805953 4.31425695,184.362041 12.509473,182.336528 Z" id="path-10"></path>
        <path d="M508.702724,48.3693065 L549.788369,71.5493617 C552.302371,72.9677332 553.857345,75.6304152 553.857345,78.5169327 L553.857345,80.1527137 C553.857345,83.6363504 551.033299,86.4603959 547.549663,86.4603959 L516.349413,86.4603959 C512.194514,86.4603959 508.579624,83.6161703 507.602063,79.5779085 L501.386195,53.9004343 C500.736489,51.2165297 502.385533,48.5141047 505.069438,47.8643992 C506.300764,47.5663264 507.599331,47.7467845 508.702724,48.3693065 Z" id="path-11"></path>
        <path d="M282.625259,32.9166675 L356.8819,32.1193749 C362.956682,32.05415 367.934141,36.9258587 367.999366,43.0006408 C367.999789,43.0400061 368,43.0793734 368,43.1187409 L368,70 C368,77.7319865 361.731986,84 354,84 L253.419585,84 C250.238264,84 247.659293,81.4210296 247.659293,78.2397085 L247.659293,76.1899454 C247.659293,73.7828875 248.448831,71.4422739 249.906833,69.5270303 L274.775841,36.8588956 C276.644261,34.4045239 279.540809,32.9497852 282.625259,32.9166675 Z" id="path-12"></path>
        <path d="M392.052467,31.997324 C432.625691,32.210201 458.515701,35.2140363 469.722497,41.0088299 C480.643605,46.6559002 485.223693,58.8707571 483.46276,77.6534005 L483.462767,77.6534011 C483.125529,81.2504847 480.106181,84 476.493323,84 L395,84 C387.820298,84 382,78.1797017 382,71 L382.000001,41.9971851 C382.000001,36.4743383 386.477153,31.9971864 392,31.9971864 C392.017489,31.9971864 392.034978,31.9972323 392.052467,31.997324 Z" id="path-13"></path>
    </defs>
    <g id="Page-1" stroke="none" stroke-width="1" fill="none" fill-rule="evenodd">
        <g id="Car-5">
            <g transform="translate(53.000000, 62.000000)">
                <g id="Rectangle-81">
                    <use fill="#2BD8CD" fill-rule="evenodd" xlink:href="#path-1"></use>
                    <path stroke="#000000" stroke-width="4" d="M37.4722471,180.179344 L222.586763,180.772152 L267.343908,212.071015 C343.879847,215.360355 400.80116,215.352013 438.073601,212.051879 C440.993402,211.793358 444.228146,209.357979 447.8955,204.659789 C450.407278,201.441988 453.051331,197.281979 456.286215,191.590153 C458.228202,188.173198 465.44997,174.893905 465.179493,175.385248 C471.359568,164.158659 475.93156,156.827517 480.913765,150.741142 C487.324326,142.909855 493.772646,138.204697 500.742128,136.953026 C510.721117,135.160868 522.432856,134.454516 534.888054,135.557636 C551.859354,137.060734 568.342182,141.785298 583.631145,150.432835 C589.919554,153.9896 596.661218,162.449862 604,175.853642 L604,139.010506 C599.727912,91.2366267 575.523994,56.7633956 531.219424,35.3740487 C512.736715,26.4509721 492.701207,19.4360474 471.335395,14.1826864 C441.459898,6.83698961 409.722372,3.08895685 376.981077,2.31504133 C352.031113,1.72529176 328.261707,2.87139435 305.742874,5.18225615 C300.07898,5.76347967 294.926292,6.37382467 289.719775,7.05367176 C288.339392,7.23391685 282.235124,8.05993614 281.423779,8.14992916 C269.234848,9.50190447 259.104685,19.4674009 246.354336,39.3611524 C247.302109,37.8823877 235.610635,56.6533068 232.684347,60.7727597 C227.656045,67.8513046 223.560807,71.660607 219.22021,72.423105 C205.536384,74.8268967 194.910245,75.1021815 164.358578,74.6355 C142.72442,74.3050348 130.811067,74.32776 115.351252,74.9781004 C101.602269,75.5564722 79.2745269,78.2886866 48.4082999,83.1749643 C40.6588387,84.4017427 34.5967413,90.5067922 33.4247058,98.2647219 C31.5092206,110.943707 30.7182138,120.824467 31.0433648,127.873805 C31.4780813,137.298543 33.6216674,154.751851 37.4722444,180.179327 Z"></path>
                </g>
                <path d="M497.386953,191.900427 L497.389976,96.3381699 C500.013462,55.403464 485.836026,31.9714465 454.760913,25.4793506 C423.69956,18.9901297 365.056399,18.8592324 278.938962,25.1137314 C275.967546,25.3295381 273.227692,26.7974636 271.402022,29.151781 L234.331755,76.9562355 C232.496197,79.3233036 231.5,82.2336175 231.5,85.2289947 L231.5,141.414508 C231.5,146.072148 233.256856,150.5584 236.41975,153.977422 L264.821981,184.679646 C269.080617,189.283144 275.067283,191.900427 281.338501,191.900427 L497.386953,191.900427 Z" id="Rectangle-86" stroke="#000000" stroke-width="3"></path>
                <g id="Rectangle-83">
                    <use fill="#18706A" fill-rule="evenodd" xlink:href="#path-2"></use>
                    <path stroke="#000000" stroke-width="4" d="M42.8220978,164.704387 L34.7022519,208.630994 L195.384614,211.945623 L179.473767,152.075645 C131.683461,139.523975 102.654777,134.156196 93.0448772,135.965469 C83.4070937,137.779992 66.5786849,147.373167 42.8220954,164.704403 Z"></path>
                </g>
                <g id="Rectangle-83">
                    <use fill="#18706A" fill-rule="evenodd" xlink:href="#path-3"></use>
                    <path stroke="#000000" stroke-width="4" d="M460.536985,173.950562 L452.444039,217.731647 L618.122019,203.401864 L597.316046,161.316894 C553.49213,140.640666 526.411464,131.171701 516.957734,132.951572 C507.416295,134.747956 488.442001,148.463468 460.536983,173.950575 Z"></path>
                </g>
                <g id="Rectangle-85">
                    <use fill="#6F6700" fill-rule="evenodd" xlink:href="#path-4"></use>
                    <path stroke="#000000" stroke-width="4" d="M66.9751788,101.007354 C62.0430779,103.036004 59.6213819,110.024027 60.1293105,122.395981 C60.6247898,134.464701 63.0817603,139.555845 66.8862553,139.073905 L121.613399,111.668142 L121.613399,102.089867 L66.9751788,101.007354 Z"></path>
                </g>
                <g id="Rectangle-85">
                    <use fill="#BDBDBD" fill-rule="evenodd" xlink:href="#path-5"></use>
                    <path stroke="#000000" stroke-width="4" d="M70.6216897,101.013868 L70.6216897,137.527718 L121.613399,111.674993 L121.613399,102.087434 L70.6216897,101.013868 Z"></path>
                </g>
                <g id="Path">
                    <use fill="#FFFFFF" fill-rule="evenodd" xlink:href="#path-6"></use>
                    <path stroke="#000000" stroke-width="4" d="M34.787433,103.871666 C33.488987,113.252126 32.8409535,121.362379 32.8409535,128.195888 C32.8409535,135.057307 33.4923723,147.239944 34.7956437,164.711169 L46.0516445,160.584169 C46.9313194,136.534909 46.3541496,120.447742 44.3626214,112.481629 C42.6677834,105.702277 39.6411627,103.049259 34.787433,103.871666 Z"></path>
                </g>
                <path d="M35.5,110.5 L44.5,110.5" id="Line-35" stroke="#000000" stroke-width="2" stroke-linecap="square"></path>
                <path d="M35.5,120.5 L44.5,120.5" id="Line-35" stroke="#000000" stroke-width="2" stroke-linecap="square"></path>
                <path d="M35.5,134.5 L44.5,134.5" id="Line-35" stroke="#000000" stroke-width="2" stroke-linecap="square"></path>
                <path d="M35.5,145.5 L44.5,145.5" id="Line-35" stroke="#000000" stroke-width="2" stroke-linecap="square"></path>
                <g id="Rectangle-93">
                    <use fill="#6E0000" fill-rule="evenodd" xlink:href="#path-7"></use>
                    <path stroke="#0B0B0B" stroke-width="4" d="M605,140 L605,178 L639,178 L639,157 C639,147.611159 631.388841,140 622,140 L605,140 Z"></path>
                </g>
                <g id="Rectangle-82">
                    <use fill="#8BFFF8" fill-rule="evenodd" xlink:href="#path-8"></use>
                    <path stroke="#000000" stroke-width="4" d="M26.141184,185 L41.8113749,185 C56.1362616,156.295877 79.3392412,141.427135 111.162633,140.572687 C120.095768,140.332835 126.838102,140.764301 135.147097,142.948721 C147.55527,146.210806 158.237814,152.733391 166.349929,163.36594 C172.4147,171.315035 177.151995,179.172951 181.494079,187.968532 C183.539754,192.112371 189.161194,204.674698 190.202946,206.773186 C194.468656,215.365966 198.090645,218.876826 204.349184,219.669147 C213.239495,220.794647 224.627698,221.184857 243.017744,221.072237 C250.845699,221.024299 259.802367,220.893172 273.497677,220.640803 C272.417082,220.660716 303.685083,220.065951 314.138881,219.882983 C318.775634,219.801828 323.303738,219.725773 327.818235,219.653566 C338.022965,219.490346 344.658371,219.63826 368.246438,220.386004 C404.746226,221.54305 426.114295,221.55083 453.765301,219.65798 C454.075265,219.636761 454.614698,219.164512 455.299861,217.978429 C456.096335,216.599657 456.908606,214.532428 457.813371,211.630855 C458.35142,209.905338 463.244672,191.559749 465.240713,185.48822 C468.687514,175.003785 472.590557,166.861308 477.629779,160.677422 C484.963726,151.677563 495.75877,146.049837 508.885025,143.062518 C517.5353,141.093858 524.810865,140.571967 533.812895,140.571967 C553.870556,140.571967 577.367192,150.759595 590.063376,165.361975 C600.163903,176.978989 606.707091,186.58353 610.54378,194.679955 C612.007942,197.769721 613.020548,200.515185 613.731185,203.121526 C613.997777,204.099284 614.209575,205.007177 614.415156,206.009196 C614.475657,206.30408 614.747459,207.693231 614.813735,207.998102 C614.899836,208.39417 614.968496,208.639839 615.00486,208.767727 C615.100623,208.772892 615.227002,208.773083 615.385343,208.765551 C630.885674,208.028188 642.539783,207.496964 650.349509,207.171812 C642.906643,180.604735 631.485709,161.885625 616.142602,150.943592 C596.820412,137.163851 573.879534,128.262205 550.642464,124.666847 C530.022626,121.476441 510.5956,122.797601 498.002726,127.882474 C479.749679,135.252868 467.320729,146.308527 459.11979,160.518667 C455.556325,166.693245 452.918654,173.206521 450.743023,180.583674 C449.554174,184.614836 446.814594,195.869828 446.63229,196.528418 C445.852995,199.343694 445.143591,201.207671 444.245487,202.545134 C442.9855,204.421517 441.233492,205.3032 439.146433,204.837446 C437.791364,204.535045 436.319605,204.484341 434.182202,204.609267 C433.766549,204.633561 433.419024,204.657357 432.677309,204.710722 C430.942362,204.835548 430.191475,204.87789 429.226246,204.885401 C426.702827,204.905036 424.384433,204.905032 420.458187,204.892127 C419.996394,204.890593 419.996394,204.890593 419.534689,204.889028 C415.262769,204.874545 413.351327,204.872336 410.940449,204.885432 C404.609905,204.919818 399.458677,204.908996 388.362701,204.856991 C373.990974,204.789634 367.932658,204.786959 360.487148,204.885287 C314.091262,205.498004 279.036561,205.505854 273.638301,204.871807 C260.416905,203.3189 242.14034,188.257352 218.319351,159.629398 C185.349436,116.498589 148.604221,100.705501 107.793639,111.928411 C67.6925481,122.956211 40.5272961,147.26948 26.141184,185 Z"></path>
                </g>
                <g id="Rectangle-92">
                    <use fill="#CBCBCB" fill-rule="evenodd" xlink:href="#path-9"></use>
                    <path stroke="#000000" stroke-width="4" d="M622,188.832527 L622,213.170105 C644.748257,215.06033 655.644447,210.779322 655.831854,200.961829 C656.018119,191.204107 645.153783,186.936739 622,188.832527 Z"></path>
                </g>
                <g id="Rectangle-84">
                    <use fill="#B0B0B0" fill-rule="evenodd" xlink:href="#path-10"></use>
                    <path stroke="#000000" stroke-width="4" d="M12.7581793,184.336528 C5.65414653,186.171995 2.37900244,190.756343 2.61457144,198.608288 C2.85279588,206.548745 5.33127291,211.200491 9.98527219,213 L35.120729,213 C36.6746503,210.415315 37.4856947,205.621311 37.3987112,198.693373 C37.3119505,191.783181 36.4886904,186.966318 35.06181,184.336528 L12.7581793,184.336528 Z"></path>
                </g>
                <path d="M68.5191954,100.203734 C86.5019851,99.5102099 96.0171676,99.1566691 97.064743,99.1431117 C325.79527,96.1829582 446.539153,95.4988931 500.973023,98.5 C555.78085,101.521724 588.895657,112.467877 600.317445,131.338459" id="Line-36" stroke="#000000" stroke-width="3" stroke-linecap="square"></path>
                <g id="Rectangle-89">
                    <use fill="#BFBFBF" fill-rule="evenodd" xlink:href="#path-11"></use>
                    <path stroke="#000000" stroke-width="2" d="M508.211346,49.2402529 C507.328632,48.7422353 506.289778,48.5978688 505.304717,48.8363271 C503.157594,49.3560915 501.838358,51.5180314 502.358123,53.6651551 L508.573991,79.3426294 C509.442934,82.9321954 512.65617,85.4603959 516.349413,85.4603959 L547.549663,85.4603959 C550.481014,85.4603959 552.857345,83.0840657 552.857345,80.1527137 L552.857345,78.5169327 C552.857345,75.9912299 551.496743,73.6613831 549.296991,72.4203081 L508.211346,49.2402529 Z"></path>
                </g>
                <g id="Rectangle-87">
                    <use fill="#BFBFBF" fill-rule="evenodd" xlink:href="#path-12"></use>
                    <path stroke="#000000" stroke-width="2" d="M282.635996,33.9166099 C279.85999,33.9464158 277.253097,35.2556806 275.571519,37.4646152 L250.702511,70.1327499 C249.377055,71.8738804 248.659293,74.0017109 248.659293,76.1899454 L248.659293,78.2397085 C248.659293,80.8687449 250.790548,83 253.419585,83 L354,83 C361.179702,83 367,77.1797017 367,70 L367,43.1187409 C366.999904,43.065058 366.999904,43.065058 366.999424,43.0113772 C366.940128,37.488848 362.415165,33.0600219 356.892636,33.1193173 L282.635996,33.9166099 Z"></path>
                </g>
                <g id="Rectangle-88">
                    <use fill="#BFBFBF" fill-rule="evenodd" xlink:href="#path-13"></use>
                    <path stroke="#000000" stroke-width="2" d="M392.04722,32.9973103 C392.02361,32.997207 392.02361,32.997207 392,32.9971864 C387.029438,32.9971864 383.000001,37.0266231 383.000001,41.9971851 L383,71 C383,77.627417 388.372583,83 395,83 L476.493323,83 C479.590059,83 482.178071,80.643272 482.467127,77.5600566 C484.193819,59.1426254 479.76322,47.3264475 469.263188,41.8971066 C458.248427,36.2016104 432.458054,33.2093353 392.04722,32.9973103 Z"></path>
                </g>
                <path d="M376.5,21.5 C376.153004,59.405459 375.488823,87.5721257 374.507456,106 C373.52609,124.427874 371.190272,152.594541 367.5,190.5" id="Line-37" stroke="#000000" stroke-width="3" stroke-linecap="square"></path>
                <path d="M251.184645,80 L260,80 L260,102.194348 L251.184645,102.194348 L251.184645,96.3769785 C244.287187,102.792326 240.424766,106 239.597381,106 C236.397049,106 235.531255,106 237,106 L237,98.24568 L251.184645,87.7399254 L251.184645,80 Z" id="Rectangle-90" fill="#000000"></path>
                <path d="M512.5,106.5 C527.67356,107.46604 538.731523,108.745724 545.673887,110.339054 C552.616251,111.932383 561.891622,115.319365 573.5,120.5" id="Line-40" stroke="#FFFFFF" stroke-width="3" stroke-linecap="square"></path>
                <path d="M253.5,101.5 L367.5,101.5" id="Line-39" stroke="#FFFFFF" stroke-width="5" stroke-linecap="square"></path>
                <path d="M382.551837,102.886113 C406.678256,102.730342 424.802949,102.730342 436.925914,102.886113 C449.04888,103.041884 467.028054,103.503921 490.863437,104.272226" id="Line-39" stroke="#FFFFFF" stroke-width="4" stroke-linecap="square"></path>
                <path d="M278,17.6296972 C325.825348,13.3171195 361.428425,11.6653443 384.80923,12.6743716 C408.190034,13.6833988 437.064603,17.6544501 471.432935,24.5875255" id="Line-39" stroke="#FFFFFF" stroke-width="4" stroke-linecap="square"></path>
                <rect id="Rectangle-91" fill="#000000" x="336" y="108" width="19" height="8"></rect>
                <rect id="Rectangle-91" fill="#000000" x="466" y="108" width="19" height="8"></rect>
                <path d="M45.261745,92.2725279 C81.1157471,88.0068097 107.49,85.4159671 124.384505,84.5 C141.279009,83.5840329 171.331963,82.8591765 214.543367,82.3254308" id="Line-38" stroke="#FFFFFF" stroke-width="5" stroke-linecap="square"></path>
                <g id="Wheel" transform="translate(485.000000, 159.000000)">
                    <circle id="Oval-5" stroke="#000000" stroke-width="19" cx="50" cy="50" r="50"></circle>
                    <circle id="Oval-5" stroke="#6B6B6B" stroke-width="19" fill="#5EBAB5" cx="50" cy="50" r="46"></circle>
                    <circle id="Oval-7" stroke="#000000" stroke-width="4" cx="50" cy="50" r="37"></circle>
                    <circle id="Oval-6" stroke="#000000" stroke-width="3" fill="#A8A8A8" cx="49.5" cy="50.5" r="21.5"></circle>
                    <circle id="Oval-6" stroke="#000000" stroke-width="3" fill="#A8A8A8" cx="50" cy="50" r="11"></circle>
                </g>
                <g id="Wheel" transform="translate(61.000000, 161.000000)">
                    <circle id="Oval-5" stroke="#000000" stroke-width="19" cx="50" cy="50" r="50"></circle>
                    <circle id="Oval-5" stroke="#6B6B6B" stroke-width="19" fill="#5EBAB5" cx="50" cy="50" r="46"></circle>
                    <circle id="Oval-7" stroke="#000000" stroke-width="4" cx="50" cy="50" r="37"></circle>
                    <circle id="Oval-6" stroke="#000000" stroke-width="3" fill="#A8A8A8" cx="49.5" cy="50.5" r="21.5"></circle>
                    <circle id="Oval-6" stroke="#000000" stroke-width="3" fill="#A8A8A8" cx="50" cy="50" r="11"></circle>
                </g>
                <path d="M497,172.775015 C500.325643,168.494295 502.79311,165.641371 504.402401,164.216245 C506.011691,162.791118 509.069501,161.719036 513.575829,161 L513.575829,164.216245 C509.598323,164.752777 506.935347,165.643198 505.586902,166.887507 C504.238457,168.131817 502.5298,170.09432 500.460931,172.775015 L497,172.775015 Z" id="Rectangle-80" fill="#F3EEEE"></path>
                <path d="M76,174.775015 C79.3256431,170.494295 81.7931099,167.641371 83.4024005,166.216245 C85.0116911,164.791118 88.0695007,163.719036 92.5758292,163 L92.5758292,166.216245 C88.5983231,166.752777 85.9353475,167.643198 84.5869024,168.887507 C83.2384573,170.131817 81.5298,172.09432 79.4609306,174.775015 L76,174.775015 Z" id="Rectangle-80" fill="#F3EEEE"></path>
            </g>
        </g>
    </g>
</svg>