<?xml version="1.0" encoding="UTF-8"?>
<svg width="764px" height="385px" viewBox="0 0 764 385" version="1.1" xmlns="http://www.w3.org/2000/svg" xmlns:xlink="http://www.w3.org/1999/xlink">
    <!-- Generator: Sketch 48.2 (47327) - http://www.bohemiancoding.com/sketch -->
    <title>Car 12</title>
    <desc>Created with Sketch.</desc>
    <defs>
        <rect id="path-1" x="78" y="90" width="607" height="91"></rect>
        <polygon id="path-2" points="0 46 97 46 97 55 35.9626325 55 0 55"></polygon>
        <rect id="path-3" x="5.40346733" y="47.2169683" width="92.3310228" height="9"></rect>
        <rect id="path-4" x="4.40346733" y="47.2169683" width="92.3310228" height="9"></rect>
        <rect id="path-5" x="3.59273349" y="46.4003671" width="94.1992658" height="9"></rect>
        <polygon id="path-6" points="0 46 97 46 97 55 35.9626325 55 0 55"></polygon>
        <rect id="path-7" x="5.40346733" y="47.2169683" width="92.3310228" height="9"></rect>
        <rect id="path-8" x="4.40346733" y="47.2169683" width="92.3310228" height="9"></rect>
        <rect id="path-9" x="3.59273349" y="46.4003671" width="94.1992658" height="9"></rect>
        <path d="M378.61771,16.0875379 C446.490744,14.986386 492.551256,16.207902 516.799247,19.7520859 C538.04576,22.8575616 558.276796,29.8322966 577.492353,40.6762908 L577.492353,40.6762909 C579.416275,41.7620256 580.09576,44.2018342 579.010025,46.1257559 C578.443188,47.1301911 577.470383,47.841074 576.341223,48.0759997 C514.943491,60.850004 468.814446,67.9765525 437.954088,69.4556453 C407.090202,70.9349072 358.838041,68.2049641 293.197604,61.2658159 L293.197605,61.2658075 C291.549937,61.091625 290.35544,59.6147231 290.529623,57.9670547 C290.63998,56.923141 291.287951,56.0128406 292.238192,55.5667745 L374.121874,17.1286224 C375.530015,16.4676074 377.062343,16.1127717 378.61771,16.0875379 Z" id="path-10"></path>
        <path d="M328.219312,39 C334.114809,37.9933397 338.569908,37.5411301 341.584611,37.643371 C343.389807,37.7045927 345.543674,38.1957648 348.046211,39.1168876 L348.046208,39.1168952 C351.155947,40.2615146 352.748992,43.710354 351.604373,46.8200937 C351.550929,46.9652903 351.49189,47.1083653 351.427387,47.2489981 C349.735419,50.9378916 347.696692,53.6843419 345.311204,55.488349 C341.826187,58.1238675 336.742041,59.1817263 330.058767,58.6619255 L321.281783,64.2058532 L308.367253,62.5428715 L328.219312,39 Z" id="path-11"></path>
        <path d="M63.944559,90.7042325 L76.4226073,90.3093651 L106.18026,89.3676852 L74.6498751,116.657176 L13.8492367,139.34397 C21.6966811,127.566921 28.4073577,118.972421 33.9812665,113.560469 C39.5551753,108.148518 49.5429395,100.529772 63.944559,90.7042325 Z" id="path-12"></path>
        <path d="M674.206663,93 L710.415495,94.0619569 C714.893616,100.055171 717.910344,105.034518 719.46568,109 C721.021015,112.965482 722.360885,118.298815 723.485288,125 L703.646199,125 L674.206663,93 Z" id="path-13"></path>
    </defs>
    <g id="Page-1" stroke="none" stroke-width="1" fill="none" fill-rule="evenodd">
        <g id="Car-12">
            <g transform="translate(22.000000, 86.000000)">
                <g id="Rectangle-181">
                    <use fill="#7A4346" fill-rule="evenodd" xlink:href="#path-1"></use>
                    <rect stroke="#000000" stroke-width="4" x="80" y="92" width="603" height="87"></rect>
                </g>
                <path d="M280.516755,48.7215582 L368.551414,3.78982331 C371.823601,2.11974162 375.435516,1.22314695 379.108861,1.16912134 C464.226123,-0.0827380457 519.014065,2.87682956 543.472689,10.0478242 C565.267746,16.4378906 614.835568,39.6115859 692.176157,79.56891 L692.17615,79.5689231 C713.813964,90.7479059 726.473543,113.96703 724.149006,138.210815 L721.818957,162.512086 C720.905485,172.03915 714.436492,180.120789 705.340659,183.098236 L693.398041,187.007554 C691.389514,187.665029 689.289471,188 687.176073,188 L660.860379,188 C662.801071,124.797774 638.165605,93.1966614 586.953982,93.1966614 C535.74236,93.1966614 511.974408,124.797774 515.650128,188 L236.89862,188 C240.984287,124.568646 216.884375,92.9675328 164.598884,93.1966614 C112.313394,93.42579 88.715218,125.026903 93.8043575,188 L21.8380721,187.999999 C11.719412,187.999999 3.19486775,180.442595 1.98221624,170.396862 C1.04728751,162.651813 1.12673247,157.677326 2.2205511,155.473401 C8.46534386,142.890826 13.5803934,143.576295 17.6308299,137.249396 C38.9466676,103.95344 69.6255992,86.4638524 98.9023308,75.5426236 C139.121112,60.5396337 196.298458,52.4362657 270.434367,51.2325194 L270.434367,51.2325203 C273.942697,51.1755555 277.391487,50.3166536 280.516755,48.7215582 Z" id="Rectangle-172" stroke="#000000" stroke-width="4" fill="#F54C51"></path>
                <g id="Wheel" transform="translate(113.000000, 112.000000)">
                    <g id="Rectangle-180">
                        <use fill="#D8D8D8" fill-rule="evenodd" xlink:href="#path-2"></use>
                        <path stroke="#000000" stroke-width="2" d="M1,47 L1,54 L96,54 L96,47 L1,47 Z"></path>
                    </g>
                    <g id="Rectangle-180" transform="translate(51.568979, 51.716968) rotate(-50.000000) translate(-51.568979, -51.716968) ">
                        <use fill="#D8D8D8" fill-rule="evenodd" xlink:href="#path-3"></use>
                        <rect stroke="#000000" stroke-width="2" x="6.40346733" y="48.2169683" width="90.3310228" height="7"></rect>
                    </g>
                    <g id="Rectangle-180" transform="translate(50.568979, 51.716968) scale(-1, 1) rotate(-47.000000) translate(-50.568979, -51.716968) ">
                        <use fill="#D8D8D8" fill-rule="evenodd" xlink:href="#path-4"></use>
                        <rect stroke="#000000" stroke-width="2" x="5.40346733" y="48.2169683" width="90.3310228" height="7"></rect>
                    </g>
                    <g id="Rectangle-180" transform="translate(50.692366, 50.900367) rotate(-90.000000) translate(-50.692366, -50.900367) ">
                        <use fill="#D8D8D8" fill-rule="evenodd" xlink:href="#path-5"></use>
                        <rect stroke="#000000" stroke-width="2" x="4.59273349" y="47.4003671" width="92.1992658" height="7"></rect>
                    </g>
                    <circle id="Oval-20" stroke="#000000" stroke-width="3" fill="#ECECEC" cx="50.5" cy="51.5" r="15.5"></circle>
                    <circle id="Oval-21" fill="#000000" cx="50.5" cy="51.5" r="5.5"></circle>
                    <circle id="Oval-19" stroke="#000000" stroke-width="16" cx="51" cy="51" r="51"></circle>
                    <circle id="Oval-19" stroke="#556F7C" stroke-width="11" cx="51" cy="51" r="51"></circle>
                    <path d="M10,15.7750148 C13.3256431,11.4942948 15.7931099,8.64137141 17.4024005,7.21624473 C19.0116911,5.79111806 22.0695007,4.71903648 26.5758292,4 L26.5758292,7.21624473 C22.5983231,7.75277679 19.9353475,8.64319768 18.5869024,9.88750739 C17.2384573,11.1318171 15.5298,13.0943196 13.4609306,15.7750148 L10,15.7750148 Z" id="Rectangle-80" fill="#F3EEEE"></path>
                </g>
                <g id="Wheel" transform="translate(538.000000, 112.000000)">
                    <g id="Rectangle-180">
                        <use fill="#D8D8D8" fill-rule="evenodd" xlink:href="#path-6"></use>
                        <path stroke="#000000" stroke-width="2" d="M1,47 L1,54 L96,54 L96,47 L1,47 Z"></path>
                    </g>
                    <g id="Rectangle-180" transform="translate(51.568979, 51.716968) rotate(-50.000000) translate(-51.568979, -51.716968) ">
                        <use fill="#D8D8D8" fill-rule="evenodd" xlink:href="#path-7"></use>
                        <rect stroke="#000000" stroke-width="2" x="6.40346733" y="48.2169683" width="90.3310228" height="7"></rect>
                    </g>
                    <g id="Rectangle-180" transform="translate(50.568979, 51.716968) scale(-1, 1) rotate(-47.000000) translate(-50.568979, -51.716968) ">
                        <use fill="#D8D8D8" fill-rule="evenodd" xlink:href="#path-8"></use>
                        <rect stroke="#000000" stroke-width="2" x="5.40346733" y="48.2169683" width="90.3310228" height="7"></rect>
                    </g>
                    <g id="Rectangle-180" transform="translate(50.692366, 50.900367) rotate(-90.000000) translate(-50.692366, -50.900367) ">
                        <use fill="#D8D8D8" fill-rule="evenodd" xlink:href="#path-9"></use>
                        <rect stroke="#000000" stroke-width="2" x="4.59273349" y="47.4003671" width="92.1992658" height="7"></rect>
                    </g>
                    <circle id="Oval-20" stroke="#000000" stroke-width="3" fill="#ECECEC" cx="50.5" cy="51.5" r="15.5"></circle>
                    <circle id="Oval-21" fill="#000000" cx="50.5" cy="51.5" r="5.5"></circle>
                    <circle id="Oval-19" stroke="#000000" stroke-width="16" cx="51" cy="51" r="51"></circle>
                    <circle id="Oval-19" stroke="#556F7C" stroke-width="11" cx="51" cy="51" r="51"></circle>
                    <path d="M10,15.7750148 C13.3256431,11.4942948 15.7931099,8.64137141 17.4024005,7.21624473 C19.0116911,5.79111806 22.0695007,4.71903648 26.5758292,4 L26.5758292,7.21624473 C22.5983231,7.75277679 19.9353475,8.64319768 18.5869024,9.88750739 C17.2384573,11.1318171 15.5298,13.0943196 13.4609306,15.7750148 L10,15.7750148 Z" id="Rectangle-80" fill="#F3EEEE"></path>
                </g>
                <path d="M599.789583,87.5858029 C582.187634,87.5338875 567.01355,90.0944102 554.267332,95.2673711 C541.521113,100.440332 531.794278,108.299478 525.086827,118.84481" id="Line-127" stroke="#FFFFFF" stroke-width="3" stroke-linecap="square"></path>
                <path d="M653.5,133.5 C662.242845,141.367046 670.077341,146.140102 677.003487,147.819168 C683.929633,149.498234 698.095137,150.058511 719.5,149.5" id="Line-126" stroke="#000000" stroke-width="3" stroke-linecap="square"></path>
                <path d="M1.5,165.5 C23.2381075,166.51435 37.3327167,168.33564 43.7838275,170.96387 C50.2349383,173.5921 54.1403291,179.104144 55.5,187.5" id="Line-125" stroke="#000000" stroke-width="3" stroke-linecap="square"></path>
                <path d="M2.00985415,155.80402 L1.5417873,166.015535 C1.52675547,166.343475 1.51923659,166.671716 1.51923659,167 C1.51923659,178.874122 11.1451145,188.5 23.0192366,188.5 L94.4063822,188.5 C93.1350603,176.77778 92.6446847,168.357032 92.9401713,163.194546 C93.2233427,158.24722 94.5223103,151.12846 96.8351417,141.808353 C82.1060617,146.884025 68.8548825,150.312664 57.0770819,152.092115 C44.8581308,153.938218 26.5096737,155.173787 2.00985936,155.80402 Z" id="Rectangle-177" stroke="#000000" stroke-width="3"></path>
                <path d="M648.5,85.5 C604.690401,73.2805563 569.327317,73.2805563 542.410749,85.5 C515.49418,97.7194437 498.033429,123.139215 490.028493,161.759315 L261.398638,157.372175 C250.277662,114.941449 225.136941,88.2650554 185.976476,77.3429946 C176.283254,74.6395036 147.583294,71.8465223 117.507879,85.5 C107.894497,89.8642323 94.0701859,101.046688 76.034945,119.047366 L17.9519083,138.083904" id="Line-116" stroke="#000000" stroke-width="3" stroke-linecap="square"></path>
                <path d="M258.5,171.5 L485.5,171.5" id="Line-117" stroke="#000000" stroke-width="3" stroke-linecap="square"></path>
                <g id="Rectangle-173">
                    <use fill="#637D93" fill-rule="evenodd" xlink:href="#path-10"></use>
                    <path stroke="#000000" stroke-width="3" d="M378.642042,17.5873405 C377.298771,17.6091334 375.975397,17.9155824 374.759275,18.486459 L292.875593,56.9246111 C292.400474,57.1476435 292.076489,57.6027924 292.021311,58.1247478 C291.93422,58.9485803 292.531468,59.687033 293.355297,59.7741279 C358.925506,66.705852 407.112581,69.4321128 437.882278,67.9573652 C468.647252,66.482844 514.708582,59.3667568 576.035685,46.6074471 C576.741411,46.4606185 577.349414,46.0163167 577.703687,45.3885447 C578.382271,44.1860936 577.957593,42.6612132 576.755142,41.982629 C557.699458,31.2288572 537.644624,24.3148682 516.582306,21.2363152 C492.439048,17.7074395 446.436565,16.4874624 378.642042,17.5873405 Z"></path>
                </g>
                <path d="M373.5,25.5 L360.5,60.5" id="Line-124" stroke="#FFFFFF" stroke-width="3" stroke-linecap="square"></path>
                <path d="M393.5,25.5 L380.5,60.5" id="Line-124" stroke="#FFFFFF" stroke-width="3" stroke-linecap="square"></path>
                <path d="M411.5,25.5 L398.5,60.5" id="Line-124" stroke="#FFFFFF" stroke-width="3" stroke-linecap="square"></path>
                <path d="M465.5,25.5 L452.5,60.5" id="Line-124" stroke="#FFFFFF" stroke-width="3" stroke-linecap="square"></path>
                <path d="M483.5,25.5 L470.5,60.5" id="Line-124" stroke="#FFFFFF" stroke-width="3" stroke-linecap="square"></path>
                <path d="M499.5,35.5 L491.5,57.5" id="Line-124" stroke="#FFFFFF" stroke-width="3" stroke-linecap="square"></path>
                <polygon id="Rectangle-175" fill="#CACACA" points="324.675882 43.6416538 328 48 323.459541 61.2845343 292.934338 58.4792422"></polygon>
                <path d="M535.5,25.5 L535.5,54.5" id="Line-122" stroke="#000000" stroke-width="3" stroke-linecap="square"></path>
                <path d="M449.5,17.5 C440.87791,42.4287459 435.247467,61.1382708 432.60867,73.6285746 C429.969874,86.1188784 426.376553,114.959896 421.828708,160.151628" id="Line-121" stroke="#000000" stroke-width="3" stroke-linecap="square"></path>
                <g id="Rectangle-174">
                    <use fill="#860000" fill-rule="evenodd" xlink:href="#path-11"></use>
                    <path stroke="#000000" stroke-width="3" d="M329.011594,40.3873042 L311.287551,61.4065284 L320.937511,62.649137 L329.678677,57.1278335 L330.17508,57.1664419 C336.524044,57.6602412 341.253758,56.6761289 344.406431,54.2919434 C346.576461,52.6508745 348.468612,50.1018834 350.063961,46.6236419 C350.112338,46.5181674 350.156618,46.4108612 350.1967,46.3019638 C351.055164,43.9696604 349.860382,41.3830296 347.528081,40.5245599 C345.164247,39.6544903 343.161152,39.1977004 341.533769,39.1425092 C338.732003,39.0474897 334.546987,39.4604302 329.011589,40.3873129 Z"></path>
                </g>
                <path d="M385.5,84.5 L406.5,84.5" id="Line-123" stroke="#000000" stroke-width="5" stroke-linecap="square"></path>
                <path d="M512.602185,80.9613176 L533.397815,78.0386824" id="Line-123" stroke="#000000" stroke-width="5" stroke-linecap="square"></path>
                <path d="M577.153087,47.0782972 C576.266143,51.6727497 573.88847,56.979984 570.020069,63 C566.151668,69.020016 560.311645,75.1866827 552.5,81.5" id="Line-120" stroke="#000000" stroke-width="3" stroke-linecap="square"></path>
                <path d="M193.454296,79.4369348 C274.921668,87.0345471 329.873286,90.9940079 358.309148,91.3153171 C378.78418,91.5466734 420.622675,91.9648816 477.00401,88.8161312 C491.618306,87.9999609 515.792854,85.8378422 549.527654,82.3297749" id="Line-119" stroke="#000000" stroke-width="3" stroke-linecap="square"></path>
                <path d="M271.5,52.5 C260.602738,62.4223742 253.799485,70.8222192 251.090239,77.6995352 C248.380993,84.5768511 247.314645,99.2528623 247.891195,121.727569" id="Line-118" stroke="#000000" stroke-width="3" stroke-linecap="square"></path>
                <g id="Rectangle-176">
                    <use fill="#FFFFFF" fill-rule="evenodd" xlink:href="#path-12"></use>
                    <path stroke="#000000" stroke-width="3" d="M64.4291321,92.1896491 C50.2874435,101.851194 40.4769354,109.344269 35.0261766,114.636649 C30.1674737,119.354176 24.3925534,126.578634 17.7186017,136.299158 L73.8724509,115.34624 L102.001411,91.0006756 L64.4291321,92.1896491 Z"></path>
                </g>
                <g id="Rectangle-178">
                    <use fill="#FFFFFF" fill-rule="evenodd" xlink:href="#path-13"></use>
                    <path stroke="#000000" stroke-width="2" d="M676.549059,94.0691294 L704.085027,124 L722.298888,124 C721.227619,117.907456 719.970868,113.026723 718.534726,109.365137 C717.050693,105.58145 714.172805,100.802138 709.902459,95.0473402 L676.549059,94.0691294 Z"></path>
                </g>
                <rect id="Rectangle-179" fill="#000000" x="708" y="106" width="12" height="6"></rect>
                <path d="M285.5,55.5 C303.181508,45.3934215 316.442601,38.1994786 325.283277,33.9181714 C334.123953,29.6368642 352.769519,21.3792504 381.219976,9.14533006 C416.319554,8.11361414 442.777893,8.11361414 460.594994,9.14533006 C478.412095,10.177046 500.047097,12.961936 525.5,17.5" id="Line-130" stroke="#FFFFFF" stroke-width="3" stroke-linecap="square"></path>
                <path d="M268.5,70.5 C333.049702,77.319875 382.864038,80.7298125 417.943007,80.7298125 C453.021976,80.7298125 498.741506,75.9737807 555.101597,66.461717" id="Line-129" stroke="#FFFFFF" stroke-width="3" stroke-linecap="square"></path>
                <path d="M668.5,134.5 C671.247768,137.922289 673.593345,140.240741 675.536731,141.455358 C677.480117,142.669974 680.467874,143.684855 684.5,144.5" id="Line-128" stroke="#FFFFFF" stroke-width="3" stroke-linecap="square"></path>
                <path d="M18.5,146.5 C29.7320733,147.203992 38.3987399,147.203992 44.5,146.5 C50.6012601,145.796008 59.2679267,143.796008 70.5,140.5" id="Line-133" stroke="#FFFFFF" stroke-width="3" stroke-linecap="square"></path>
                <path d="M99.5,115.5 C112.823325,102.789692 123.258509,94.8932406 130.805551,91.8106459 C138.352593,88.7280513 151.584076,86.957836 170.5,86.5" id="Line-132" stroke="#FFFFFF" stroke-width="3" stroke-linecap="square"></path>
                <path d="M112.5,78.5 C142.112797,71.0804338 164.612797,66.4588164 180,64.6351479 C195.387203,62.8114794 217.887203,62.0997634 247.5,62.5" id="Line-131" stroke="#FFFFFF" stroke-width="3" stroke-linecap="square"></path>
            </g>
        </g>
    </g>
</svg>