<?xml version="1.0" encoding="UTF-8"?>
<svg width="764px" height="385px" viewBox="0 0 764 385" version="1.1" xmlns="http://www.w3.org/2000/svg" xmlns:xlink="http://www.w3.org/1999/xlink">
    <!-- Generator: Sketch 48.2 (47327) - http://www.bohemiancoding.com/sketch -->
    <title>Car 10</title>
    <desc>Created with Sketch.</desc>
    <defs>
        <polygon id="path-1" points="59.7168354 99.253572 675 96 675 188 46 188"></polygon>
        <path d="M34.3815841,33.3610819 C48.2603338,43.5655583 55.4785948,48.6516099 56.0363673,48.6192368 C56.5941397,48.5868636 57.6811682,39.5514596 59.2974528,21.5130248 C63.0311752,21.2717947 65.7880571,21.2717947 67.5680984,21.5130248 C69.3481396,21.7542549 72.8753364,23.0240971 78.1496886,25.3225515 C76.2926294,41.5452382 75.3640998,50.2616906 75.3640998,51.4719088 C75.3640998,52.682127 83.3828597,50.7694378 99.4203795,45.7338412 C101.305288,51.720876 102.354158,55.6900197 102.566989,57.6412724 C102.779821,59.592525 102.633017,62.5386668 102.126577,66.4796978 C86.9059161,66.8799565 79.1192326,67.5640246 78.7665268,68.531902 C78.4138209,69.4997794 83.2086363,75.9787531 93.1509728,87.968823 C87.7641781,92.5592289 84.3496042,95.2590698 82.9072512,96.0683458 C81.4648981,96.8776219 80.0846567,97.4941811 78.7665268,97.9180236 C68.0534713,85.0012358 62.2914065,78.542842 61.4803323,78.542842 C60.6692581,78.542842 53.7909434,83.9302687 40.8453883,94.7051222 C38.0149956,93.0036551 36.0830575,91.675601 35.0495741,90.7209599 C34.0160906,89.7663189 31.4122465,86.5870723 27.2380418,81.1832202 C41.9062869,70.6950979 49.2285815,65.1830952 49.2049254,64.6472122 C49.1812693,64.1113293 40.8159128,59.9623972 24.1088561,52.2004159 C25.5650777,46.5390938 26.6081396,43.0500811 27.2380418,41.7333779 C27.8679439,40.4166748 30.2491247,37.6259094 34.3815841,33.3610819 Z" id="path-2"></path>
        <path d="M34.3815841,33.3610819 C48.2603338,43.5655583 55.4785948,48.6516099 56.0363673,48.6192368 C56.5941397,48.5868636 57.6811682,39.5514596 59.2974528,21.5130248 C63.0311752,21.2717947 65.7880571,21.2717947 67.5680984,21.5130248 C69.3481396,21.7542549 72.8753364,23.0240971 78.1496886,25.3225515 C76.2926294,41.5452382 75.3640998,50.2616906 75.3640998,51.4719088 C75.3640998,52.682127 83.3828597,50.7694378 99.4203795,45.7338412 C101.305288,51.720876 102.354158,55.6900197 102.566989,57.6412724 C102.779821,59.592525 102.633017,62.5386668 102.126577,66.4796978 C86.9059161,66.8799565 79.1192326,67.5640246 78.7665268,68.531902 C78.4138209,69.4997794 83.2086363,75.9787531 93.1509728,87.968823 C87.7641781,92.5592289 84.3496042,95.2590698 82.9072512,96.0683458 C81.4648981,96.8776219 80.0846567,97.4941811 78.7665268,97.9180236 C68.0534713,85.0012358 62.2914065,78.542842 61.4803323,78.542842 C60.6692581,78.542842 53.7909434,83.9302687 40.8453883,94.7051222 C38.0149956,93.0036551 36.0830575,91.675601 35.0495741,90.7209599 C34.0160906,89.7663189 31.4122465,86.5870723 27.2380418,81.1832202 C41.9062869,70.6950979 49.2285815,65.1830952 49.2049254,64.6472122 C49.1812693,64.1113293 40.8159128,59.9623972 24.1088561,52.2004159 C25.5650777,46.5390938 26.6081396,43.0500811 27.2380418,41.7333779 C27.8679439,40.4166748 30.2491247,37.6259094 34.3815841,33.3610819 Z" id="path-3"></path>
        <path d="M78.3912303,85.4411926 L250.365757,63.3874818 C253.13215,63.0327243 255.810954,62.1777671 258.271385,60.8643498 L362.516048,5.21689612 C365.457734,3.6465773 368.731084,2.79935927 372.065226,2.74534959 L525.353241,0.262240698 C528.93312,0.204250331 532.448963,1.21517217 535.451306,3.16577 L614.658128,54.6258035 C616.189728,55.6208719 617.928264,56.2531927 619.741258,56.4745828 L704.902763,66.8739058 C712.756448,67.8329425 718.729865,74.3882854 718.95678,82.2970545 L721.20371,160.610269 L656.863983,160.610269 C642.944648,124.012187 620.701548,105.802873 590.134684,105.982329 C554.753142,106.190051 530.254892,127.51066 516.639934,169.944156 L202.381013,169.944156 C193.286801,125.735807 169.63446,104.415198 131.423992,105.982329 C93.2135243,107.54946 68.8867476,129.799805 58.4436622,172.733365 L5.9841204,173.749923 L5.9841204,160.610269 C11.6416166,158.07219 15.423716,155.452686 17.3304186,152.751757 C18.8479334,150.60213 26.7354648,136.632703 40.9930127,110.843475 L40.9930133,110.843476 C48.700613,96.9018751 62.590297,87.4674765 78.3912303,85.4411926 Z" id="path-4"></path>
        <polygon id="path-5" points="438 19 500.012358 19 557.638909 72.7376821 438 74"></polygon>
        <polygon id="path-6" points="367.221184 20.5785717 417.89643 20.5785717 417.89643 73.3307739 282.294873 73.3307739"></polygon>
        <path d="M526.682217,10.5219336 L532.209267,2.02932935 L612.629479,54.2001164 L583.944137,57.268249 C580.122502,57.6770043 576.289765,56.603208 573.236771,54.2684269 L528.296848,19.9005643 C525.389551,17.6772057 524.685812,13.5895162 526.682217,10.5219336 Z" id="path-7"></path>
        <rect id="path-8" x="226" y="118" width="22" height="11"></rect>
        <polygon id="path-9" points="40.8608372 113.959786 65.9661318 113.959786 52.0661505 137 28.3959749 137"></polygon>
        <path d="M202,166 L517.965269,166 C516.817155,174.00577 516.180906,180.076908 516.056524,184.213414 C515.932141,188.34992 515.932141,192.945449 516.056524,198 L203.011588,198 C203.011588,190.228858 203.011588,184.396521 203.011588,180.50299 C203.011588,176.609459 202.674392,171.775129 202,166 Z" id="path-10"></path>
        <path d="M10,159 L54,159 C58.418278,159 62,162.581722 62,167 L62,191 C62,197.627417 56.627417,203 50,203 L10,203 C4.4771525,203 -2.87635993e-15,198.522847 -3.55271368e-15,193 L0,169 C-6.76353751e-16,163.477153 4.4771525,159 10,159 Z" id="path-11"></path>
        <path d="M651.870354,149 L694.634904,149 C708.035149,148.973577 715.541676,148.591192 717.154484,147.852842 C718.767293,147.114493 722.230702,144.595127 727.544711,140.294744 C728.450957,156.413718 728.021464,168.395187 726.256233,176.239151 C725.959368,177.558296 725.612475,178.813608 725.215554,180.005087 L725.215552,180.005086 C722.630384,187.765245 715.368926,193 707.189491,193 L668.247687,193 C662.724839,193 658.247687,188.522848 658.247687,183 C658.247687,182.944814 658.248144,182.889629 658.249057,182.83445 C658.377513,175.076154 658.294494,169.542399 658,166.233184 C657.589896,161.624866 655.546681,155.880471 651.870354,149 Z" id="path-12"></path>
        <path d="M693,92 L719.086992,92 L720,120 L708,120 C699.715729,120 693,113.284271 693,105 L693,92 Z" id="path-13"></path>
        <path d="M328.58584,53 L339.54537,53 C340.64994,53 341.54537,53.8954305 341.54537,55 C341.54537,55.1357246 341.531554,55.2710967 341.504136,55.4040231 L339.296006,66.1093815 C338.816814,68.4325795 336.771193,70.0993238 334.39909,70.0993238 L329.936672,70.0993238 C327.978259,70.0993238 326.087875,70.8176933 324.623714,72.1183142 L310.122285,85 L296.750436,85 C295.093582,85 293.750436,83.6568542 293.750436,82 C293.750436,81.8421794 293.762889,81.6846049 293.787681,81.5287437 L293.814524,81.3599797 C294.177751,79.0763967 295.405967,77.0202224 297.244465,75.6178635 L325.553438,54.0245083 C326.424671,53.3599543 327.490086,53 328.58584,53 Z" id="path-14"></path>
    </defs>
    <g id="Page-1" stroke="none" stroke-width="1" fill="none" fill-rule="evenodd">
        <g id="Car-10">
            <g transform="translate(13.000000, 77.000000)">
                <rect id="Rectangle-150" fill="#292929" x="718" y="130" width="6" height="16"></rect>
                <path d="M725.5,145.377885 C725.5,142.361897 725.5,139.296394 725.5,136.181377 C725.5,133.066359 723.612095,130.293485 719.836285,127.862753" id="Line-87" stroke="#000000" stroke-width="4" stroke-linecap="square"></path>
                <g id="Rectangle-159">
                    <use fill="#5C5E69" fill-rule="evenodd" xlink:href="#path-1"></use>
                    <path stroke="#000000" stroke-width="4" d="M61.4328578,101.244526 L48.3328727,186 L673,186 L673,98.0106038 L61.4328578,101.244526 Z"></path>
                </g>
                <g id="Wheel" transform="translate(525.000000, 114.000000)">
                    <circle id="Oval-12" fill="#000000" cx="62.5" cy="62.5" r="62.5"></circle>
                    <circle id="Oval-12" fill="#797F8F" cx="62" cy="62" r="57"></circle>
                    <circle id="Oval-12" stroke="#000000" stroke-width="5" fill="#494B53" cx="62.5" cy="61.5" r="38.5"></circle>
                    <g id="Rectangle-160">
                        <use fill="#F4F4FE" fill-rule="evenodd" xlink:href="#path-2"></use>
                        <path stroke="#000000" stroke-width="3" d="M34.5513047,35.3474342 C31.103404,38.9523681 29.0800012,41.3588957 28.5911733,42.3807072 C28.0632476,43.4842458 27.1410537,46.5195699 25.8744186,51.3671141 C33.6744159,54.99667 39.5749791,57.8036202 43.5796461,59.7897988 C49.9747765,62.9615658 50.6485856,63.3378522 50.703466,64.5810605 C50.7536885,65.718754 50.0239468,66.3234414 44.6330696,70.3815313 C41.1746049,72.9849593 36.0905723,76.6891419 29.3780914,81.4963269 C32.9350358,86.0732953 35.1989804,88.8169599 36.067372,89.6191036 C36.8986426,90.3869582 38.4553049,91.4795169 40.709488,92.8669711 C54.4524258,81.4395416 60.0927165,77.042842 61.4803323,77.042842 C63.0461099,77.042842 67.5386311,82.0458723 79.2524504,96.1546577 C80.187093,95.7927134 81.1609577,95.3281786 82.1732704,94.7601898 C83.3978635,94.0730946 86.397713,91.721651 91.0507319,87.7845009 C80.4994099,75.0263264 76.7014291,69.8178223 77.3571879,68.0183225 C78.0732238,66.0534132 84.1483794,65.4724336 100.793756,65.0149737 C101.15934,61.8197582 101.250571,59.4059279 101.075833,57.8039191 C100.893939,56.1363006 100.010416,52.7113771 98.4355159,47.6136224 C91.0987311,49.900056 85.5327331,51.4961618 81.7261964,52.4041228 C79.6559604,52.8979296 78.0898612,53.1926993 76.9985211,53.2883044 C76.3611968,53.3441362 75.8525842,53.3375181 75.425745,53.2460707 C74.5650853,53.0616802 73.8640998,52.4883183 73.8640998,51.4719088 C73.8640998,50.1982685 74.7400214,41.9467405 76.5329386,26.257794 C71.9499511,24.293273 68.8531574,23.2008867 67.3666606,22.9994375 C65.9085213,22.8018314 63.6690381,22.7778823 60.6755951,22.9346935 C59.9172477,31.3271502 59.2786846,37.6798469 58.7592289,41.9975734 C58.4842054,44.283575 58.2418662,46.0057504 58.0298482,47.1746045 C57.9177311,47.7927052 57.8122197,48.2682617 57.7061862,48.6190704 C57.6365002,48.8496246 57.5627677,49.0427007 57.4676087,49.219276 C57.20158,49.7129139 56.8420579,50.0749988 56.1232812,50.1167166 C54.9815197,50.1829846 49.7928318,46.5463995 34.5513047,35.3474342 Z"></path>
                    </g>
                    <circle id="Oval-13" fill="#000000" cx="64" cy="63" r="8"></circle>
                </g>
                <g id="Wheel" transform="translate(71.000000, 114.000000)">
                    <circle id="Oval-12" fill="#000000" cx="62.5" cy="62.5" r="62.5"></circle>
                    <circle id="Oval-12" fill="#797F8F" cx="62" cy="62" r="57"></circle>
                    <circle id="Oval-12" stroke="#000000" stroke-width="5" fill="#494B53" cx="62.5" cy="61.5" r="38.5"></circle>
                    <g id="Rectangle-160">
                        <use fill="#F4F4FE" fill-rule="evenodd" xlink:href="#path-3"></use>
                        <path stroke="#000000" stroke-width="3" d="M34.5513047,35.3474342 C31.103404,38.9523681 29.0800012,41.3588957 28.5911733,42.3807072 C28.0632476,43.4842458 27.1410537,46.5195699 25.8744186,51.3671141 C33.6744159,54.99667 39.5749791,57.8036202 43.5796461,59.7897988 C49.9747765,62.9615658 50.6485856,63.3378522 50.703466,64.5810605 C50.7536885,65.718754 50.0239468,66.3234414 44.6330696,70.3815313 C41.1746049,72.9849593 36.0905723,76.6891419 29.3780914,81.4963269 C32.9350358,86.0732953 35.1989804,88.8169599 36.067372,89.6191036 C36.8986426,90.3869582 38.4553049,91.4795169 40.709488,92.8669711 C54.4524258,81.4395416 60.0927165,77.042842 61.4803323,77.042842 C63.0461099,77.042842 67.5386311,82.0458723 79.2524504,96.1546577 C80.187093,95.7927134 81.1609577,95.3281786 82.1732704,94.7601898 C83.3978635,94.0730946 86.397713,91.721651 91.0507319,87.7845009 C80.4994099,75.0263264 76.7014291,69.8178223 77.3571879,68.0183225 C78.0732238,66.0534132 84.1483794,65.4724336 100.793756,65.0149737 C101.15934,61.8197582 101.250571,59.4059279 101.075833,57.8039191 C100.893939,56.1363006 100.010416,52.7113771 98.4355159,47.6136224 C91.0987311,49.900056 85.5327331,51.4961618 81.7261964,52.4041228 C79.6559604,52.8979296 78.0898612,53.1926993 76.9985211,53.2883044 C76.3611968,53.3441362 75.8525842,53.3375181 75.425745,53.2460707 C74.5650853,53.0616802 73.8640998,52.4883183 73.8640998,51.4719088 C73.8640998,50.1982685 74.7400214,41.9467405 76.5329386,26.257794 C71.9499511,24.293273 68.8531574,23.2008867 67.3666606,22.9994375 C65.9085213,22.8018314 63.6690381,22.7778823 60.6755951,22.9346935 C59.9172477,31.3271502 59.2786846,37.6798469 58.7592289,41.9975734 C58.4842054,44.283575 58.2418662,46.0057504 58.0298482,47.1746045 C57.9177311,47.7927052 57.8122197,48.2682617 57.7061862,48.6190704 C57.6365002,48.8496246 57.5627677,49.0427007 57.4676087,49.219276 C57.20158,49.7129139 56.8420579,50.0749988 56.1232812,50.1167166 C54.9815197,50.1829846 49.7928318,46.5463995 34.5513047,35.3474342 Z"></path>
                    </g>
                    <circle id="Oval-13" fill="#000000" cx="64" cy="63" r="8"></circle>
                </g>
                <g id="Rectangle-146">
                    <use fill="#5D7B89" fill-rule="evenodd" xlink:href="#path-4"></use>
                    <path stroke="#000000" stroke-width="4" d="M7.9841204,161.891484 L7.9841204,171.710792 L56.8721911,170.763442 C67.720947,127.977295 92.6418765,105.571224 131.342035,103.984009 C170.130076,102.393189 194.476206,123.905224 204.003036,167.944125 L515.187543,167.944156 C529.141402,125.661335 554.193549,104.193302 590.122942,103.982363 C621.23575,103.799702 644.005715,122.143303 658.236737,158.610269 L719.145504,158.610269 L716.957603,82.3544141 C716.759052,75.4342411 711.532312,69.6983161 704.660337,68.859159 L619.498833,58.4598359 C617.383673,58.2015475 615.355381,57.4638399 613.568514,56.3029268 L534.361692,4.84289328 C531.692943,3.10902854 528.567749,2.21043135 525.385635,2.26197834 L372.097619,4.74508723 C369.081015,4.79395314 366.119413,5.56048374 363.457887,6.98124838 L259.213224,62.6287021 C256.538842,64.0563296 253.6271,64.9856309 250.62015,65.3712369 L78.6456235,87.4249477 C63.4767278,89.3701802 50.142631,98.4272027 42.7433346,111.811139 C28.3897041,137.774162 20.5497105,151.659396 18.9643074,153.90519 C16.9555854,156.750634 13.2967673,159.383038 7.9841204,161.891484 Z"></path>
                </g>
                <g id="Rectangle-156">
                    <use fill="#8AC3BD" fill-rule="evenodd" xlink:href="#path-5"></use>
                    <path stroke="#000000" stroke-width="1" d="M438.5,19.5 L438.5,73.4946966 L556.383758,72.2508974 L499.815403,19.5 L438.5,19.5 Z"></path>
                </g>
                <g id="Rectangle-155">
                    <use fill="#8AC3BD" fill-rule="evenodd" xlink:href="#path-6"></use>
                    <path stroke="#000000" stroke-width="1" d="M367.363832,21.0785717 L284.047432,72.8307739 L417.39643,72.8307739 L417.39643,21.0785717 L367.363832,21.0785717 Z"></path>
                </g>
                <path d="M350.5,67.5 L364.5,28.5" id="Line-102" stroke="#FFFFFF" stroke-width="3" stroke-linecap="square"></path>
                <path d="M368.5,67.5 L382.5,28.5" id="Line-102" stroke="#FFFFFF" stroke-width="3" stroke-linecap="square"></path>
                <path d="M389.5,67.5 L403.5,28.5" id="Line-102" stroke="#FFFFFF" stroke-width="3" stroke-linecap="square"></path>
                <path d="M450.5,67.5 L464.5,28.5" id="Line-102" stroke="#FFFFFF" stroke-width="3" stroke-linecap="square"></path>
                <path d="M469.5,67.5 L483.5,28.5" id="Line-102" stroke="#FFFFFF" stroke-width="3" stroke-linecap="square"></path>
                <path d="M489.5,67.5 L503.5,28.5" id="Line-102" stroke="#FFFFFF" stroke-width="3" stroke-linecap="square"></path>
                <g id="Rectangle-158">
                    <use fill="#8AC3BD" fill-rule="evenodd" xlink:href="#path-7"></use>
                    <path stroke="#000000" stroke-width="3" d="M608.267155,53.1581471 L532.649468,4.10288932 L527.939419,11.3401296 C526.370815,13.750373 526.923752,16.962129 529.208057,18.7090537 L574.14798,53.0769162 C576.895675,55.1782192 580.345138,56.1446359 583.78461,55.7767561 L608.267155,53.1581471 Z"></path>
                </g>
                <path d="M371.5,13.5 L489.5,10.5" id="Line-103" stroke="#FFFEFE" stroke-width="5" stroke-linecap="square"></path>
                <path d="M357.99546,10.5693061 L366.067711,22.0660708 L281.081152,74.2443571 C269.893342,72.9713544 263.088475,71.8767659 260.666551,70.9605918 C258.244628,70.0444177 255.471846,68.3799065 252.348205,65.9670583 L357.99546,10.5693061 Z" id="Rectangle-157" fill="#324543"></path>
                <path d="M280,63 L349.5,21.5" id="Line-101" stroke="#FFFFFF" stroke-width="8" stroke-linecap="square"></path>
                <g id="Rectangle-154">
                    <use fill="#6F6D6E" fill-rule="evenodd" xlink:href="#path-8"></use>
                    <rect stroke="#000000" stroke-width="2" x="227" y="119" width="20" height="9"></rect>
                </g>
                <path d="M96.5,100.5 C108.487378,96.9354287 120.620459,94.8993707 132.899243,94.3918259 C145.178027,93.8842811 156.044946,95.9203392 165.5,100.5" id="Line-99" stroke="#000000" stroke-width="3" stroke-linecap="square"></path>
                <g id="Rectangle-153">
                    <use fill="#F3F3F3" fill-rule="evenodd" xlink:href="#path-9"></use>
                    <path stroke="#000000" stroke-width="2" d="M41.4567961,114.959786 L30.073943,136 L51.5015551,136 L64.194952,114.959786 L41.4567961,114.959786 Z"></path>
                </g>
                <path d="M61.04428,102.294257 C67.7715045,97.5704123 73.9611599,94.7898168 79.613246,93.9524707 C85.2653321,93.1151246 142.381138,86.4737969 250.960663,74.0284877" id="Line-100" stroke="#FFFFFF" stroke-width="3" stroke-linecap="square"></path>
                <path d="M271.201127,73.3924995 C264.067042,91.2126594 259.917117,106.730576 258.751352,119.94625 C257.585587,133.161923 258.168469,148.67984 260.5,166.5" id="Line-98" stroke="#000000" stroke-width="3" stroke-linecap="square"></path>
                <g id="Rectangle-147">
                    <use fill="#A4A2A8" fill-rule="evenodd" xlink:href="#path-10"></use>
                    <path stroke="#000000" stroke-width="4" d="M204.235437,168 C204.752424,172.874604 205.011588,177.040242 205.011588,180.50299 C205.011588,186.858746 205.011588,187.282429 205.011588,196 L514.013015,196 C513.934207,191.709626 513.948947,187.760954 514.057427,184.153302 C514.172248,180.334783 514.708314,174.956757 515.664614,168 L204.235437,168 Z"></path>
                </g>
                <g id="Rectangle-148">
                    <use fill="#A4A2A8" fill-rule="evenodd" xlink:href="#path-11"></use>
                    <path stroke="#000000" stroke-width="4" d="M10,161 C5.581722,161 2,164.581722 2,169 L2,193 C2,197.418278 5.581722,201 10,201 L50,201 C55.5228475,201 60,196.522847 60,191 L60,167 C60,163.686292 57.3137085,161 54,161 L10,161 Z"></path>
                </g>
                <g id="Rectangle-149">
                    <use fill="#A4A2A8" fill-rule="evenodd" xlink:href="#path-12"></use>
                    <path stroke="#000000" stroke-width="4" d="M655.14238,151 C657.994164,156.824439 659.616277,161.832487 659.992127,166.055901 C660.294452,169.453109 660.378324,175.04373 660.248783,182.86756 C660.247869,182.933777 660.247869,182.933777 660.247687,183 C660.247687,187.418278 663.829409,191 668.247687,191 L707.189491,191 C714.507932,191 721.005027,186.316272 723.318073,179.372973 C723.69347,178.246107 724.022577,177.055157 724.305032,175.800046 C725.878638,168.807583 726.365437,158.287857 725.743721,144.28957 C721.99324,147.229876 719.447129,149.002884 717.986997,149.671337 C715.966915,150.596137 708.57843,150.97251 694.634904,151 L655.14238,151 Z"></path>
                </g>
                <path d="M558.5,111.5 L558.5,79.2229191 C558.5,75.6455202 557.025798,72.2262219 554.424587,69.7703136 L506.103138,24.1480814 C502.730967,20.9642789 498.26006,19.2048996 493.622483,19.2367284 L373.438569,20.0615787 C369.378831,20.0894416 365.405975,21.2401275 361.959768,23.3862643 L283.470905,72.265453" id="Line-90" stroke="#000000" stroke-width="3" stroke-linecap="square"></path>
                <path d="M204.5,134.5 L248.5,134.5" id="Line-96" stroke="#020202" stroke-width="3" stroke-linecap="square"></path>
                <path d="M267.5,134.5 L412.5,134.5" id="Line-96" stroke="#020202" stroke-width="3" stroke-linecap="square"></path>
                <path d="M437.5,134.5 L507.5,134.5" id="Line-96" stroke="#020202" stroke-width="3" stroke-linecap="square"></path>
                <path d="M395.5,86.5 L414.5,86.5" id="Line-95" stroke="#000000" stroke-width="7" stroke-linecap="square"></path>
                <path d="M525.5,86.5 L544.5,86.5" id="Line-95" stroke="#000000" stroke-width="7" stroke-linecap="square"></path>
                <path d="M364.5,20.5 L359.5,10.5" id="Line-94" stroke="#000000" stroke-width="6" stroke-linecap="square"></path>
                <path d="M430.897909,74.2075576 C430.827667,101.367811 430.070043,119.850631 428.625039,129.656019 C427.180034,139.461406 423.471688,152.076066 417.5,167.5" id="Line-93" stroke="#000000" stroke-width="3" stroke-linecap="square"></path>
                <path d="M251.075775,66.3622873 C260.254621,70.8412409 266.855438,73.1410595 270.878226,73.2617432 C274.901013,73.3824268 369.722407,73.3824268 555.342407,73.2617432" id="Line-92" stroke="#000000" stroke-width="3" stroke-linecap="square"></path>
                <path d="M427.5,20.5 L427.5,72.5" id="Line-91" stroke="#000000" stroke-width="3" stroke-linecap="square"></path>
                <path d="M568.5,96.5 C582.165693,95.2598462 591.256624,94.6960611 595.772793,94.8086447 C600.288963,94.9212283 608.531365,96.4850134 620.5,99.5" id="Line-89" stroke="#000000" stroke-width="3" stroke-linecap="square"></path>
                <g id="Rectangle-151">
                    <use fill="#CD7475" fill-rule="evenodd" xlink:href="#path-13"></use>
                    <path stroke="#000000" stroke-width="3" d="M694.5,93.5 L694.5,105 C694.5,112.455844 700.544156,118.5 708,118.5 L718.450292,118.5 L717.635106,93.5 L694.5,93.5 Z"></path>
                </g>
                <path d="M715.5,99.5 L696.5,99.5" id="Line-88" stroke="#000000" stroke-width="3" stroke-linecap="square"></path>
                <g id="Rectangle-152">
                    <use fill="#6C7D8A" fill-rule="evenodd" xlink:href="#path-14"></use>
                    <path stroke="#000000" stroke-width="2" d="M309.742272,84 L323.959594,71.370688 C325.606775,69.9074895 327.733457,69.0993238 329.936672,69.0993238 L334.39909,69.0993238 C336.296773,69.0993238 337.933269,67.7659283 338.316623,65.9073699 L340.524753,55.2020115 C340.538462,55.1355483 340.54537,55.0678623 340.54537,55 C340.54537,54.4477153 340.097655,54 339.54537,54 L328.58584,54 C327.709237,54 326.856905,54.2879635 326.159918,54.8196066 L297.850945,76.4129618 C296.216725,77.659503 295.124978,79.4872136 294.802109,81.5170651 L294.775266,81.6858292 C294.758738,81.7897366 294.750436,81.8947863 294.750436,82 C294.750436,83.1045695 295.645866,84 296.750436,84 L309.742272,84 Z"></path>
                </g>
                <polyline id="Line-97" stroke="#FFFFFF" stroke-width="2" stroke-linecap="square" points="323.5 63.9843052 323.5 62 330.5 62 330.5 60.0969273"></polyline>
                <path d="M551,137.775015 C554.325643,133.494295 556.79311,130.641371 558.402401,129.216245 C560.011691,127.791118 563.069501,126.719036 567.575829,126 L567.575829,129.216245 C563.598323,129.752777 560.935347,130.643198 559.586902,131.887507 C558.238457,133.131817 556.5298,135.09432 554.460931,137.775015 L551,137.775015 Z" id="Rectangle-80" fill="#F3EEEE"></path>
                <path d="M97,137.775015 C100.325643,133.494295 102.79311,130.641371 104.402401,129.216245 C106.011691,127.791118 109.069501,126.719036 113.575829,126 L113.575829,129.216245 C109.598323,129.752777 106.935347,130.643198 105.586902,131.887507 C104.238457,133.131817 102.5298,135.09432 100.460931,137.775015 L97,137.775015 Z" id="Rectangle-80" fill="#F3EEEE"></path>
            </g>
        </g>
    </g>
</svg>