<?xml version="1.0" encoding="UTF-8"?>
<svg width="595px" height="385px" viewBox="0 0 595 385" version="1.1" xmlns="http://www.w3.org/2000/svg" xmlns:xlink="http://www.w3.org/1999/xlink">
    <!-- Generator: Sketch 48.2 (47327) - http://www.bohemiancoding.com/sketch -->
    <title>Car 2</title>
    <desc>Created with Sketch.</desc>
    <defs>
        <rect id="path-1" x="18" y="115" width="134" height="16"></rect>
        <rect id="path-2" x="32" y="53" width="105" height="67"></rect>
        <polygon id="path-3" points="23.440627 8 48.1131392 8 40.6911621 120 15.8693082 120"></polygon>
        <polygon id="path-4" points="20.4635153 58.6290359 45.1969384 58.6290359 40.6911621 119 15.8693082 119"></polygon>
        <path d="M42,15 L145.436572,15.9217869 C153.276895,14.7565289 160.043665,12.753778 165.736881,9.91353408 C171.430098,7.07329017 177.584594,4.1290896 184.20037,1.08093235 L189.891127,1.08093235 L172,131 L135.468236,131 C132.27448,107.403415 123.261667,89.7183707 108.429797,77.9448683 C93.5979262,66.1713659 71.4546606,61.3567214 42,63.5009349 L42,15 Z" id="path-5"></path>
        <path d="M50.8502247,30 L71.5327008,30 C76.5803467,32.4601476 79.1957106,36.7139703 79.3787926,42.7614681 C79.5618746,48.8089659 76.8366615,53.4389793 71.2031532,56.6515082 L50.8502247,56.9617201 L50.8502247,30 Z" id="path-6"></path>
        <rect id="path-7" x="352" y="119" width="134" height="16"></rect>
        <path d="M140,130 L364,130 C365.441671,135.318713 365.441671,139.008775 364,141.070186 C362.558329,143.131596 360.617222,144.760247 358.176679,145.95614 L149.023326,145.95614 C146.128362,145.95614 143.762226,144.327489 141.924917,141.070186 C140.087608,137.812882 139.445969,134.122821 140,130 Z" id="path-8"></path>
        <rect id="path-9" x="352" y="50" width="106" height="73"></rect>
        <path d="M183.952172,0.793877428 L202.077094,0.793877428 C202.840332,8.9490052 204.625455,13.0891229 207.432463,13.2142305 C210.23947,13.3393382 301.345092,13.3393382 480.749329,13.2142305 C482.540265,19.2533274 481.377039,27.2674235 477.259652,37.2565186 C473.142264,47.2456138 468.451437,54.0817721 463.18717,57.7649935 C439.682032,55.2554597 419.375928,59.3774245 402.268859,70.1308878 C389.045591,78.4430029 375.323658,90.4990659 367.027691,110.364665 C365.403287,114.254477 364.498391,121.265125 364.313004,131.39661 L161.128694,131.39661 C162.619401,115.449206 163.826309,104.878305 164.749418,99.6839078 C169.040163,75.5395931 173.12809,64.782022 175.277737,55.3235906 C178.121094,42.8128347 181.012573,24.6362637 183.952172,0.793877428 Z" id="path-10"></path>
        <rect id="path-11" x="30" y="0" width="13" height="10"></rect>
        <path d="M39.3138993,0.350150101 L47,0.350150101 C49.209139,0.350150101 51,2.1410111 51,4.3501501 L51,11.9376743 C48.5100529,14.8489908 46.7493108,17.3413594 45.7177739,19.4147804 C44.686237,21.4882013 43.4516142,25.0166078 42.0139056,30 L0.0960551418,30 C1.50188323,25.5487909 3.26276357,22.737134 5.37869618,21.5650294 C10.3261029,18.8244516 17.6111816,23.2031506 22.2349017,17.978214 C26.5120507,13.1449128 30.5934265,8.08454977 34.479029,2.79712503 L34.4790242,2.79712149 C35.6095653,1.25871115 37.4047556,0.350150101 39.3138993,0.350150101 Z" id="path-12"></path>
        <path d="M138.313899,0.350150101 L146,0.350150101 C148.209139,0.350150101 150,2.1410111 150,4.3501501 L150,11.9376743 C147.510053,14.8489908 145.749311,17.3413594 144.717774,19.4147804 C143.686237,21.4882013 142.451614,25.0166078 141.013906,30 L99.0960551,30 C100.501883,25.5487909 102.262764,22.737134 104.378696,21.5650294 C109.326103,18.8244516 116.611182,23.2031506 121.234902,17.978214 C125.512051,13.1449128 129.593426,8.08454977 133.479029,2.79712503 L133.479024,2.79712149 C134.609565,1.25871115 136.404756,0.350150101 138.313899,0.350150101 Z" id="path-13"></path>
        <path d="M104.5,0 C119.234256,2.17610946 132.701955,3.26416418 144.903097,3.26416418 C157.104239,3.26416418 175.493348,2.17610946 200.070426,0 C222.478406,2.17610946 239.295881,3.26416418 250.52285,3.26416418 C260.386308,3.26416418 274.560816,2.42434848 293.046375,0.744717069 L293.046375,0.74471708 C297.446527,0.344911313 301.337661,3.58783251 301.737467,7.9879843 C301.752362,8.15191831 301.762194,8.31627301 301.766949,8.48081365 C301.890662,12.7619275 301.621609,17.2683229 300.95979,22 C299.84461,29.9729744 295.013496,54.4669755 286.466448,95.4820031 L278.244956,22 L8.52651283e-14,22 L0,13.3098959 L104.5,0 Z" id="path-14"></path>
    </defs>
    <g id="Page-1" stroke="none" stroke-width="1" fill="none" fill-rule="evenodd">
        <g id="Car-2">
            <g transform="translate(39.000000, 57.000000)">
                <g id="Body" transform="translate(0.000000, 72.000000)">
                    <path d="M481,50 L481,57.5" id="Line-17" stroke="#000000" stroke-width="6" stroke-linecap="square"></path>
                    <path d="M457.5,57.5 L493,57.5" id="Line-17" stroke="#000000" stroke-width="6" stroke-linecap="square"></path>
                    <g id="Rectangle-41">
                        <use fill="#DFDFDF" fill-rule="evenodd" xlink:href="#path-1"></use>
                        <rect stroke="#000000" stroke-width="4" x="20" y="117" width="130" height="12"></rect>
                    </g>
                    <g id="Rectangle-50">
                        <use fill="#3B4E6C" fill-rule="evenodd" xlink:href="#path-2"></use>
                        <rect stroke="#000000" stroke-width="4" x="34" y="55" width="101" height="63"></rect>
                    </g>
                    <g id="Rectangle-49">
                        <use fill="#E9E9E9" fill-rule="evenodd" xlink:href="#path-3"></use>
                        <path stroke="#000000" stroke-width="4" d="M25.3099896,10 L18.009075,118 L38.8193109,118 L45.9762173,10 L25.3099896,10 Z"></path>
                    </g>
                    <g id="Rectangle-49">
                        <use fill="#ADADAD" fill-rule="evenodd" xlink:href="#path-4"></use>
                        <path stroke="#000000" stroke-width="4" d="M22.3170989,60.6290359 L18.0272902,117 L38.8348692,117 L43.0421061,60.6290359 L22.3170989,60.6290359 Z"></path>
                    </g>
                    <path d="M0,71 C1.9152963,66.2785047 5.98876409,63.1936406 12.2204034,61.7454075 C18.4520426,60.2971744 29.6159208,60.0487052 45.7120378,61" id="Line-16" stroke="#000000" stroke-width="4" stroke-linecap="square"></path>
                    <g id="Rectangle-43">
                        <use fill="#4B6288" fill-rule="evenodd" xlink:href="#path-5"></use>
                        <path stroke="#000000" stroke-width="4" d="M44,17.0179026 L44,61.361442 C72.8499359,59.5695475 94.7598095,64.5401472 109.673253,76.3784024 C124.569986,88.2033918 133.741203,105.779518 137.203918,128.99999 L170.256545,129 L187.596832,3.08093235 L184.63924,3.08093235 C178.19274,6.05536955 172.189493,8.92951058 166.629708,11.703188 C160.736519,14.6431945 153.769014,16.7053567 145.73059,17.9000572 L145.575518,17.9231045 L44,17.0179026 Z"></path>
                    </g>
                    <rect id="Rectangle-45" fill="#000000" x="82" y="47" width="10" height="6"></rect>
                    <rect id="Rectangle-45" fill="#000000" x="104" y="47" width="10" height="6"></rect>
                    <rect id="Rectangle-45" fill="#000000" x="127" y="47" width="10" height="6"></rect>
                    <rect id="Rectangle-44" stroke="#020202" stroke-width="2" x="57" y="18" width="85" height="30"></rect>
                    <g id="Rectangle-46">
                        <use fill="#DBDBDB" fill-rule="evenodd" xlink:href="#path-6"></use>
                        <path stroke="#000000" stroke-width="3" d="M52.3502247,31.5 L52.3502247,55.4386834 L70.7881206,55.1576597 C75.7242246,52.228051 78.0418346,48.1697136 77.8794795,42.8068584 C77.7166343,37.4278166 75.5126894,33.7280051 71.1784306,31.5 L52.3502247,31.5 Z"></path>
                    </g>
                    <path d="M63.5,31.5 L63.5,54.5" id="Line-15" stroke="#000000" stroke-width="2" stroke-linecap="square"></path>
                    <path d="M148,32 C153.352745,30.765642 156.852745,29.8680644 158.5,29.3072671 C160.147255,28.7464699 163.647255,26.6811494 169,23.1113057 L169,30.3765384 C164.917145,32.3965105 161.848707,33.7618045 159.794688,34.4724202 C157.740668,35.183036 153.809105,36.2394863 148,37.6417712 L148,32 Z" id="Rectangle-48" fill="#F6EFEF"></path>
                    <rect id="Rectangle-47" fill="#EFEFEF" x="81" y="32" width="56" height="6"></rect>
                    <g id="Rectangle-41">
                        <use fill="#DFDFDF" fill-rule="evenodd" xlink:href="#path-7"></use>
                        <rect stroke="#000000" stroke-width="4" x="354" y="121" width="130" height="12"></rect>
                    </g>
                    <g id="Rectangle-42">
                        <use fill="#FFFFFF" fill-rule="evenodd" xlink:href="#path-8"></use>
                        <path stroke="#000000" stroke-width="2" d="M140.892405,131 C140.561368,134.560813 141.197365,137.744885 142.795912,140.578894 C144.467828,143.542978 146.520898,144.95614 149.023326,144.95614 L357.94137,144.95614 C360.136262,143.843901 361.878091,142.359389 363.180522,140.497074 C364.345188,138.831748 364.402783,135.654149 363.228178,131 L140.892405,131 Z"></path>
                    </g>
                    <g id="Rectangle-40">
                        <use fill="#41526E" fill-rule="evenodd" xlink:href="#path-9"></use>
                        <rect stroke="#000000" stroke-width="4" x="354" y="52" width="102" height="69"></rect>
                    </g>
                    <rect id="Rectangle-39" fill="#405B7A" x="164" y="109" width="200" height="21"></rect>
                    <path d="M166.5,109.5 L363.5,109.5" id="Line-14" stroke="#000000" stroke-width="3" stroke-linecap="square"></path>
                    <g id="Rectangle-35">
                        <use fill="#6E8EC5" fill-rule="evenodd" xlink:href="#path-10"></use>
                        <path stroke="#000000" stroke-width="4" d="M185.719543,2.79387743 C182.847198,25.8365496 180.018609,43.4881804 177.228002,55.7668333 C176.503338,58.9553513 172.797839,72.3275514 172.749672,72.5091873 C170.487627,81.0393619 168.588035,89.5142147 166.718565,100.03385 C165.850756,104.917075 164.716996,114.720695 163.325785,129.39661 L362.359222,129.39661 C362.626311,120.076147 363.546507,113.51069 365.182152,109.593959 C372.673189,91.6558534 384.699047,78.8129136 401.204484,68.4376347 C418.521668,57.5520935 439.020652,53.3120018 462.631205,55.6964838 C467.301692,52.1656524 471.586467,45.7719174 475.410571,36.4943494 C479.03796,27.6940278 480.265686,20.5925727 479.186034,15.2153196 C300.345803,15.3396678 210.19404,15.3392988 207.343412,15.212247 C203.351326,15.0343207 201.240001,10.7587046 200.279108,2.79387743 L185.719543,2.79387743 Z"></path>
                    </g>
                    <g id="Rectangle-51">
                        <use fill="#EFEFEF" fill-rule="evenodd" xlink:href="#path-11"></use>
                        <rect stroke="#000000" stroke-width="2" x="31" y="1" width="11" height="8"></rect>
                    </g>
                </g>
                <g id="Seats" transform="translate(277.000000, 56.000000)">
                    <g id="Rectangle-38">
                        <use fill="#55381F" fill-rule="evenodd" xlink:href="#path-12"></use>
                        <path stroke="#000000" stroke-width="1" d="M0.784858639,29.5 L41.6381375,29.5 C43.0390316,24.6799863 44.2472314,21.2480938 45.2701144,19.1920676 C46.3058321,17.1102432 48.0488222,14.6331598 50.5,11.7533568 L50.5,4.3501501 C50.5,2.41715348 48.9329966,0.850150101 47,0.850150101 L39.3138993,0.850150101 C37.5638495,0.850150101 35.9182595,1.6829987 34.8819349,3.09321095 C30.9874181,8.39276588 26.8965488,13.4648996 22.6093409,18.3095677 C20.393697,20.813309 17.9152249,21.3786746 13.3200893,21.1802243 C13.1072795,21.1710336 12.9317652,21.1628108 12.5586074,21.144855 C8.81368349,20.964655 7.26586251,21.0912363 5.62097827,22.0024073 C3.74244377,23.043007 2.11745319,25.5379089 0.784858639,29.5 Z"></path>
                    </g>
                    <g id="Rectangle-38">
                        <use fill="#55381F" fill-rule="evenodd" xlink:href="#path-13"></use>
                        <path stroke="#000000" stroke-width="1" d="M99.7848586,29.5 L140.638137,29.5 C142.039032,24.6799863 143.247231,21.2480938 144.270114,19.1920676 C145.305832,17.1102432 147.048822,14.6331598 149.5,11.7533568 L149.5,4.3501501 C149.5,2.41715348 147.932997,0.850150101 146,0.850150101 L138.313899,0.850150101 C136.56385,0.850150101 134.918259,1.6829987 133.881935,3.09321095 C129.987418,8.39276588 125.896549,13.4648996 121.609341,18.3095677 C119.393697,20.813309 116.915225,21.3786746 112.320089,21.1802243 C112.107279,21.1710336 111.931765,21.1628108 111.558607,21.144855 C107.813683,20.964655 106.265863,21.0912363 104.620978,22.0024073 C102.742444,23.043007 101.117453,25.5379089 99.7848586,29.5 Z"></path>
                    </g>
                </g>
                <g id="Roof" transform="translate(193.000000, 0.000000)">
                    <path d="M2.5,20.5 L2.5,73.5" id="Line-12" stroke="#000000" stroke-width="4" stroke-linecap="square"></path>
                    <path d="M100.5,20.5 L100.5,84" id="Line-12" stroke="#000000" stroke-width="6" stroke-linecap="square"></path>
                    <path d="M199.5,20.5 L199.5,84" id="Line-12" stroke="#000000" stroke-width="6" stroke-linecap="square"></path>
                    <path d="M279,21 L249.5,86" id="Line-12" stroke="#000000" stroke-width="6" stroke-linecap="square"></path>
                    <g id="Rectangle-33">
                        <use fill="#687996" fill-rule="evenodd" xlink:href="#path-14"></use>
                        <path stroke="#000000" stroke-width="5" d="M104.475415,2.52332784 L2.5,15.5116738 L2.5,19.5 L280.480844,19.5 L287.206141,79.6093205 C293.76146,47.8520142 297.525856,28.5031715 298.483891,21.6536962 C299.126824,17.0570481 299.387546,12.6901961 299.267992,8.55302709 C299.264723,8.4399054 299.257964,8.32691155 299.247723,8.21420691 C298.972857,5.18910256 296.297702,2.95959424 293.272598,3.2344607 C274.718269,4.92034065 260.476116,5.76416418 250.52285,5.76416418 C239.237102,5.76416418 222.426094,4.67903076 200.059777,2.51070754 C175.531181,4.67914294 157.155006,5.76416418 144.903097,5.76416418 C132.667408,5.76416418 119.192448,4.68308713 104.475415,2.52332784 Z"></path>
                    </g>
                    <rect id="Rectangle-34" fill="#FFFFFF" x="64" y="10" width="37" height="4"></rect>
                    <rect id="Rectangle-34" fill="#FFFFFF" x="110" y="10" width="10" height="4"></rect>
                    <rect id="Rectangle-34" fill="#FFFFFF" x="126" y="10" width="10" height="4"></rect>
                    <rect id="Rectangle-34" fill="#FFFFFF" x="143" y="10" width="10" height="4"></rect>
                    <path d="M280.5,19.5 L296.5,5.5" id="Line-11" stroke="#050505" stroke-width="3" stroke-linecap="square"></path>
                    <path d="M198.5,19.5 L198.5,3.5" id="Line-11" stroke="#050505" stroke-width="3" stroke-linecap="square"></path>
                    <path d="M103.5,18.5 L103.5,6.5" id="Line-11" stroke="#050505" stroke-width="3" stroke-linecap="square"></path>
                </g>
                <g id="Doors" transform="translate(205.000000, 87.000000)">
                    <path d="M5.99790236,1 C5.91110564,42.5088573 5.91178689,64.1570493 5.99780479,65.4530929 C6.06377637,66.4470958 7.49758929,68.6135525 10.2705142,71.7089183 L54.6159804,71.7089183 C60.9162357,69.5429794 65.6198561,66.9724081 68.7280355,64.0183884 C71.8036142,61.0953524 73.8968317,57.0487235 75,51.8511879 L75,1 L5.99790236,1 Z" id="Rectangle-36" stroke="#000000" stroke-width="2"></path>
                    <rect id="Rectangle-37" fill="#000000" x="0" y="10" width="6" height="10"></rect>
                    <rect id="Rectangle-37" fill="#000000" x="0" y="49" width="6" height="10"></rect>
                    <path d="M108.997902,1 C108.911106,42.5088573 108.911787,64.1570493 108.997805,65.4530929 C109.063776,66.4470958 110.497589,68.6135525 113.270514,71.7089183 L157.61598,71.7089183 C163.916236,69.5429794 168.619856,66.9724081 171.728035,64.0183884 C174.803614,61.0953524 176.896832,57.0487235 178,51.8511879 L178,1 L108.997902,1 Z" id="Rectangle-36" stroke="#000000" stroke-width="2"></path>
                    <rect id="Rectangle-37" fill="#000000" x="103" y="10" width="6" height="10"></rect>
                    <rect id="Rectangle-37" fill="#000000" x="103" y="49" width="6" height="10"></rect>
                </g>
                <g id="Steering-Wheel" transform="translate(208.000000, 51.000000)" stroke="#000000" stroke-linecap="square">
                    <path d="M0.5,34.5 L12.5,21.5" id="Line-13" stroke-width="4"></path>
                    <path d="M13,20 L8,0" id="Line-13" stroke-width="4"></path>
                    <path d="M14,21 L36,26" id="Line-13" stroke-width="4"></path>
                    <path d="M9,2 L32,24" id="Line-13" stroke-width="2"></path>
                </g>
                <g id="wheel" transform="translate(384.000000, 151.000000)">
                    <path d="M25.5,82.5 L46.5,61.5" id="Line-4" stroke="#000000" stroke-width="4" stroke-linecap="square"></path>
                    <path d="M53,94 L53,62" id="Line-4" stroke="#000000" stroke-width="4" stroke-linecap="square"></path>
                    <path d="M53,46 L53,14" id="Line-4" stroke="#000000" stroke-width="4" stroke-linecap="square"></path>
                    <path d="M61,47 L85,24" id="Line-4" stroke="#000000" stroke-width="4" stroke-linecap="square"></path>
                    <path d="M23,47 L47,24" id="Line-4" stroke="#000000" stroke-width="4" stroke-linecap="square" transform="translate(35.000000, 35.500000) scale(-1, 1) translate(-35.000000, -35.500000) "></path>
                    <path d="M61,83 L85,60" id="Line-4" stroke="#000000" stroke-width="4" stroke-linecap="square" transform="translate(73.000000, 71.500000) scale(-1, 1) translate(-73.000000, -71.500000) "></path>
                    <path d="M62,54 L94,54" id="Line-4" stroke="#000000" stroke-width="4" stroke-linecap="square"></path>
                    <path d="M13,54 L45,54" id="Line-4" stroke="#000000" stroke-width="4" stroke-linecap="square"></path>
                    <circle id="Oval-2" stroke="#000000" stroke-width="9" stroke-dasharray="6000,2,8,9" cx="54" cy="54" r="44"></circle>
                    <circle id="Oval-2" stroke="#000000" stroke-width="9" stroke-dasharray="6000,2,8,9" cx="54" cy="54" r="54"></circle>
                    <circle id="Oval-2" stroke="#45587B" stroke-width="7" stroke-dasharray="6000,2,8,9" cx="54" cy="54" r="52"></circle>
                    <circle id="Oval-2" stroke="#A09B57" stroke-width="6" stroke-dasharray="6000,2,8,9" cx="54" cy="54" r="44"></circle>
                    <circle id="Oval" stroke="#000000" stroke-width="5" fill="#A09B57" cx="53.5" cy="54.5" r="8.5"></circle>
                </g>
                <g id="wheel" transform="translate(8.000000, 151.000000)">
                    <path d="M25.5,82.5 L46.5,61.5" id="Line-4" stroke="#000000" stroke-width="4" stroke-linecap="square"></path>
                    <path d="M53,94 L53,62" id="Line-4" stroke="#000000" stroke-width="4" stroke-linecap="square"></path>
                    <path d="M53,46 L53,14" id="Line-4" stroke="#000000" stroke-width="4" stroke-linecap="square"></path>
                    <path d="M61,47 L85,24" id="Line-4" stroke="#000000" stroke-width="4" stroke-linecap="square"></path>
                    <path d="M23,47 L47,24" id="Line-4" stroke="#000000" stroke-width="4" stroke-linecap="square" transform="translate(35.000000, 35.500000) scale(-1, 1) translate(-35.000000, -35.500000) "></path>
                    <path d="M61,83 L85,60" id="Line-4" stroke="#000000" stroke-width="4" stroke-linecap="square" transform="translate(73.000000, 71.500000) scale(-1, 1) translate(-73.000000, -71.500000) "></path>
                    <path d="M62,54 L94,54" id="Line-4" stroke="#000000" stroke-width="4" stroke-linecap="square"></path>
                    <path d="M13,54 L45,54" id="Line-4" stroke="#000000" stroke-width="4" stroke-linecap="square"></path>
                    <circle id="Oval-2" stroke="#000000" stroke-width="9" stroke-dasharray="6000,2,8,9" cx="54" cy="54" r="44"></circle>
                    <circle id="Oval-2" stroke="#000000" stroke-width="9" stroke-dasharray="6000,2,8,9" cx="54" cy="54" r="54"></circle>
                    <circle id="Oval-2" stroke="#45587B" stroke-width="7" stroke-dasharray="6000,2,8,9" cx="54" cy="54" r="52"></circle>
                    <circle id="Oval-2" stroke="#A09B57" stroke-width="6" stroke-dasharray="6000,2,8,9" cx="54" cy="54" r="44"></circle>
                    <circle id="Oval" stroke="#000000" stroke-width="5" fill="#A09B57" cx="53.5" cy="54.5" r="8.5"></circle>
                </g>
            </g>
        </g>
    </g>
</svg>