<?xml version="1.0" encoding="UTF-8"?>
<svg width="764px" height="385px" viewBox="0 0 764 385" version="1.1" xmlns="http://www.w3.org/2000/svg" xmlns:xlink="http://www.w3.org/1999/xlink">
    <!-- Generator: Sketch 48.2 (47327) - http://www.bohemiancoding.com/sketch -->
    <title>Car 4</title>
    <desc>Created with Sketch.</desc>
    <defs>
        <path d="M35,87 L50.2233968,87 C57.7136393,90.515163 61.6391737,93.1000043 62,94.754524 C62.3608263,96.4090437 62.3608263,111.824202 62,141 L35,141 L35,87 Z" id="path-1"></path>
        <path d="M60,63 L353.427329,63 C365.649263,24.1959725 376.774348,4.79395879 386.802585,4.79395879 C390.146597,4.79395879 424.457975,0.0342181867 481.358585,0.0342181867 C509.822331,0.0342181867 565.638868,0.523589818 582.663464,4.79395879 C589.294014,6.45713463 630.126979,17.574347 629.035915,58.2354033 C628.899106,63.3339052 651.817221,66.6201792 665.801678,90.0581127 C670.2926,97.5848931 673.335901,114.66345 674.93158,141.293784 L674.93158,188.158785 C576.272275,188.158785 523.867246,188.158785 517.716492,188.158785 C516.015474,188.158785 511.573168,207.365951 487.474855,208.224655 C461.061013,209.165868 397.058698,210.045847 292.357452,209.448544 C266.191089,209.299269 242.933964,183.208337 216.765967,161.224823 C206.419713,152.533022 198.657929,134.093486 185.470154,133.915643 C165.994042,133.652999 185.943563,126.532053 139.729891,111.465078 C136.428651,110.38878 109.852021,112.91247 60,119.036147 L60,63 Z" id="path-2"></path>
        <polygon id="path-3" points="51 90 59.7959636 95.4299213 59.7959636 132 51 132"></polygon>
        <polygon id="path-4" points="64.0886192 116.564836 195.662089 114.212202 270.284709 190.497302 33.6503015 190.497302"></polygon>
        <path d="M59.554747,63.0086879 L79.1488055,63.0086879 L79.1488055,83.9680267 C424.853521,80.1696293 605.781214,80.283232 621.931884,84.308835 C646.6224,90.4630205 663.352108,100.936459 672.121007,115.729152 L674.51821,141.634069 L600.707056,109.634512 C569.457219,113.774698 549.721147,119.241511 541.498843,126.034951 C531.679241,134.148112 523.634442,143.880968 520.156174,154.977605 C518.18487,161.266608 522.829037,172.054296 516.665257,173.151872 C506.96457,174.879261 520.280487,206.574082 487.776355,209.130111 C456.990612,211.551012 388.147284,211.359271 281.246374,208.554891 C269.475836,208.246109 253.649487,190.688964 237.867919,175.010239 C229.081884,166.28146 222.826223,155.357449 211.256351,154.977605 C199.510757,154.591993 191.029347,138.626407 172.494934,126.034951 C162.071818,118.95395 147.133316,116.824434 129.914114,109.634512 C122.947489,106.725579 99.4943662,106.725579 59.554747,109.634512 L59.554747,63.0086879 Z" id="path-5"></path>
        <path d="M59.6780147,111.05644 C69.2995149,104.067499 96.9529236,95.1285478 111.883639,94.7564759 C113.988361,94.7040264 144.080808,91.3664043 175.057813,111.05644 C178.297678,113.115809 197.680747,129.116865 223.512689,152.210671 C243.445932,170.03103 280.122078,196.225084 283.107666,197.700207 C285.082502,198.675936 294.847995,201.478704 298.442374,202.23768 C307.324127,204.113122 312.724083,203.362289 319.496303,203.672469 C325.838227,203.962941 352.659093,203.962941 399.9589,203.672469 C447.374278,204.392526 475.490249,203.914263 484.306815,202.23768 C492.543578,200.671355 495.792793,163.395314 508.002127,139.96968 C521.044919,114.944918 542.630137,103.155586 551.301723,100.85273 C568.568405,96.2673309 601.246932,91.755743 626.790584,104.067499 C669.225859,124.52083 676.428247,153.860827 681.47899,160.747543 C684.588941,164.987979 692.644623,171.11458 705.646038,179.127345 L705.646038,179.127344 C707.714018,180.401839 708.973403,182.657345 708.973403,185.086518 L708.973403,194.371783 C708.973403,196.862542 707.140163,198.97347 704.673973,199.32246 C674.985337,203.523699 660.210938,199.290791 660.350776,186.623738 C660.473124,175.540958 653.865321,149.723689 626.790584,130.613063 C618.511614,124.769375 602.131538,116.11888 576.44078,120.495066 C550.750021,124.871252 542.759217,134.216014 528.658712,155.67869 C518.66671,170.887727 520.464626,187.394681 514.614882,200.788734 C509.863587,211.667688 497.029087,221.120432 493.118588,221.120432 C459.819646,221.120432 349.19485,223.762945 315.104678,221.120432 C297.183643,219.731276 286.727259,223.49337 262.428174,210.202932 C251.525923,204.239922 229.913203,187.722782 217.299704,178.089239 C202.975598,167.149222 175.740845,138.360851 162.084951,130.613063 C140.636169,118.443914 126.14772,120.981828 121.061707,120.495066 C110.503103,119.484543 89.1576088,123.726184 77.2452557,130.613063 C69.209168,135.25896 59.1897726,142.24215 51.5608438,157.327042 C49.5054329,161.391263 47.0853739,172.282249 44.3006667,190 L25,190 C26.5215361,168.466094 29.1072677,153.544661 32.7571948,145.235701 C38.2320854,132.772261 50.0565145,118.045381 59.6780147,111.05644 Z" id="path-6"></path>
        <path d="M0.0725083452,177.5 C0.579821763,164.475951 9.55565231,158.642618 27,160 L27,195 C8.54102548,196.357382 -0.434805073,190.524049 0.0725083452,177.5 Z" id="path-7"></path>
        <path d="M590,40.1376943 C592.62676,38.0007498 594.62676,36.9322775 596,36.9322775 C597.37324,36.9322775 599.37324,38.0007498 602,40.1376943 L602,57.4663339 C599.509322,60.1608916 597.509322,61.5081705 596,61.5081705 C594.490678,61.5081705 592.490678,60.1608916 590,57.4663339 L590,40.1376943 Z" id="path-8"></path>
        <path d="M389.784846,27 L470,27 L470,75 L375,75 C377.239127,59.5165394 379.354722,48.5411239 381.346786,42.0737536 C383.33885,35.6063833 386.151537,30.5817988 389.784846,27 Z" id="path-9"></path>
        <path d="M485,27 L541.606977,27 C552.976285,27 562.472826,35.6629266 563.514451,46.984419 L566,74 L485,74 L485,27 Z" id="path-10"></path>
    </defs>
    <g id="Page-1" stroke="none" stroke-width="1" fill="none" fill-rule="evenodd">
        <g id="Car-4">
            <g transform="translate(28.000000, 74.000000)">
                <path d="M694.5,171.5 L694.5,161.5" id="Line-33" stroke="#000000" stroke-width="6" stroke-linecap="square"></path>
                <path d="M67.5,63.5 C67.8561501,60.4401993 68.3907949,58.2990365 69.1039344,57.0765116 C69.817074,55.8539866 71.124817,54.6101818 73.0271634,53.3450971" id="Line-34" stroke="#000000" stroke-width="3" stroke-linecap="square"></path>
                <g id="Rectangle-70">
                    <use fill="#B9B6B6" fill-rule="evenodd" xlink:href="#path-1"></use>
                    <path stroke="#000000" stroke-width="4" d="M37,89 L37,139 L60.0242631,139 C60.352979,111.702069 60.3459847,96.5565414 60.0459292,95.180678 C59.891861,94.4742194 56.2615134,92.0716129 49.7756073,89 L37,89 Z"></path>
                </g>
                <g id="Rectangle-66">
                    <use fill="#7F6A57" fill-rule="evenodd" xlink:href="#path-2"></use>
                    <path stroke="#000000" stroke-width="4" d="M62,65 L62,116.775917 C111.398474,110.729114 136.642942,108.355034 140.349832,109.563586 C153.542301,113.864707 162.345912,117.81697 168.0485,121.662021 C170.299962,123.180102 172.014643,124.639617 173.465766,126.188004 C174.309034,127.087794 176.32214,129.576993 176.16421,129.393127 C177.776866,131.270613 179.438072,131.834116 185.497123,131.915825 C190.020283,131.976822 194.134127,133.882011 198.2255,137.430353 C201.221479,140.028689 203.514397,142.682832 208.136581,148.55148 C208.498962,149.011667 208.681722,149.243721 208.860394,149.470359 C213.085639,154.829923 215.369239,157.439354 218.052433,159.693482 C221.249993,162.379726 224.491044,165.194534 228.673687,168.895237 C248.74688,186.655526 248.708532,186.62234 255.774454,191.933642 C269.49566,202.247578 280.954033,207.383457 292.368861,207.448576 C384.012377,207.971387 454.474992,207.399281 487.403634,206.225923 C497.149949,205.87863 504.110101,202.474937 509.212904,196.861286 C511.023865,194.869028 512.390262,192.86932 513.85438,190.306589 C513.970853,190.10272 514.085939,189.899221 514.230025,189.64289 C514.406721,189.328133 514.501238,189.159762 514.573764,189.031115 C514.844561,188.550775 515.024646,188.240779 515.196903,187.964397 C515.989116,186.693308 516.481464,186.158785 517.716492,186.158785 C521.46847,186.158785 521.46847,186.158785 531.002234,186.158785 C543.426889,186.158785 543.426889,186.158785 561.633329,186.158785 C606.27388,186.158785 606.714493,186.158785 672.93158,186.158785 L672.93158,141.353705 C671.354165,115.078521 668.350031,98.2324678 664.084166,91.082882 C660.600974,85.2450575 656.361343,80.3683344 651.402282,76.1869136 C647.102085,72.5610394 642.945869,69.9128397 636.999887,66.6814847 C629.29543,62.4944828 628.999012,62.3160518 627.814245,60.6164782 C627.293445,59.8693798 627.013261,59.0528398 627.036634,58.1817563 C627.500727,40.8862616 620.281024,27.9188555 607.555291,18.4979248 C602.836414,15.0045135 597.598139,12.1935165 592.112332,9.98292621 C588.384094,8.48057515 585.189647,7.4895732 582.176867,6.73386194 C568.557129,3.31755118 530.143187,2.03421819 481.358585,2.03421819 C456.585325,2.03421819 434.393287,2.91284627 414.1442,4.40865389 C403.881037,5.16679761 387.194604,6.79395879 386.802585,6.79395879 C378.135009,6.79395879 367.245702,25.7847782 355.334945,63.6008334 L354.894256,65 L62,65 Z M631.03521,58.2884809 C631.035205,58.2886707 631.0352,58.2888605 631.035195,58.2890503 C631.0352,58.2888589 631.035205,58.2886683 631.035211,58.2884785 Z"></path>
                </g>
                <rect id="Rectangle-79" fill="#F1F1F1" x="84" y="79" width="272" height="3"></rect>
                <g id="Rectangle-71">
                    <use fill="#FFFFFF" fill-rule="evenodd" xlink:href="#path-3"></use>
                    <path stroke="#0F0F0F" stroke-width="1" d="M51.5,90.8962574 L51.5,131.5 L59.2959636,131.5 L59.2959636,95.708859 L51.5,90.8962574 Z"></path>
                </g>
                <g id="Rectangle-69">
                    <use fill="#7F6A57" fill-rule="evenodd" xlink:href="#path-4"></use>
                    <path stroke="#000000" stroke-width="4" d="M65.4378805,118.54103 L36.6365791,188.497302 L265.530518,188.497302 L194.835496,116.227301 L65.4378805,118.54103 Z"></path>
                </g>
                <path d="M339.5,66.5 L339.5,57.5" id="Line-26" stroke="#000000" stroke-width="7" stroke-linecap="square"></path>
                <path d="M359.180356,82.5 L479.5,82.5 L479.5,16.5 L395.932713,16.5 C389.582406,16.5 383.874474,20.3735094 381.528848,26.2747331 L359.180356,82.5 Z" id="Rectangle-73" stroke="#000000" stroke-width="3"></path>
                <g id="Rectangle-67">
                    <use fill="#FFECCC" fill-rule="evenodd" xlink:href="#path-5"></use>
                    <path stroke="#000000" stroke-width="4" d="M61.554747,65.0086879 L61.554747,107.485184 C100.620531,104.699945 123.416571,104.754097 130.684738,107.788939 C134.564388,109.408897 138.511643,110.851858 143.124518,112.378972 C145.705097,113.233285 154.032419,115.863986 154.602078,116.047965 C163.589834,118.950678 168.900902,121.175456 173.618825,124.380603 C176.765648,126.518414 179.777278,128.849379 182.814832,131.45529 C184.85067,133.201831 186.846364,135.024241 189.105504,137.175708 C190.400365,138.408855 194.572483,142.458687 194.608622,142.493513 C198.865365,146.595489 201.465178,148.829645 204.0765,150.472112 C206.635903,152.081924 208.965827,152.901329 211.321976,152.978682 C218.774846,153.223363 223.980342,156.780569 231.376206,164.964898 C232.141165,165.811409 234.741023,168.742511 235.001809,169.034032 C236.675857,170.905373 237.968844,172.29128 239.277502,173.59141 C239.448452,173.761245 239.621278,173.93316 239.796263,174.107429 C241.008884,175.315087 242.229018,176.539284 243.934233,178.256667 C255.434356,189.838848 259.165776,193.451405 264.495321,197.824272 C271.430523,203.514572 276.939552,206.44122 281.298823,206.555579 C388.125483,209.358011 456.929511,209.549642 487.619565,207.136267 C500.5907,206.116255 506.360517,200.660722 508.743627,190.719826 C509.282921,188.470215 509.440136,187.441077 510.09832,182.463993 C510.560977,178.965446 510.900616,177.183656 511.544343,175.5295 C512.480649,173.123519 514.013877,171.592539 516.314635,171.182846 C517.929626,170.895267 518.238265,169.334199 517.823108,163.450955 C517.775125,162.770983 517.750096,162.402723 517.724605,161.986201 C517.518381,158.61648 517.611934,156.407772 518.247732,154.379399 C521.627768,143.59615 529.258185,133.554106 540.224957,124.493129 C548.836978,117.377697 568.825778,111.840879 600.444378,107.651837 L600.993948,107.579026 L672.215565,138.455934 L670.171455,116.366648 C661.646766,102.292317 645.446091,92.2310128 621.448177,86.2494606 C605.574787,82.2929705 424.01434,82.1789704 79.1707789,85.967906 L77.1488055,85.9901222 L77.1488055,65.0086879 L61.554747,65.0086879 Z"></path>
                </g>
                <g id="Wheel" transform="translate(234.000000, 97.000000)">
                    <circle id="Oval-3" stroke="#000000" stroke-width="22" cx="49" cy="49" r="49"></circle>
                    <circle id="Oval-3" stroke="#4A5A6C" stroke-width="15" cx="49" cy="49" r="49"></circle>
                    <circle id="Oval-4" stroke="#000000" stroke-width="11" cx="49.5" cy="49.5" r="14.5"></circle>
                    <circle id="Oval-4" stroke="#615F1C" stroke-width="7" cx="49.5" cy="49.5" r="14.5"></circle>
                    <path d="M33,39 L26.5,17.5" id="Line-27" stroke="#000000" stroke-width="2" stroke-linecap="square"></path>
                    <path d="M43,31 L26.5,17.5" id="Line-27" stroke="#000000" stroke-width="2" stroke-linecap="square"></path>
                    <path d="M42,31 L47,11" id="Line-27" stroke="#000000" stroke-width="2" stroke-linecap="square"></path>
                    <path d="M54,29 L48,10" id="Line-27" stroke="#000000" stroke-width="2" stroke-linecap="square"></path>
                    <path d="M55,30 L73,19" id="Line-27" stroke="#000000" stroke-width="2" stroke-linecap="square"></path>
                    <path d="M65,37 L73,20" id="Line-27" stroke="#000000" stroke-width="2" stroke-linecap="square"></path>
                    <path d="M65,37 L84,37" id="Line-27" stroke="#000000" stroke-width="2" stroke-linecap="square"></path>
                    <path d="M69,51 L85,38" id="Line-27" stroke="#000000" stroke-width="2" stroke-linecap="square"></path>
                    <path d="M69,51 L83,67" id="Line-27" stroke="#000000" stroke-width="2" stroke-linecap="square"></path>
                    <path d="M63,63 L83,68" id="Line-27" stroke="#000000" stroke-width="2" stroke-linecap="square"></path>
                    <path d="M63,63 L65,83" id="Line-27" stroke="#000000" stroke-width="2" stroke-linecap="square"></path>
                    <path d="M51,70 L64,83" id="Line-27" stroke="#000000" stroke-width="2" stroke-linecap="square"></path>
                    <path d="M51,70 L40,86" id="Line-27" stroke="#000000" stroke-width="2" stroke-linecap="square"></path>
                    <path d="M38,66 L40,86" id="Line-27" stroke="#000000" stroke-width="2" stroke-linecap="square"></path>
                    <path d="M38,66 L17,69" id="Line-27" stroke="#000000" stroke-width="2" stroke-linecap="square"></path>
                    <path d="M30,51 L15,68" id="Line-27" stroke="#000000" stroke-width="2" stroke-linecap="square"></path>
                    <path d="M30,51 L12,41" id="Line-27" stroke="#000000" stroke-width="2" stroke-linecap="square"></path>
                    <path d="M32,40 L12,40" id="Line-27" stroke="#000000" stroke-width="2" stroke-linecap="square"></path>
                    <path d="M65,37 L73,20" id="Line-27" stroke="#000000" stroke-width="2" stroke-linecap="square"></path>
                </g>
                <path d="M358.5,83.5 C358.5,122.265938 358.5,122.59746 358.5,148.959427 C358.5,159.765032 358.5,159.765032 358.5,167.179636 C358.5,172.89874 358.5,172.89874 358.5,175.226842 C358.5,178.310856 360.82359,180.387486 365.980778,181.5 L467.573189,181.5 L478.982504,83.5 L358.5,83.5 Z" id="Rectangle-78" stroke="#060606" stroke-width="3"></path>
                <g id="Rectangle-68">
                    <use fill="#47270A" fill-rule="evenodd" xlink:href="#path-6"></use>
                    <path stroke="#000000" stroke-width="4" d="M27.1514919,188 L42.5926202,188 C45.3013537,171.045682 47.6569156,160.614763 49.7761009,156.424439 C56.4045718,143.31778 64.5165358,135.661727 76.2442443,128.881597 C87.8695691,122.160657 109.546162,117.38382 121.252248,118.504163 C121.889098,118.565114 122.547549,118.574963 124.465961,118.568153 C130.433606,118.546971 134.240199,118.782616 139.553688,119.834604 C147.054619,121.319671 154.832413,124.198799 163.071887,128.873535 C169.270088,132.390137 177.412361,139.282504 191.581021,152.40904 C192.138154,152.925196 192.717424,153.462662 193.340771,154.041712 C210.583235,170.058893 213.281597,172.50382 218.513644,176.49979 C226.817719,182.842016 231.058024,186.056099 236.423657,190.03699 C237.474845,190.816891 238.504352,191.577095 239.513487,192.318399 C250.05283,200.060526 258.159872,205.588764 263.387903,208.448247 C276.903271,215.840507 286.005236,218.202215 298.167994,218.603501 C299.665966,218.652923 300.899234,218.674717 303.595832,218.708255 C309.184103,218.777757 311.752464,218.854584 315.259246,219.126414 C330.105509,220.277228 359.76184,220.515819 403.833597,220.116526 C414.575648,220.019202 425.600714,219.891344 439.716899,219.707826 C437.081784,219.742084 464.442632,219.379682 470.713504,219.304085 C480.943604,219.180759 488.00664,219.120432 493.118588,219.120432 C494.484731,219.120432 498.393576,216.861229 502.240794,213.52349 C506.864296,209.512269 510.737274,204.670165 512.782057,199.988263 C514.640542,195.732925 515.617909,191.802785 517.186064,183.433839 C518.631673,175.718895 519.24641,172.847396 520.491733,168.74822 C522.081794,163.514284 524.149595,158.899667 526.987175,154.580527 C535.54102,141.56054 540.540236,135.238386 546.955548,130.116478 C554.308953,124.245609 563.109117,120.737184 576.104935,118.523465 C597.880816,114.814143 614.496969,119.487614 627.943912,128.9791 C640.547646,137.87541 649.698209,148.796164 655.56494,160.747533 C660.143869,170.075465 662.428369,179.606081 662.350654,186.645815 C662.230785,197.504009 675.792669,201.389527 704.393745,197.342189 C705.873459,197.132795 706.973403,195.866239 706.973403,194.371783 L706.973403,185.086518 C706.973403,183.351395 706.073842,181.740319 704.596713,180.829966 C691.378582,172.683638 683.179461,166.447948 679.866234,161.930344 C678.790741,160.463904 673.713956,150.19305 671.965972,147.136299 C667.232527,138.858782 661.516071,131.43448 653.794713,124.371337 C646.180483,117.406191 636.98724,111.202366 625.922211,105.869145 C605.062563,95.8150267 576.787286,96.154019 551.815057,102.78573 C546.86094,104.101362 539.51518,107.980274 532.525651,113.464006 C523.455128,120.58041 515.561924,129.792206 509.775692,140.894054 C506.757592,146.68478 504.118976,153.647497 501.474466,162.354448 C499.919725,167.473375 494.909237,186.075729 493.777366,189.71832 C490.899531,198.979779 488.46298,203.483173 484.680445,204.202471 C475.666518,205.916584 447.53233,206.395156 399.971182,205.672431 C352.607366,205.963296 325.800208,205.963296 319.404795,205.670375 C317.840818,205.598742 316.587733,205.58252 313.970487,205.580483 C313.922202,205.580446 313.922202,205.580446 313.873897,205.580409 C306.919386,205.575099 303.466096,205.342574 298.029172,204.194531 C293.956513,203.334562 284.252983,200.496886 282.221739,199.493286 C276.814074,196.821461 238.504588,168.296173 222.179708,153.701698 C199.651631,133.561554 177.888618,115.225632 173.984938,112.744321 C162.099448,105.1895 149.538555,100.52696 136.812566,98.1990686 C128.108548,96.6068932 120.643996,96.2789477 114.034563,96.6315741 C113.478183,96.661258 112.097207,96.7517747 111.933463,96.7558552 C97.7368951,97.1096322 70.3775755,105.756363 60.8534214,112.674593 C51.3382912,119.586268 39.8249869,134.118922 34.5883132,146.040068 C31.1749972,153.810389 28.6753533,167.831589 27.1514919,188 Z"></path>
                </g>
                <g id="Wheel" transform="translate(66.000000, 139.000000)">
                    <circle id="Oval-3" stroke="#000000" stroke-width="22" cx="49" cy="49" r="49"></circle>
                    <circle id="Oval-3" stroke="#4A5A6C" stroke-width="15" cx="49" cy="49" r="49"></circle>
                    <circle id="Oval-4" stroke="#000000" stroke-width="11" cx="49.5" cy="49.5" r="14.5"></circle>
                    <circle id="Oval-4" stroke="#615F1C" stroke-width="7" cx="49.5" cy="49.5" r="14.5"></circle>
                    <path d="M33,39 L26.5,17.5" id="Line-27" stroke="#000000" stroke-width="2" stroke-linecap="square"></path>
                    <path d="M43,31 L26.5,17.5" id="Line-27" stroke="#000000" stroke-width="2" stroke-linecap="square"></path>
                    <path d="M42,31 L47,11" id="Line-27" stroke="#000000" stroke-width="2" stroke-linecap="square"></path>
                    <path d="M54,29 L48,10" id="Line-27" stroke="#000000" stroke-width="2" stroke-linecap="square"></path>
                    <path d="M55,30 L73,19" id="Line-27" stroke="#000000" stroke-width="2" stroke-linecap="square"></path>
                    <path d="M65,37 L73,20" id="Line-27" stroke="#000000" stroke-width="2" stroke-linecap="square"></path>
                    <path d="M65,37 L84,37" id="Line-27" stroke="#000000" stroke-width="2" stroke-linecap="square"></path>
                    <path d="M69,51 L85,38" id="Line-27" stroke="#000000" stroke-width="2" stroke-linecap="square"></path>
                    <path d="M69,51 L83,67" id="Line-27" stroke="#000000" stroke-width="2" stroke-linecap="square"></path>
                    <path d="M63,63 L83,68" id="Line-27" stroke="#000000" stroke-width="2" stroke-linecap="square"></path>
                    <path d="M63,63 L65,83" id="Line-27" stroke="#000000" stroke-width="2" stroke-linecap="square"></path>
                    <path d="M51,70 L64,83" id="Line-27" stroke="#000000" stroke-width="2" stroke-linecap="square"></path>
                    <path d="M51,70 L40,86" id="Line-27" stroke="#000000" stroke-width="2" stroke-linecap="square"></path>
                    <path d="M38,66 L40,86" id="Line-27" stroke="#000000" stroke-width="2" stroke-linecap="square"></path>
                    <path d="M38,66 L17,69" id="Line-27" stroke="#000000" stroke-width="2" stroke-linecap="square"></path>
                    <path d="M30,51 L15,68" id="Line-27" stroke="#000000" stroke-width="2" stroke-linecap="square"></path>
                    <path d="M30,51 L12,41" id="Line-27" stroke="#000000" stroke-width="2" stroke-linecap="square"></path>
                    <path d="M32,40 L12,40" id="Line-27" stroke="#000000" stroke-width="2" stroke-linecap="square"></path>
                    <path d="M65,37 L73,20" id="Line-27" stroke="#000000" stroke-width="2" stroke-linecap="square"></path>
                </g>
                <g id="Wheel" transform="translate(540.000000, 140.000000)">
                    <circle id="Oval-3" stroke="#000000" stroke-width="22" cx="49" cy="49" r="49"></circle>
                    <circle id="Oval-3" stroke="#4A5A6C" stroke-width="15" cx="49" cy="49" r="49"></circle>
                    <circle id="Oval-4" stroke="#000000" stroke-width="11" cx="49.5" cy="49.5" r="14.5"></circle>
                    <circle id="Oval-4" stroke="#615F1C" stroke-width="7" cx="49.5" cy="49.5" r="14.5"></circle>
                    <path d="M33,39 L26.5,17.5" id="Line-27" stroke="#000000" stroke-width="2" stroke-linecap="square"></path>
                    <path d="M43,31 L26.5,17.5" id="Line-27" stroke="#000000" stroke-width="2" stroke-linecap="square"></path>
                    <path d="M42,31 L47,11" id="Line-27" stroke="#000000" stroke-width="2" stroke-linecap="square"></path>
                    <path d="M54,29 L48,10" id="Line-27" stroke="#000000" stroke-width="2" stroke-linecap="square"></path>
                    <path d="M55,30 L73,19" id="Line-27" stroke="#000000" stroke-width="2" stroke-linecap="square"></path>
                    <path d="M65,37 L73,20" id="Line-27" stroke="#000000" stroke-width="2" stroke-linecap="square"></path>
                    <path d="M65,37 L84,37" id="Line-27" stroke="#000000" stroke-width="2" stroke-linecap="square"></path>
                    <path d="M69,51 L85,38" id="Line-27" stroke="#000000" stroke-width="2" stroke-linecap="square"></path>
                    <path d="M69,51 L83,67" id="Line-27" stroke="#000000" stroke-width="2" stroke-linecap="square"></path>
                    <path d="M63,63 L83,68" id="Line-27" stroke="#000000" stroke-width="2" stroke-linecap="square"></path>
                    <path d="M63,63 L65,83" id="Line-27" stroke="#000000" stroke-width="2" stroke-linecap="square"></path>
                    <path d="M51,70 L64,83" id="Line-27" stroke="#000000" stroke-width="2" stroke-linecap="square"></path>
                    <path d="M51,70 L40,86" id="Line-27" stroke="#000000" stroke-width="2" stroke-linecap="square"></path>
                    <path d="M38,66 L40,86" id="Line-27" stroke="#000000" stroke-width="2" stroke-linecap="square"></path>
                    <path d="M38,66 L17,69" id="Line-27" stroke="#000000" stroke-width="2" stroke-linecap="square"></path>
                    <path d="M30,51 L15,68" id="Line-27" stroke="#000000" stroke-width="2" stroke-linecap="square"></path>
                    <path d="M30,51 L12,41" id="Line-27" stroke="#000000" stroke-width="2" stroke-linecap="square"></path>
                    <path d="M32,40 L12,40" id="Line-27" stroke="#000000" stroke-width="2" stroke-linecap="square"></path>
                    <path d="M65,37 L73,20" id="Line-27" stroke="#000000" stroke-width="2" stroke-linecap="square"></path>
                </g>
                <g id="Rectangle-72">
                    <use fill="#F3F3F3" fill-rule="evenodd" xlink:href="#path-7"></use>
                    <path stroke="#000000" stroke-width="4" d="M25,193.119382 L25,161.875577 C9.82836613,161.117445 2.51054587,166.29338 2.07099281,177.577845 C1.63475049,188.777315 8.89025019,193.908419 25,193.119382 Z"></path>
                </g>
                <path d="M479.5,16.5 L479.5,82.5 L578.41617,82.5 L574.957083,46.77174 C573.294662,29.6009069 558.864113,16.5 541.612993,16.5 L479.5,16.5 Z" id="Rectangle-74" stroke="#000000" stroke-width="3"></path>
                <g id="Rectangle-77">
                    <use fill="#E0EEFF" fill-rule="evenodd" xlink:href="#path-8"></use>
                    <path stroke="#000000" stroke-width="2" d="M591,40.6172093 L591,57.0716779 C593.187208,59.3835534 594.899153,60.5081705 596,60.5081705 C597.100847,60.5081705 598.812792,59.3835534 601,57.0716779 L601,40.6172093 C598.725358,38.8156343 597.020189,37.9322775 596,37.9322775 C594.979811,37.9322775 593.274642,38.8156343 591,40.6172093 Z"></path>
                </g>
                <g id="Rectangle-75">
                    <use fill="#E0EEFF" fill-rule="evenodd" xlink:href="#path-9"></use>
                    <path stroke="#000000" stroke-width="2" d="M390.199901,28 C386.83167,31.4373009 384.195405,36.2226063 382.302478,42.3681235 C380.378597,48.6141311 378.326664,59.1664062 376.155993,74 L469,74 L469,28 L390.199901,28 Z"></path>
                </g>
                <g id="Rectangle-76">
                    <use fill="#E0EEFF" fill-rule="evenodd" xlink:href="#path-10"></use>
                    <path stroke="#000000" stroke-width="2" d="M486,28 L486,73 L564.903772,73 L562.518657,47.0760363 C561.524378,36.2691572 552.459499,28 541.606977,28 L486,28 Z"></path>
                </g>
                <path d="M351.5,65.5 L359.5,79.5" id="Line-28" stroke="#000000" stroke-width="3" stroke-linecap="square"></path>
                <path d="M331.5,65.5 L317.5,82.5" id="Line-28" stroke="#000000" stroke-width="3" stroke-linecap="square"></path>
                <path d="M444.5,94.5 L459.5,94.5" id="Line-31" stroke="#000000" stroke-width="4" stroke-linecap="square"></path>
                <path d="M486.5,94.5 L501.5,94.5" id="Line-31" stroke="#000000" stroke-width="4" stroke-linecap="square"></path>
                <path d="M578.5,82.5 L578.5,97.5" id="Line-30" stroke="#000000" stroke-width="3" stroke-linecap="square"></path>
                <path d="M468.5,181.5 L496.5,181.5" id="Line-29" stroke="#000000" stroke-width="3" stroke-linecap="square"></path>
                <path d="M76.4710645,85.9392811 L61.6965326,85.9392811" id="Line-32" stroke="#060606" stroke-width="4" stroke-linecap="square"></path>
                <path d="M376.829504,21.7321392 C380.155147,17.4514192 382.622614,14.5984959 384.231904,13.1733692 C385.841195,11.7482425 388.899005,10.6761609 393.405333,9.95712446 L393.405333,13.1733692 C389.427827,13.7099012 386.764851,14.6003221 385.416406,15.8446319 C384.067961,17.0889416 382.359304,19.051444 380.290434,21.7321392 L376.829504,21.7321392 Z" id="Rectangle-80" fill="#F3EEEE"></path>
                <path d="M547,155.775015 C550.325643,151.494295 552.79311,148.641371 554.402401,147.216245 C556.011691,145.791118 559.069501,144.719036 563.575829,144 L563.575829,147.216245 C559.598323,147.752777 556.935347,148.643198 555.586902,149.887507 C554.238457,151.131817 552.5298,153.09432 550.460931,155.775015 L547,155.775015 Z" id="Rectangle-80" fill="#F3EEEE"></path>
                <path d="M79,150.775015 C82.3256431,146.494295 84.7931099,143.641371 86.4024005,142.216245 C88.0116911,140.791118 91.0695007,139.719036 95.5758292,139 L95.5758292,142.216245 C91.5983231,142.752777 88.9353475,143.643198 87.5869024,144.887507 C86.2384573,146.131817 84.5298,148.09432 82.4609306,150.775015 L79,150.775015 Z" id="Rectangle-80" fill="#F3EEEE"></path>
                <path d="M242,111.775015 C245.325643,107.494295 247.79311,104.641371 249.402401,103.216245 C251.011691,101.791118 254.069501,100.719036 258.575829,100 L258.575829,103.216245 C254.598323,103.752777 251.935347,104.643198 250.586902,105.887507 C249.238457,107.131817 247.5298,109.09432 245.460931,111.775015 L242,111.775015 Z" id="Rectangle-80" fill="#F3EEEE"></path>
                <path d="M515.350776,138.045592 C522.13472,127.907391 529.431876,120.404473 537.242243,115.536838 C545.052611,110.669203 555.990654,106.403578 570.056371,102.739961 L570.056371,108.235386 C559.665145,109.803188 550.547546,113.202798 542.703574,118.434217 C534.859602,123.665636 528.082726,130.20276 522.372946,138.045592 L515.350776,138.045592 Z" id="Rectangle-80" fill="#F3EEEE"></path>
            </g>
        </g>
    </g>
</svg>